<svg width="155" height="99" viewBox="0 0 155 99" fill="none" xmlns="http://www.w3.org/2000/svg">
<path d="M31.5373 72V62.13H33.3433V66.246H38.3973V62.13H40.2033V72H38.3973V67.744H33.3433V72H31.5373ZM45.8231 72.14C45.0298 72.14 44.2971 72.042 43.6251 71.846C42.9624 71.6407 42.3931 71.3607 41.9171 71.006L42.4771 69.592C42.7944 69.816 43.1258 70.0073 43.4711 70.166C43.8164 70.3153 44.1851 70.432 44.5771 70.516C44.9691 70.5907 45.3844 70.628 45.8231 70.628C46.5604 70.628 47.0924 70.5067 47.4191 70.264C47.7458 70.0213 47.9091 69.704 47.9091 69.312C47.9091 68.9667 47.7971 68.7053 47.5731 68.528C47.3491 68.3413 46.9478 68.1873 46.3691 68.066L44.7871 67.744C43.8818 67.5573 43.2051 67.2447 42.7571 66.806C42.3091 66.3673 42.0851 65.7793 42.0851 65.042C42.0851 64.426 42.2484 63.8893 42.5751 63.432C42.9018 62.9747 43.3591 62.62 43.9471 62.368C44.5351 62.116 45.2211 61.99 46.0051 61.99C46.7051 61.99 47.3538 62.0927 47.9511 62.298C48.5484 62.494 49.0478 62.7787 49.4491 63.152L48.8891 64.496C48.4878 64.16 48.0491 63.9127 47.5731 63.754C47.0971 63.586 46.5651 63.502 45.9771 63.502C45.3144 63.502 44.7964 63.6327 44.4231 63.894C44.0591 64.146 43.8771 64.496 43.8771 64.944C43.8771 65.2893 43.9891 65.5647 44.2131 65.77C44.4464 65.9753 44.8384 66.134 45.3891 66.246L46.9571 66.554C47.8904 66.7407 48.5811 67.0487 49.0291 67.478C49.4771 67.898 49.7011 68.4673 49.7011 69.186C49.7011 69.774 49.5424 70.292 49.2251 70.74C48.9078 71.1787 48.4598 71.524 47.8811 71.776C47.3024 72.0187 46.6164 72.14 45.8231 72.14ZM55.9945 72.14C54.9679 72.14 54.0859 71.9347 53.3485 71.524C52.6205 71.104 52.0605 70.516 51.6685 69.76C51.2765 68.9947 51.0805 68.094 51.0805 67.058C51.0805 66.022 51.2765 65.126 51.6685 64.37C52.0605 63.614 52.6205 63.0307 53.3485 62.62C54.0859 62.2 54.9679 61.99 55.9945 61.99C56.6852 61.99 57.3059 62.088 57.8565 62.284C58.4165 62.48 58.8972 62.7693 59.2985 63.152L58.7105 64.58C58.2719 64.2253 57.8472 63.9733 57.4365 63.824C57.0352 63.6653 56.5732 63.586 56.0505 63.586C55.0519 63.586 54.2865 63.8893 53.7545 64.496C53.2319 65.0933 52.9705 65.9473 52.9705 67.058C52.9705 68.1687 53.2319 69.0273 53.7545 69.634C54.2865 70.2407 55.0519 70.544 56.0505 70.544C56.5732 70.544 57.0352 70.4693 57.4365 70.32C57.8472 70.1613 58.2719 69.9 58.7105 69.536L59.2985 70.964C58.8972 71.3373 58.4165 71.6267 57.8565 71.832C57.3059 72.0373 56.6852 72.14 55.9945 72.14ZM65.2903 72V70.502H67.5583V63.642H68.4263L65.5143 65.378V63.67L68.0763 62.13H69.3643V70.502H71.4923V72H65.2903ZM75.6029 72.14C74.9962 72.14 74.4362 72.07 73.9229 71.93C73.4189 71.7807 72.9942 71.5753 72.6489 71.314L73.1389 70.138C73.4935 70.3807 73.8855 70.5673 74.3149 70.698C74.7442 70.8287 75.1782 70.894 75.6169 70.894C76.0835 70.894 76.4289 70.8147 76.6529 70.656C76.8862 70.4973 77.0029 70.2827 77.0029 70.012C77.0029 69.7973 76.9282 69.6293 76.7789 69.508C76.6389 69.3773 76.4102 69.2793 76.0929 69.214L74.6929 68.948C74.0955 68.8173 73.6382 68.5933 73.3209 68.276C73.0129 67.9587 72.8589 67.5433 72.8589 67.03C72.8589 66.5913 72.9755 66.204 73.2089 65.868C73.4515 65.532 73.7922 65.2707 74.2309 65.084C74.6789 64.888 75.2015 64.79 75.7989 64.79C76.3215 64.79 76.8115 64.86 77.2689 65C77.7355 65.14 78.1275 65.35 78.4449 65.63L77.9409 66.764C77.6515 66.5307 77.3202 66.3487 76.9469 66.218C76.5735 66.0873 76.2095 66.022 75.8549 66.022C75.3695 66.022 75.0149 66.1107 74.7909 66.288C74.5669 66.456 74.4549 66.6753 74.4549 66.946C74.4549 67.1513 74.5202 67.324 74.6509 67.464C74.7909 67.5947 75.0055 67.6927 75.2949 67.758L76.6949 68.024C77.3202 68.1453 77.7915 68.36 78.1089 68.668C78.4355 68.9667 78.5989 69.3773 78.5989 69.9C78.5989 70.3667 78.4729 70.768 78.2209 71.104C77.9689 71.44 77.6189 71.6967 77.1709 71.874C76.7229 72.0513 76.2002 72.14 75.6029 72.14ZM83.0522 72.14C82.2122 72.14 81.5775 71.9207 81.1482 71.482C80.7188 71.0433 80.5042 70.3853 80.5042 69.508V66.246H79.1462V64.93H80.5042V63.124L82.2542 62.676V64.93H84.1442V66.246H82.2542V69.396C82.2542 69.8813 82.3475 70.222 82.5342 70.418C82.7208 70.614 82.9775 70.712 83.3042 70.712C83.4815 70.712 83.6308 70.698 83.7522 70.67C83.8828 70.642 84.0088 70.6047 84.1302 70.558V71.944C83.9715 72.0093 83.7942 72.056 83.5982 72.084C83.4115 72.1213 83.2295 72.14 83.0522 72.14ZM91.7227 72V67.338L92.1007 68.416L87.8587 62.13H89.9447L92.8567 66.61H92.4647L95.3767 62.13H97.3927L93.1647 68.416L93.5287 67.338V72H91.7227ZM100.233 72.14C99.0479 72.14 98.1192 71.8133 97.4472 71.16C96.7752 70.5067 96.4392 69.6107 96.4392 68.472C96.4392 67.7347 96.5839 67.0907 96.8732 66.54C97.1626 65.9893 97.5639 65.56 98.0772 65.252C98.5999 64.944 99.2066 64.79 99.8972 64.79C100.579 64.79 101.148 64.9347 101.605 65.224C102.063 65.5133 102.408 65.9193 102.641 66.442C102.884 66.9647 103.005 67.576 103.005 68.276V68.738H97.8532V67.814H101.759L101.521 68.01C101.521 67.3567 101.381 66.8573 101.101 66.512C100.831 66.1667 100.434 65.994 99.9112 65.994C99.3326 65.994 98.8846 66.1993 98.5672 66.61C98.2592 67.0207 98.1052 67.5947 98.1052 68.332V68.514C98.1052 69.2793 98.2919 69.8533 98.6652 70.236C99.0479 70.6093 99.5846 70.796 100.275 70.796C100.677 70.796 101.05 70.7447 101.395 70.642C101.75 70.53 102.086 70.3527 102.403 70.11L102.921 71.286C102.585 71.5567 102.184 71.7667 101.717 71.916C101.251 72.0653 100.756 72.14 100.233 72.14ZM107.217 72.14C106.601 72.14 106.06 71.9953 105.593 71.706C105.126 71.4073 104.762 70.9827 104.501 70.432C104.24 69.8813 104.109 69.2233 104.109 68.458C104.109 67.6927 104.24 67.0393 104.501 66.498C104.762 65.9473 105.126 65.5273 105.593 65.238C106.06 64.9393 106.601 64.79 107.217 64.79C107.814 64.79 108.337 64.9393 108.785 65.238C109.242 65.5273 109.546 65.9193 109.695 66.414H109.541L109.695 64.93H111.375C111.347 65.2193 111.319 65.5133 111.291 65.812C111.272 66.1107 111.263 66.4047 111.263 66.694V72H109.527L109.513 70.544H109.681C109.532 71.0293 109.228 71.4167 108.771 71.706C108.314 71.9953 107.796 72.14 107.217 72.14ZM107.707 70.796C108.258 70.796 108.701 70.6047 109.037 70.222C109.373 69.83 109.541 69.242 109.541 68.458C109.541 67.674 109.373 67.0907 109.037 66.708C108.701 66.3253 108.258 66.134 107.707 66.134C107.156 66.134 106.713 66.3253 106.377 66.708C106.041 67.0907 105.873 67.674 105.873 68.458C105.873 69.242 106.036 69.83 106.363 70.222C106.699 70.6047 107.147 70.796 107.707 70.796ZM113.155 72V66.736C113.155 66.4373 113.145 66.134 113.127 65.826C113.117 65.518 113.094 65.2193 113.057 64.93H114.751L114.947 66.862H114.667C114.76 66.3953 114.914 66.008 115.129 65.7C115.353 65.392 115.623 65.1633 115.941 65.014C116.258 64.8647 116.603 64.79 116.977 64.79C117.145 64.79 117.28 64.7993 117.383 64.818C117.485 64.8273 117.588 64.8507 117.691 64.888L117.677 66.428C117.499 66.3533 117.345 66.3067 117.215 66.288C117.093 66.2693 116.939 66.26 116.753 66.26C116.351 66.26 116.011 66.344 115.731 66.512C115.46 66.68 115.255 66.9133 115.115 67.212C114.984 67.5107 114.919 67.8513 114.919 68.234V72H113.155ZM49.1292 93.52C48.6905 92.8293 48.3312 92.1527 48.0512 91.49C47.7805 90.8273 47.5845 90.1553 47.4632 89.474C47.3419 88.7833 47.2812 88.0647 47.2812 87.318C47.2812 86.562 47.3419 85.8433 47.4632 85.162C47.5845 84.4807 47.7805 83.8087 48.0512 83.146C48.3312 82.4833 48.6905 81.8113 49.1292 81.13H50.5292C50.0439 82.2033 49.6799 83.2487 49.4372 84.266C49.2039 85.274 49.0872 86.2913 49.0872 87.318C49.0872 88.3353 49.2039 89.3527 49.4372 90.37C49.6799 91.3873 50.0439 92.4373 50.5292 93.52H49.1292ZM55.3934 91.14C54.6001 91.14 53.8674 91.042 53.1954 90.846C52.5328 90.6407 51.9634 90.3607 51.4874 90.006L52.0474 88.592C52.3648 88.816 52.6961 89.0073 53.0414 89.166C53.3868 89.3153 53.7554 89.432 54.1474 89.516C54.5394 89.5907 54.9548 89.628 55.3934 89.628C56.1308 89.628 56.6628 89.5067 56.9894 89.264C57.3161 89.0213 57.4794 88.704 57.4794 88.312C57.4794 87.9667 57.3674 87.7053 57.1434 87.528C56.9194 87.3413 56.5181 87.1873 55.9394 87.066L54.3574 86.744C53.4521 86.5573 52.7754 86.2447 52.3274 85.806C51.8794 85.3673 51.6554 84.7793 51.6554 84.042C51.6554 83.426 51.8188 82.8893 52.1454 82.432C52.4721 81.9747 52.9294 81.62 53.5174 81.368C54.1054 81.116 54.7914 80.99 55.5754 80.99C56.2754 80.99 56.9241 81.0927 57.5214 81.298C58.1188 81.494 58.6181 81.7787 59.0194 82.152L58.4594 83.496C58.0581 83.16 57.6194 82.9127 57.1434 82.754C56.6674 82.586 56.1354 82.502 55.5474 82.502C54.8848 82.502 54.3668 82.6327 53.9934 82.894C53.6294 83.146 53.4474 83.496 53.4474 83.944C53.4474 84.2893 53.5594 84.5647 53.7834 84.77C54.0168 84.9753 54.4088 85.134 54.9594 85.246L56.5274 85.554C57.4608 85.7407 58.1514 86.0487 58.5994 86.478C59.0474 86.898 59.2714 87.4673 59.2714 88.186C59.2714 88.774 59.1128 89.292 58.7954 89.74C58.4781 90.1787 58.0301 90.524 57.4514 90.776C56.8728 91.0187 56.1868 91.14 55.3934 91.14ZM64.0809 91.14C63.3529 91.14 62.7135 90.9907 62.1629 90.692C61.6215 90.3933 61.2015 89.9687 60.9029 89.418C60.6042 88.858 60.4549 88.1953 60.4549 87.43C60.4549 86.6647 60.6042 86.0113 60.9029 85.47C61.2109 84.9287 61.6355 84.5133 62.1769 84.224C62.7182 83.9347 63.3529 83.79 64.0809 83.79C64.5475 83.79 65.0002 83.8647 65.4389 84.014C65.8869 84.154 66.2509 84.3593 66.5309 84.63L65.9989 85.848C65.7469 85.6147 65.4622 85.442 65.1449 85.33C64.8369 85.2087 64.5335 85.148 64.2349 85.148C63.6095 85.148 63.1195 85.344 62.7649 85.736C62.4195 86.128 62.2469 86.6973 62.2469 87.444C62.2469 88.1907 62.4195 88.7647 62.7649 89.166C63.1195 89.5673 63.6095 89.768 64.2349 89.768C64.5242 89.768 64.8229 89.712 65.1309 89.6C65.4482 89.488 65.7375 89.3153 65.9989 89.082L66.5309 90.286C66.2415 90.5567 65.8729 90.7667 65.4249 90.916C64.9862 91.0653 64.5382 91.14 64.0809 91.14ZM67.8875 91V83.93H69.6375V91H67.8875ZM67.7895 82.6V80.892H69.7355V82.6H67.7895ZM74.9539 91.14C73.7686 91.14 72.8399 90.8133 72.1679 90.16C71.4959 89.5067 71.1599 88.6107 71.1599 87.472C71.1599 86.7347 71.3046 86.0907 71.5939 85.54C71.8833 84.9893 72.2846 84.56 72.7979 84.252C73.3206 83.944 73.9273 83.79 74.6179 83.79C75.2993 83.79 75.8686 83.9347 76.3259 84.224C76.7833 84.5133 77.1286 84.9193 77.3619 85.442C77.6046 85.9647 77.7259 86.576 77.7259 87.276V87.738H72.5739V86.814H76.4799L76.2419 87.01C76.2419 86.3567 76.1019 85.8573 75.8219 85.512C75.5513 85.1667 75.1546 84.994 74.6319 84.994C74.0533 84.994 73.6053 85.1993 73.2879 85.61C72.9799 86.0207 72.8259 86.5947 72.8259 87.332V87.514C72.8259 88.2793 73.0126 88.8533 73.3859 89.236C73.7686 89.6093 74.3053 89.796 74.9959 89.796C75.3973 89.796 75.7706 89.7447 76.1159 89.642C76.4706 89.53 76.8066 89.3527 77.1239 89.11L77.6419 90.286C77.3059 90.5567 76.9046 90.7667 76.4379 90.916C75.9713 91.0653 75.4766 91.14 74.9539 91.14ZM79.2079 91V85.694C79.2079 85.4047 79.1985 85.1107 79.1799 84.812C79.1612 84.5133 79.1332 84.2193 79.0959 83.93H80.7899L80.9299 85.33H80.7619C80.9859 84.8353 81.3172 84.4573 81.7559 84.196C82.1945 83.9253 82.7032 83.79 83.2819 83.79C84.1125 83.79 84.7379 84.0233 85.1579 84.49C85.5779 84.9567 85.7879 85.6847 85.7879 86.674V91H84.0379V86.758C84.0379 86.1887 83.9259 85.7827 83.7019 85.54C83.4872 85.288 83.1605 85.162 82.7219 85.162C82.1805 85.162 81.7512 85.33 81.4339 85.666C81.1165 86.002 80.9579 86.45 80.9579 87.01V91H79.2079ZM90.8914 91.14C90.1634 91.14 89.5241 90.9907 88.9734 90.692C88.4321 90.3933 88.0121 89.9687 87.7134 89.418C87.4147 88.858 87.2654 88.1953 87.2654 87.43C87.2654 86.6647 87.4147 86.0113 87.7134 85.47C88.0214 84.9287 88.4461 84.5133 88.9874 84.224C89.5287 83.9347 90.1634 83.79 90.8914 83.79C91.3581 83.79 91.8107 83.8647 92.2494 84.014C92.6974 84.154 93.0614 84.3593 93.3414 84.63L92.8094 85.848C92.5574 85.6147 92.2727 85.442 91.9554 85.33C91.6474 85.2087 91.3441 85.148 91.0454 85.148C90.4201 85.148 89.9301 85.344 89.5754 85.736C89.2301 86.128 89.0574 86.6973 89.0574 87.444C89.0574 88.1907 89.2301 88.7647 89.5754 89.166C89.9301 89.5673 90.4201 89.768 91.0454 89.768C91.3347 89.768 91.6334 89.712 91.9414 89.6C92.2587 89.488 92.5481 89.3153 92.8094 89.082L93.3414 90.286C93.0521 90.5567 92.6834 90.7667 92.2354 90.916C91.7967 91.0653 91.3487 91.14 90.8914 91.14ZM97.9774 91.14C96.792 91.14 95.8634 90.8133 95.1914 90.16C94.5194 89.5067 94.1834 88.6107 94.1834 87.472C94.1834 86.7347 94.328 86.0907 94.6174 85.54C94.9067 84.9893 95.308 84.56 95.8214 84.252C96.344 83.944 96.9507 83.79 97.6414 83.79C98.3227 83.79 98.892 83.9347 99.3494 84.224C99.8067 84.5133 100.152 84.9193 100.385 85.442C100.628 85.9647 100.749 86.576 100.749 87.276V87.738H95.5974V86.814H99.5034L99.2654 87.01C99.2654 86.3567 99.1254 85.8573 98.8454 85.512C98.5747 85.1667 98.178 84.994 97.6554 84.994C97.0767 84.994 96.6287 85.1993 96.3114 85.61C96.0034 86.0207 95.8494 86.5947 95.8494 87.332V87.514C95.8494 88.2793 96.036 88.8533 96.4094 89.236C96.792 89.6093 97.3287 89.796 98.0194 89.796C98.4207 89.796 98.794 89.7447 99.1394 89.642C99.494 89.53 99.83 89.3527 100.147 89.11L100.665 90.286C100.329 90.5567 99.928 90.7667 99.4614 90.916C98.9947 91.0653 98.5 91.14 97.9774 91.14ZM102.865 93.52H101.465C101.95 92.4467 102.309 91.4013 102.543 90.384C102.785 89.3573 102.907 88.3353 102.907 87.318C102.907 86.3007 102.785 85.2833 102.543 84.266C102.309 83.2487 101.95 82.2033 101.465 81.13H102.865C103.313 81.8113 103.672 82.4833 103.943 83.146C104.213 83.8087 104.409 84.4853 104.531 85.176C104.652 85.8573 104.713 86.5713 104.713 87.318C104.713 88.0647 104.652 88.7833 104.531 89.474C104.409 90.1647 104.213 90.8413 103.943 91.504C103.672 92.1667 103.313 92.8387 102.865 93.52Z" fill="#202244" fill-opacity="0.8"/>
<g clip-path="url(#clip0_3_375)">
<path d="M79.2258 31.4238C81.0048 31.4238 82.4516 29.977 82.4516 28.198C82.4516 26.4189 81.0048 24.9722 79.2258 24.9722C77.4468 24.9722 76 26.4189 76 28.198C76 29.977 77.4468 31.4238 79.2258 31.4238ZM79.2258 26.5851C80.1153 26.5851 80.8387 27.3085 80.8387 28.198C80.8387 29.0875 80.1153 29.8109 79.2258 29.8109C78.3363 29.8109 77.6129 29.0875 77.6129 28.198C77.6129 27.3085 78.3363 26.5851 79.2258 26.5851Z" fill="#5E92EB"/>
<path d="M88.7315 24.4367C88.6282 24.2479 88.5274 24.0576 88.4161 23.8737C90.871 16.9729 91.5056 11.0044 88.5694 9.27698C86.7435 8.20439 84.0895 9.11165 80.8387 11.8963V5.6173H82.4516V4.00439H69.5484V5.6173H71.1613V11.8987C67.9089 9.11085 65.2532 8.20278 63.4282 9.27698C61.5565 10.377 61.0258 13.3471 61.8935 17.8657L63.4782 17.5617C62.7823 13.9367 63.0685 11.3592 64.246 10.6673C65.5347 9.90843 68.1097 11.1826 71.1613 14.0729V17.7342C68.575 18.6447 66.3782 20.227 64.7323 22.2479C64.3798 21.1746 64.0685 20.1286 63.8234 19.1334L62.2581 19.5197C62.5968 20.8971 63.05 22.3608 63.5847 23.8729C63.4734 24.0568 63.3726 24.2471 63.2694 24.4358C55.4694 25.8641 51 28.4004 51 31.4237C51 34.781 56.2935 37.1455 63.2839 38.4125C63.3806 38.5875 63.4911 38.752 63.5944 38.9221C60.8435 46.6721 60.775 52.0012 63.4282 53.5608C63.921 53.8504 64.4798 53.9955 65.0984 53.9955C65.4919 53.9955 65.9113 53.9367 66.3524 53.8181C68.9944 53.11 72.4355 50.2117 75.9524 45.9367C75.9685 45.9375 75.9839 45.9399 76 45.9399C76.0153 45.9399 76.0298 45.9375 76.0452 45.9375C79.5629 50.2125 83.0032 53.1108 85.6452 53.8181C86.0863 53.9358 86.5048 53.9955 86.8992 53.9955C87.5185 53.9955 88.0766 53.8504 88.5694 53.5608C91.221 52.0004 91.154 46.6721 88.404 38.9254C88.5089 38.7536 88.6202 38.5867 88.7177 38.41C90.304 38.1189 91.8032 37.7786 93.1637 37.3786L92.7089 35.8318C91.7234 36.1213 90.6573 36.3778 89.5435 36.6084C90.1621 34.9955 90.5161 33.252 90.5161 31.4237C90.5161 29.6052 90.1766 27.8576 89.5629 26.2391C96.3323 27.6375 99.3871 29.8052 99.3871 31.4237C99.3871 32.7391 97.5242 34.1608 94.2766 35.3229L94.8202 36.8415C98.8637 35.3939 101 33.5213 101 31.4237C101 28.4004 96.5306 25.8641 88.7315 24.4367ZM80.8387 14.0713C83.8879 11.1842 86.4629 9.90681 87.7516 10.6681C89.4258 11.652 89.3113 16.0737 87.275 22.2576C85.6282 20.2334 83.429 18.6471 80.8387 17.735V14.0713ZM72.2048 19.0899L72.7742 18.9149V5.6173H79.2258V18.9149L79.7952 19.0899C81.1669 19.5117 82.425 20.1423 83.5403 20.9399H68.4597C69.575 20.1423 70.8331 19.5117 72.2048 19.0899ZM74.2387 22.5528C73.9048 23.4891 73.0177 24.1657 71.9677 24.1657C70.9177 24.1657 70.0306 23.4891 69.6968 22.5528H74.2387ZM66.621 22.5528H68.0177C68.3927 24.3907 70.021 25.7786 71.9685 25.7786C73.9161 25.7786 75.5444 24.3907 75.9194 22.5528H85.379C85.8363 23.035 86.254 23.5512 86.6306 24.0979C85.4379 27.3189 83.7726 30.9318 81.6153 34.735C81.0234 35.7786 80.4145 36.7915 79.7976 37.7778C78.5516 37.8375 77.2863 37.8754 76 37.8754C74.696 37.8754 73.429 37.8447 72.204 37.7867C71.7629 37.0818 71.3282 36.3592 70.8992 35.6246C72.0226 34.9084 72.7742 33.6584 72.7742 32.2302C72.7742 30.0068 70.9653 28.1979 68.7419 28.1979C68.1952 28.1979 67.6742 28.3092 67.1976 28.5076C66.5113 27.0012 65.9056 25.5237 65.375 24.0883C65.75 23.5455 66.1661 23.0326 66.621 22.5528ZM67.8911 29.9729C68.1573 29.8729 68.4419 29.8108 68.7419 29.8108C70.0758 29.8108 71.1613 30.8963 71.1613 32.2302C71.1613 33.06 70.7411 33.7923 70.1024 34.2286C69.3097 32.806 68.571 31.3834 67.8911 29.9729ZM68.4798 34.6229C67.2702 34.4899 66.3226 33.4746 66.3226 32.2302C66.3226 31.81 66.4403 31.4197 66.6298 31.0746C67.2065 32.2528 67.8274 33.4383 68.4798 34.6229ZM52.6129 31.4237C52.6129 29.8052 55.6677 27.6375 62.4371 26.2391C61.8234 27.8576 61.4839 29.6052 61.4839 31.4237C61.4839 33.2568 61.8395 35.0052 62.4621 36.6213C56.3331 35.356 52.6129 33.3229 52.6129 31.4237ZM63.0968 31.4237C63.0968 29.4536 63.5427 27.5778 64.3387 25.8899C64.7976 27.052 65.2968 28.2334 65.8492 29.4326C65.1468 30.1584 64.7097 31.1431 64.7097 32.2302C64.7097 34.4536 66.5185 36.2625 68.7419 36.2625C68.9565 36.2625 69.1621 36.2318 69.3677 36.1996C69.6548 36.6947 69.9427 37.185 70.2355 37.6673C68.1298 37.5125 66.1653 37.277 64.371 36.977C63.5629 35.2923 63.0968 33.4133 63.0968 31.4237ZM65.9355 52.2608C65.2355 52.4471 64.6669 52.4173 64.246 52.1705C62.8089 51.3262 62.4637 47.4262 64.7347 40.5608C66.996 43.3439 70.2669 45.2633 73.9823 45.7834C70.9669 49.3012 68.0911 51.6834 65.9355 52.2608ZM65.3935 38.7536C67.2871 39.027 69.2694 39.2254 71.2806 39.3455C72.4073 41.1052 73.5605 42.7504 74.7153 44.2617C70.8556 43.8786 67.4952 41.785 65.3935 38.7536ZM75.9984 43.2842C75.0831 42.085 74.1685 40.802 73.2669 39.4391C74.1782 39.4705 75.0911 39.4883 76 39.4883C76.9194 39.4883 77.8282 39.4689 78.7298 39.4391C77.8282 40.8012 76.9137 42.085 75.9984 43.2842ZM80.7121 39.3512C82.7613 39.231 84.7323 39.0262 86.6048 38.7552C84.5032 41.7858 81.1419 43.8794 77.2815 44.2617C78.4355 42.752 79.5863 41.1084 80.7121 39.3512ZM87.7516 52.1705C87.3315 52.4181 86.7621 52.4471 86.0621 52.2608C83.9065 51.6834 81.0306 49.3012 78.0153 45.7834C81.7306 45.2633 85.0016 43.3455 87.2629 40.5633C89.5323 47.427 89.1879 51.3254 87.7516 52.1705ZM87.6355 36.9649C85.7919 37.2737 83.8226 37.5052 81.7677 37.6576C82.1903 36.9617 82.6089 36.2552 83.0194 35.531C84.7984 32.3947 86.3968 29.0786 87.6597 25.8867C88.4573 27.5754 88.9032 29.4528 88.9032 31.4237C88.9032 33.4084 88.4395 35.2834 87.6355 36.9649Z" fill="#5E92EB"/>
</g>
<defs>
<clipPath id="clip0_3_375">
<rect width="50" height="50" fill="white" transform="translate(51 4)"/>
</clipPath>
</defs>
</svg>
