<svg width="70" height="76" viewBox="0 0 70 76" fill="none" xmlns="http://www.w3.org/2000/svg">
<path d="M12.8969 72.14C11.8702 72.14 10.9882 71.9347 10.2509 71.524C9.52289 71.104 8.96289 70.516 8.57089 69.76C8.17889 68.9947 7.98289 68.094 7.98289 67.058C7.98289 66.022 8.17889 65.126 8.57089 64.37C8.96289 63.614 9.52289 63.0307 10.2509 62.62C10.9882 62.2 11.8702 61.99 12.8969 61.99C13.5876 61.99 14.2082 62.088 14.7589 62.284C15.3189 62.48 15.7996 62.7693 16.2009 63.152L15.6129 64.58C15.1742 64.2253 14.7496 63.9733 14.3389 63.824C13.9376 63.6653 13.4756 63.586 12.9529 63.586C11.9542 63.586 11.1889 63.8893 10.6569 64.496C10.1342 65.0933 9.87289 65.9473 9.87289 67.058C9.87289 68.1687 10.1342 69.0273 10.6569 69.634C11.1889 70.2407 11.9542 70.544 12.9529 70.544C13.4756 70.544 13.9376 70.4693 14.3389 70.32C14.7496 70.1613 15.1742 69.9 15.6129 69.536L16.2009 70.964C15.7996 71.3373 15.3189 71.6267 14.7589 71.832C14.2082 72.0373 13.5876 72.14 12.8969 72.14ZM17.7489 72V61.696H19.4989V72H17.7489ZM24.1293 72.14C23.5133 72.14 22.9719 71.9953 22.5053 71.706C22.0386 71.4073 21.6746 70.9827 21.4133 70.432C21.1519 69.8813 21.0213 69.2233 21.0213 68.458C21.0213 67.6927 21.1519 67.0393 21.4133 66.498C21.6746 65.9473 22.0386 65.5273 22.5053 65.238C22.9719 64.9393 23.5133 64.79 24.1293 64.79C24.7266 64.79 25.2493 64.9393 25.6973 65.238C26.1546 65.5273 26.4579 65.9193 26.6073 66.414H26.4533L26.6073 64.93H28.2873C28.2593 65.2193 28.2313 65.5133 28.2033 65.812C28.1846 66.1107 28.1753 66.4047 28.1753 66.694V72H26.4393L26.4253 70.544H26.5933C26.4439 71.0293 26.1406 71.4167 25.6833 71.706C25.2259 71.9953 24.7079 72.14 24.1293 72.14ZM24.6193 70.796C25.1699 70.796 25.6133 70.6047 25.9493 70.222C26.2853 69.83 26.4533 69.242 26.4533 68.458C26.4533 67.674 26.2853 67.0907 25.9493 66.708C25.6133 66.3253 25.1699 66.134 24.6193 66.134C24.0686 66.134 23.6253 66.3253 23.2893 66.708C22.9533 67.0907 22.7853 67.674 22.7853 68.458C22.7853 69.242 22.9486 69.83 23.2753 70.222C23.6113 70.6047 24.0593 70.796 24.6193 70.796ZM32.6009 72.14C31.9942 72.14 31.4342 72.07 30.9209 71.93C30.4169 71.7807 29.9922 71.5753 29.6469 71.314L30.1369 70.138C30.4916 70.3807 30.8836 70.5673 31.3129 70.698C31.7422 70.8287 32.1762 70.894 32.6149 70.894C33.0816 70.894 33.4269 70.8147 33.6509 70.656C33.8842 70.4973 34.0009 70.2827 34.0009 70.012C34.0009 69.7973 33.9262 69.6293 33.7769 69.508C33.6369 69.3773 33.4082 69.2793 33.0909 69.214L31.6909 68.948C31.0936 68.8173 30.6362 68.5933 30.3189 68.276C30.0109 67.9587 29.8569 67.5433 29.8569 67.03C29.8569 66.5913 29.9736 66.204 30.2069 65.868C30.4496 65.532 30.7902 65.2707 31.2289 65.084C31.6769 64.888 32.1996 64.79 32.7969 64.79C33.3196 64.79 33.8096 64.86 34.2669 65C34.7336 65.14 35.1256 65.35 35.4429 65.63L34.9389 66.764C34.6496 66.5307 34.3182 66.3487 33.9449 66.218C33.5716 66.0873 33.2076 66.022 32.8529 66.022C32.3676 66.022 32.0129 66.1107 31.7889 66.288C31.5649 66.456 31.4529 66.6753 31.4529 66.946C31.4529 67.1513 31.5182 67.324 31.6489 67.464C31.7889 67.5947 32.0036 67.6927 32.2929 67.758L33.6929 68.024C34.3182 68.1453 34.7896 68.36 35.1069 68.668C35.4336 68.9667 35.5969 69.3773 35.5969 69.9C35.5969 70.3667 35.4709 70.768 35.2189 71.104C34.9669 71.44 34.6169 71.6967 34.1689 71.874C33.7209 72.0513 33.1982 72.14 32.6009 72.14ZM39.6146 72.14C39.0079 72.14 38.4479 72.07 37.9346 71.93C37.4306 71.7807 37.0059 71.5753 36.6606 71.314L37.1506 70.138C37.5052 70.3807 37.8972 70.5673 38.3266 70.698C38.7559 70.8287 39.1899 70.894 39.6286 70.894C40.0952 70.894 40.4406 70.8147 40.6646 70.656C40.8979 70.4973 41.0146 70.2827 41.0146 70.012C41.0146 69.7973 40.9399 69.6293 40.7906 69.508C40.6506 69.3773 40.4219 69.2793 40.1046 69.214L38.7046 68.948C38.1072 68.8173 37.6499 68.5933 37.3326 68.276C37.0246 67.9587 36.8706 67.5433 36.8706 67.03C36.8706 66.5913 36.9872 66.204 37.2206 65.868C37.4632 65.532 37.8039 65.2707 38.2426 65.084C38.6906 64.888 39.2132 64.79 39.8106 64.79C40.3332 64.79 40.8232 64.86 41.2806 65C41.7472 65.14 42.1392 65.35 42.4566 65.63L41.9526 66.764C41.6632 66.5307 41.3319 66.3487 40.9586 66.218C40.5852 66.0873 40.2212 66.022 39.8666 66.022C39.3812 66.022 39.0266 66.1107 38.8026 66.288C38.5786 66.456 38.4666 66.6753 38.4666 66.946C38.4666 67.1513 38.5319 67.324 38.6626 67.464C38.8026 67.5947 39.0172 67.6927 39.3066 67.758L40.7066 68.024C41.3319 68.1453 41.8032 68.36 42.1206 68.668C42.4472 68.9667 42.6106 69.3773 42.6106 69.9C42.6106 70.3667 42.4846 70.768 42.2326 71.104C41.9806 71.44 41.6306 71.6967 41.1826 71.874C40.7346 72.0513 40.2119 72.14 39.6146 72.14ZM48.552 72V70.502H50.82V63.642H51.688L48.776 65.378V63.67L51.338 62.13H52.626V70.502H54.754V72H48.552ZM59.5926 72.14C58.4352 72.14 57.5439 71.7013 56.9186 70.824C56.2932 69.9373 55.9806 68.6773 55.9806 67.044C55.9806 65.392 56.2932 64.1367 56.9186 63.278C57.5439 62.4193 58.4352 61.99 59.5926 61.99C60.7592 61.99 61.6506 62.4193 62.2666 63.278C62.8919 64.1367 63.2046 65.3873 63.2046 67.03C63.2046 68.6727 62.8919 69.9373 62.2666 70.824C61.6506 71.7013 60.7592 72.14 59.5926 72.14ZM59.5926 70.656C60.2272 70.656 60.6986 70.3667 61.0066 69.788C61.3146 69.2 61.4686 68.2807 61.4686 67.03C61.4686 65.7793 61.3146 64.874 61.0066 64.314C60.6986 63.7447 60.2272 63.46 59.5926 63.46C58.9672 63.46 58.4959 63.7447 58.1786 64.314C57.8706 64.874 57.7166 65.7793 57.7166 67.03C57.7166 68.2807 57.8706 69.2 58.1786 69.788C58.4959 70.3667 58.9672 70.656 59.5926 70.656Z" fill="#202244" fill-opacity="0.8"/>
<g clip-path="url(#clip0_40_269)">
<path fill-rule="evenodd" clip-rule="evenodd" d="M36.0003 8C42.9027 8 49.1534 10.7985 53.6771 15.3229C58.2015 19.8466 61 26.0967 61 32.9997C61 39.9027 58.2015 46.1534 53.6771 50.6771C49.1534 55.2015 42.9033 58 36.0003 58C29.0972 58 22.8466 55.2015 18.3229 50.6771C13.7985 46.1534 11 39.9027 11 32.9997C11 26.0967 13.7985 19.8466 18.3229 15.3229C22.8466 10.7985 29.0972 8 36.0003 8Z" fill="#01A437"/>
<path d="M40.503 42.0517L36.6427 35.6325C36.5847 35.532 36.5301 35.4296 36.4788 35.3255C36.4229 35.2173 36.3712 35.1057 36.3154 34.994C36.2635 34.8887 36.2169 34.7808 36.1759 34.6708C36.1417 34.5876 36.1135 34.5021 36.0915 34.4149H36.0241C36.0078 34.4632 35.9799 34.5306 35.9403 34.6265C35.9043 34.7184 35.8519 34.8225 35.7962 34.9342C35.7363 35.0499 35.6729 35.1656 35.609 35.2853C35.5409 35.4052 35.481 35.5127 35.4252 35.6087L31.4969 42.0517H28.1639L34.2477 32.9543L28.5989 23.9481H32.0236L35.4967 30.0278C35.6525 30.3191 35.7804 30.5866 35.884 30.8425C35.984 31.0936 36.0718 31.3135 36.1398 31.489C36.1554 31.4971 36.1718 31.5007 36.1875 31.5007C36.192 31.5005 36.1965 31.4994 36.2006 31.4974C36.2047 31.4954 36.2084 31.4926 36.2113 31.489C36.2875 31.2971 36.3869 31.0657 36.5032 30.8023C36.6189 30.5348 36.7585 30.2715 36.9143 30.004C37.5132 29.0062 38.1196 27.9963 38.7307 26.9781C39.3348 25.9665 39.9415 24.9565 40.5508 23.9481H43.7086L37.94 32.906C38.9247 34.4341 39.912 35.9604 40.9019 37.485C41.8879 39.0021 42.8659 40.5244 43.8359 42.0517H40.503Z" fill="white"/>
</g>
<defs>
<clipPath id="clip0_40_269">
<rect width="50" height="50" fill="white" transform="translate(11 8)"/>
</clipPath>
</defs>
</svg>
