<svg width="70" height="76" viewBox="0 0 70 76" fill="none" xmlns="http://www.w3.org/2000/svg">
<path d="M17.0942 72.14C16.0675 72.14 15.1855 71.9347 14.4482 71.524C13.7202 71.104 13.1602 70.516 12.7682 69.76C12.3762 68.9947 12.1802 68.094 12.1802 67.058C12.1802 66.022 12.3762 65.126 12.7682 64.37C13.1602 63.614 13.7202 63.0307 14.4482 62.62C15.1855 62.2 16.0675 61.99 17.0942 61.99C17.7848 61.99 18.4055 62.088 18.9562 62.284C19.5162 62.48 19.9968 62.7693 20.3982 63.152L19.8102 64.58C19.3715 64.2253 18.9468 63.9733 18.5362 63.824C18.1348 63.6653 17.6728 63.586 17.1502 63.586C16.1515 63.586 15.3862 63.8893 14.8542 64.496C14.3315 65.0933 14.0702 65.9473 14.0702 67.058C14.0702 68.1687 14.3315 69.0273 14.8542 69.634C15.3862 70.2407 16.1515 70.544 17.1502 70.544C17.6728 70.544 18.1348 70.4693 18.5362 70.32C18.9468 70.1613 19.3715 69.9 19.8102 69.536L20.3982 70.964C19.9968 71.3373 19.5162 71.6267 18.9562 71.832C18.4055 72.0373 17.7848 72.14 17.0942 72.14ZM21.9461 72V61.696H23.6961V72H21.9461ZM28.3265 72.14C27.7105 72.14 27.1692 71.9953 26.7025 71.706C26.2359 71.4073 25.8719 70.9827 25.6105 70.432C25.3492 69.8813 25.2185 69.2233 25.2185 68.458C25.2185 67.6927 25.3492 67.0393 25.6105 66.498C25.8719 65.9473 26.2359 65.5273 26.7025 65.238C27.1692 64.9393 27.7105 64.79 28.3265 64.79C28.9239 64.79 29.4465 64.9393 29.8945 65.238C30.3519 65.5273 30.6552 65.9193 30.8045 66.414H30.6505L30.8045 64.93H32.4845C32.4565 65.2193 32.4285 65.5133 32.4005 65.812C32.3819 66.1107 32.3725 66.4047 32.3725 66.694V72H30.6365L30.6225 70.544H30.7905C30.6412 71.0293 30.3379 71.4167 29.8805 71.706C29.4232 71.9953 28.9052 72.14 28.3265 72.14ZM28.8165 70.796C29.3672 70.796 29.8105 70.6047 30.1465 70.222C30.4825 69.83 30.6505 69.242 30.6505 68.458C30.6505 67.674 30.4825 67.0907 30.1465 66.708C29.8105 66.3253 29.3672 66.134 28.8165 66.134C28.2659 66.134 27.8225 66.3253 27.4865 66.708C27.1505 67.0907 26.9825 67.674 26.9825 68.458C26.9825 69.242 27.1459 69.83 27.4725 70.222C27.8085 70.6047 28.2565 70.796 28.8165 70.796ZM36.7982 72.14C36.1915 72.14 35.6315 72.07 35.1182 71.93C34.6142 71.7807 34.1895 71.5753 33.8442 71.314L34.3342 70.138C34.6888 70.3807 35.0808 70.5673 35.5102 70.698C35.9395 70.8287 36.3735 70.894 36.8122 70.894C37.2788 70.894 37.6242 70.8147 37.8482 70.656C38.0815 70.4973 38.1982 70.2827 38.1982 70.012C38.1982 69.7973 38.1235 69.6293 37.9742 69.508C37.8342 69.3773 37.6055 69.2793 37.2882 69.214L35.8882 68.948C35.2908 68.8173 34.8335 68.5933 34.5162 68.276C34.2082 67.9587 34.0542 67.5433 34.0542 67.03C34.0542 66.5913 34.1708 66.204 34.4042 65.868C34.6468 65.532 34.9875 65.2707 35.4262 65.084C35.8742 64.888 36.3968 64.79 36.9942 64.79C37.5168 64.79 38.0068 64.86 38.4642 65C38.9308 65.14 39.3228 65.35 39.6402 65.63L39.1362 66.764C38.8468 66.5307 38.5155 66.3487 38.1422 66.218C37.7688 66.0873 37.4048 66.022 37.0502 66.022C36.5648 66.022 36.2102 66.1107 35.9862 66.288C35.7622 66.456 35.6502 66.6753 35.6502 66.946C35.6502 67.1513 35.7155 67.324 35.8462 67.464C35.9862 67.5947 36.2008 67.6927 36.4902 67.758L37.8902 68.024C38.5155 68.1453 38.9868 68.36 39.3042 68.668C39.6308 68.9667 39.7942 69.3773 39.7942 69.9C39.7942 70.3667 39.6682 70.768 39.4162 71.104C39.1642 71.44 38.8142 71.6967 38.3662 71.874C37.9182 72.0513 37.3955 72.14 36.7982 72.14ZM43.8118 72.14C43.2052 72.14 42.6452 72.07 42.1318 71.93C41.6278 71.7807 41.2032 71.5753 40.8578 71.314L41.3478 70.138C41.7025 70.3807 42.0945 70.5673 42.5238 70.698C42.9532 70.8287 43.3872 70.894 43.8258 70.894C44.2925 70.894 44.6378 70.8147 44.8618 70.656C45.0952 70.4973 45.2118 70.2827 45.2118 70.012C45.2118 69.7973 45.1372 69.6293 44.9878 69.508C44.8478 69.3773 44.6192 69.2793 44.3018 69.214L42.9018 68.948C42.3045 68.8173 41.8472 68.5933 41.5298 68.276C41.2218 67.9587 41.0678 67.5433 41.0678 67.03C41.0678 66.5913 41.1845 66.204 41.4178 65.868C41.6605 65.532 42.0012 65.2707 42.4398 65.084C42.8878 64.888 43.4105 64.79 44.0078 64.79C44.5305 64.79 45.0205 64.86 45.4778 65C45.9445 65.14 46.3365 65.35 46.6538 65.63L46.1498 66.764C45.8605 66.5307 45.5292 66.3487 45.1558 66.218C44.7825 66.0873 44.4185 66.022 44.0638 66.022C43.5785 66.022 43.2238 66.1107 42.9998 66.288C42.7758 66.456 42.6638 66.6753 42.6638 66.946C42.6638 67.1513 42.7292 67.324 42.8598 67.464C42.9998 67.5947 43.2145 67.6927 43.5038 67.758L44.9038 68.024C45.5292 68.1453 46.0005 68.36 46.3178 68.668C46.6445 68.9667 46.8078 69.3773 46.8078 69.9C46.8078 70.3667 46.6818 70.768 46.4298 71.104C46.1778 71.44 45.8278 71.6967 45.3798 71.874C44.9318 72.0513 44.4092 72.14 43.8118 72.14ZM52.3993 72L57.1873 63.012V63.642H51.9513V62.13H58.8533V63.474L54.3733 72H52.3993Z" fill="#202244" fill-opacity="0.8"/>
<g clip-path="url(#clip0_40_248)">
<path fill-rule="evenodd" clip-rule="evenodd" d="M35.9997 8C42.9027 8 49.1534 10.7985 53.6771 15.3229C58.2015 19.8472 61 26.0972 61 33.0003C61 39.9033 58.2015 46.1534 53.6771 50.6771C49.1534 55.2015 42.9027 58 35.9997 58C29.0967 58 22.8466 55.2015 18.3229 50.6771C13.7985 46.1534 11 39.9027 11 33.0003C11 26.0972 13.7985 19.8472 18.3229 15.3229C22.8466 10.7985 29.0972 8 35.9997 8Z" fill="#01A437"/>
<path d="M37.7481 26.3117H36.5067V23.9487H47.045V26.3117H45.7914V39.676H47.045V42.0512H36.5067V39.676H37.7481V26.3117ZM40.3071 39.676H43.233V26.3117H40.3071V39.676ZM30.755 39.8516C30.8166 38.9032 30.9119 37.9548 31.0939 37.0216L33.5372 23.9487H36.3311L32.1237 42.0512H29.1303L24.955 23.9487H27.8291L30.2997 37.0454C30.4165 37.9693 30.5898 38.9271 30.659 39.8516H30.755Z" fill="white"/>
</g>
<defs>
<clipPath id="clip0_40_248">
<rect width="50" height="50" fill="white" transform="translate(11 8)"/>
</clipPath>
</defs>
</svg>
