<svg width="104" height="72" viewBox="0 0 104 72" fill="none" xmlns="http://www.w3.org/2000/svg">
<path d="M34.1688 70.14C33.3755 70.14 32.6428 70.042 31.9708 69.846C31.3081 69.6407 30.7388 69.3607 30.2628 69.006L30.8228 67.592C31.1401 67.816 31.4715 68.0073 31.8168 68.166C32.1621 68.3153 32.5308 68.432 32.9228 68.516C33.3148 68.5907 33.7301 68.628 34.1688 68.628C34.9061 68.628 35.4381 68.5067 35.7648 68.264C36.0915 68.0213 36.2548 67.704 36.2548 67.312C36.2548 66.9667 36.1428 66.7053 35.9188 66.528C35.6948 66.3413 35.2935 66.1873 34.7148 66.066L33.1328 65.744C32.2275 65.5573 31.5508 65.2447 31.1028 64.806C30.6548 64.3673 30.4308 63.7793 30.4308 63.042C30.4308 62.426 30.5941 61.8893 30.9208 61.432C31.2475 60.9747 31.7048 60.62 32.2928 60.368C32.8808 60.116 33.5668 59.99 34.3508 59.99C35.0508 59.99 35.6995 60.0927 36.2968 60.298C36.8941 60.494 37.3935 60.7787 37.7948 61.152L37.2348 62.496C36.8335 62.16 36.3948 61.9127 35.9188 61.754C35.4428 61.586 34.9108 61.502 34.3228 61.502C33.6601 61.502 33.1421 61.6327 32.7688 61.894C32.4048 62.146 32.2228 62.496 32.2228 62.944C32.2228 63.2893 32.3348 63.5647 32.5588 63.77C32.7921 63.9753 33.1841 64.134 33.7348 64.246L35.3028 64.554C36.2361 64.7407 36.9268 65.0487 37.3748 65.478C37.8228 65.898 38.0468 66.4673 38.0468 67.186C38.0468 67.774 37.8881 68.292 37.5708 68.74C37.2535 69.1787 36.8055 69.524 36.2268 69.776C35.6481 70.0187 34.9621 70.14 34.1688 70.14ZM42.8563 70.14C42.1283 70.14 41.4889 69.9907 40.9383 69.692C40.3969 69.3933 39.9769 68.9687 39.6783 68.418C39.3796 67.858 39.2303 67.1953 39.2303 66.43C39.2303 65.6647 39.3796 65.0113 39.6783 64.47C39.9863 63.9287 40.4109 63.5133 40.9523 63.224C41.4936 62.9347 42.1283 62.79 42.8563 62.79C43.3229 62.79 43.7756 62.8647 44.2143 63.014C44.6623 63.154 45.0263 63.3593 45.3063 63.63L44.7743 64.848C44.5223 64.6147 44.2376 64.442 43.9203 64.33C43.6123 64.2087 43.3089 64.148 43.0103 64.148C42.3849 64.148 41.8949 64.344 41.5403 64.736C41.1949 65.128 41.0223 65.6973 41.0223 66.444C41.0223 67.1907 41.1949 67.7647 41.5403 68.166C41.8949 68.5673 42.3849 68.768 43.0103 68.768C43.2996 68.768 43.5983 68.712 43.9063 68.6C44.2236 68.488 44.5129 68.3153 44.7743 68.082L45.3063 69.286C45.0169 69.5567 44.6483 69.7667 44.2003 69.916C43.7616 70.0653 43.3136 70.14 42.8563 70.14ZM46.6629 70V59.696H48.4129V64.344H48.2169C48.4316 63.84 48.7629 63.4573 49.2109 63.196C49.6589 62.9253 50.1723 62.79 50.7509 62.79C51.5909 62.79 52.2163 63.028 52.6269 63.504C53.0376 63.9707 53.2429 64.6847 53.2429 65.646V70H51.4929V65.73C51.4929 65.1793 51.3856 64.7827 51.1709 64.54C50.9656 64.288 50.6343 64.162 50.1769 64.162C49.6449 64.162 49.2156 64.33 48.8889 64.666C48.5716 64.9927 48.4129 65.4313 48.4129 65.982V70H46.6629ZM58.2905 70.14C57.5625 70.14 56.9325 69.9907 56.4005 69.692C55.8685 69.3933 55.4532 68.9687 55.1545 68.418C54.8652 67.8673 54.7205 67.214 54.7205 66.458C54.7205 65.702 54.8652 65.0533 55.1545 64.512C55.4532 63.9613 55.8685 63.5367 56.4005 63.238C56.9325 62.9393 57.5625 62.79 58.2905 62.79C59.0185 62.79 59.6485 62.9393 60.1805 63.238C60.7218 63.5367 61.1372 63.9613 61.4265 64.512C61.7252 65.0533 61.8745 65.702 61.8745 66.458C61.8745 67.214 61.7252 67.8673 61.4265 68.418C61.1372 68.9687 60.7218 69.3933 60.1805 69.692C59.6485 69.9907 59.0185 70.14 58.2905 70.14ZM58.2905 68.796C58.8412 68.796 59.2798 68.6047 59.6065 68.222C59.9332 67.83 60.0965 67.242 60.0965 66.458C60.0965 65.674 59.9332 65.0907 59.6065 64.708C59.2798 64.3253 58.8412 64.134 58.2905 64.134C57.7398 64.134 57.3012 64.3253 56.9745 64.708C56.6478 65.0907 56.4845 65.674 56.4845 66.458C56.4845 67.242 56.6478 67.83 56.9745 68.222C57.3012 68.6047 57.7398 68.796 58.2905 68.796ZM66.5756 70.14C65.8476 70.14 65.2176 69.9907 64.6856 69.692C64.1536 69.3933 63.7383 68.9687 63.4396 68.418C63.1503 67.8673 63.0056 67.214 63.0056 66.458C63.0056 65.702 63.1503 65.0533 63.4396 64.512C63.7383 63.9613 64.1536 63.5367 64.6856 63.238C65.2176 62.9393 65.8476 62.79 66.5756 62.79C67.3036 62.79 67.9336 62.9393 68.4656 63.238C69.007 63.5367 69.4223 63.9613 69.7116 64.512C70.0103 65.0533 70.1596 65.702 70.1596 66.458C70.1596 67.214 70.0103 67.8673 69.7116 68.418C69.4223 68.9687 69.007 69.3933 68.4656 69.692C67.9336 69.9907 67.3036 70.14 66.5756 70.14ZM66.5756 68.796C67.1263 68.796 67.565 68.6047 67.8916 68.222C68.2183 67.83 68.3816 67.242 68.3816 66.458C68.3816 65.674 68.2183 65.0907 67.8916 64.708C67.565 64.3253 67.1263 64.134 66.5756 64.134C66.025 64.134 65.5863 64.3253 65.2596 64.708C64.933 65.0907 64.7696 65.674 64.7696 66.458C64.7696 67.242 64.933 67.83 65.2596 68.222C65.5863 68.6047 66.025 68.796 66.5756 68.796ZM71.6688 70V59.696H73.4188V70H71.6688Z" fill="#202244" fill-opacity="0.8"/>
<path d="M74.9556 29.7396V51.9307H65.374V29.7385H74.9546L74.9556 29.7396Z" fill="#F2D59F"/>
<path d="M69.548 22.3822L74.9546 29.7386H65.374V22.3822H69.548Z" fill="#8ECAC1"/>
<path d="M65.374 29.7384V51.9306H55.7913V41.1954H51H46.2087V51.9306H36.6261V29.7384V22.382L51 15.0256L65.374 22.382V29.7384ZM53.3586 24.3719C53.3586 23.0386 52.3026 21.9575 51 21.9575C49.6975 21.9575 48.6415 23.0386 48.6415 24.3719C48.6415 25.7052 49.6975 26.7863 51 26.7863C52.3026 26.7863 53.3586 25.7052 53.3586 24.3719Z" fill="#F2D59F"/>
<path d="M60.0583 4.06921L56.8129 6.88346L60.0583 9.69772H51.0001V4.06921H60.0583Z" fill="#FF7124"/>
<path d="M55.7914 41.1956H51.0001V51.9308H55.7914V41.1956Z" fill="#FF7124"/>
<path d="M51.0001 26.7865C52.3027 26.7865 53.3586 25.7055 53.3586 24.3721C53.3586 23.0387 52.3027 21.9578 51.0001 21.9578C49.6974 21.9578 48.6415 23.0387 48.6415 24.3721C48.6415 25.7055 49.6974 26.7865 51.0001 26.7865Z" fill="#E6B263"/>
<path d="M51.0001 41.1956H46.2088V51.9308H51.0001V41.1956Z" fill="#FF7124"/>
<path d="M36.6261 29.7385V51.9307H27.0446V29.7396L27.0456 29.7385H36.6261Z" fill="#F2D59F"/>
<path d="M36.6261 22.3822V29.7386H27.0455L32.4521 22.3822H36.6261Z" fill="#8ECAC1"/>
<path d="M65.374 52.9999H55.7914C55.2146 52.9999 54.7468 52.5212 54.7468 51.9307C54.7468 51.3402 55.2146 50.8615 55.7914 50.8615H65.374C65.9508 50.8615 66.4185 51.3402 66.4185 51.9307C66.4185 52.5212 65.9509 52.9999 65.374 52.9999Z" fill="#5E2A41"/>
<path d="M46.2087 52.9999H36.6261C36.0493 52.9999 35.5815 52.5212 35.5815 51.9307C35.5815 51.3402 36.0493 50.8615 36.6261 50.8615H46.2087C46.7855 50.8615 47.2532 51.3402 47.2532 51.9307C47.2532 52.5212 46.7855 52.9999 46.2087 52.9999Z" fill="#5E2A41"/>
<path d="M36.626 53H27.0445C26.4676 53 26 52.5213 26 51.9307V29.7397C26 29.1491 26.4676 28.6704 27.0445 28.6704C27.6213 28.6704 28.0891 29.1491 28.0891 29.7397V50.8615H36.626C37.2028 50.8615 37.6706 51.3402 37.6706 51.9307C37.6706 52.5213 37.2029 53 36.626 53Z" fill="#5E2A41"/>
<path d="M36.6259 30.8078H27.0455C26.4687 30.8078 26.001 30.3291 26.001 29.7386C26.001 29.148 26.4687 28.6693 27.0455 28.6693H36.6261C37.2028 28.6693 37.6706 29.148 37.6706 29.7386C37.6705 30.329 37.2028 30.8078 36.6259 30.8078Z" fill="#5E2A41"/>
<path d="M74.9545 30.8078H65.374C64.7972 30.8078 64.3295 30.3291 64.3295 29.7386C64.3295 29.148 64.7972 28.6693 65.374 28.6693H74.9545C75.5313 28.6693 75.9991 29.148 75.9991 29.7386C75.9991 30.329 75.5313 30.8078 74.9545 30.8078Z" fill="#5E2A41"/>
<path d="M74.9556 53H65.374C64.7972 53 64.3295 52.5213 64.3295 51.9307C64.3295 51.3402 64.7972 50.8615 65.374 50.8615H73.9109V29.7397C73.9109 29.1491 74.3787 28.6704 74.9555 28.6704C75.5323 28.6704 76 29.1491 76 29.7397V51.9307C76.0001 52.5213 75.5324 53 74.9556 53Z" fill="#5E2A41"/>
<path d="M55.7914 52.893H46.2088C45.6895 52.893 45.2687 52.4622 45.2687 51.9307V41.1955C45.2687 40.664 45.6895 40.2332 46.2088 40.2332H55.7914C56.3106 40.2332 56.7315 40.664 56.7315 41.1955V51.9307C56.7315 52.4622 56.3106 52.893 55.7914 52.893ZM47.1489 50.9684H54.8513V42.1578H47.1489V50.9684Z" fill="#5E2A41"/>
<path d="M31.8359 47.8056C31.2591 47.8056 30.7913 47.3269 30.7913 46.7364V44.3872C30.7913 43.7967 31.2591 43.318 31.8359 43.318C32.4127 43.318 32.8804 43.7967 32.8804 44.3872V46.7364C32.8804 47.3269 32.4128 47.8056 31.8359 47.8056Z" fill="#5E2A41"/>
<path d="M70.1642 47.8056C69.5874 47.8056 69.1197 47.3269 69.1197 46.7364V44.3872C69.1197 43.7967 69.5874 43.318 70.1642 43.318C70.741 43.318 71.2088 43.7967 71.2088 44.3872V46.7364C71.2088 47.3269 70.741 47.8056 70.1642 47.8056Z" fill="#5E2A41"/>
<path d="M31.8359 39.3072C31.2591 39.3072 30.7913 38.8285 30.7913 38.238V35.8888C30.7913 35.2983 31.2591 34.8196 31.8359 34.8196C32.4127 34.8196 32.8804 35.2983 32.8804 35.8888V38.238C32.8804 38.8285 32.4128 39.3072 31.8359 39.3072Z" fill="#5E2A41"/>
<path d="M70.1642 39.3072C69.5874 39.3072 69.1197 38.8285 69.1197 38.238V35.8888C69.1197 35.2983 69.5874 34.8196 70.1642 34.8196C70.741 34.8196 71.2088 35.2983 71.2088 35.8888V38.238C71.2088 38.8285 70.741 39.3072 70.1642 39.3072Z" fill="#5E2A41"/>
<path d="M41.4174 44.6128C40.8406 44.6128 40.3729 44.1341 40.3729 43.5435V41.1955C40.3729 40.6049 40.8406 40.1262 41.4174 40.1262C41.9942 40.1262 42.4619 40.6049 42.4619 41.1955V43.5435C42.4619 44.1341 41.9942 44.6128 41.4174 44.6128Z" fill="#5E2A41"/>
<path d="M60.5827 44.6128C60.0059 44.6128 59.5381 44.1341 59.5381 43.5435V41.1955C59.5381 40.6049 60.0059 40.1262 60.5827 40.1262C61.1596 40.1262 61.6272 40.6049 61.6272 41.1955V43.5435C61.6272 44.1341 61.1596 44.6128 60.5827 44.6128Z" fill="#5E2A41"/>
<path d="M41.4174 36.1146C40.8406 36.1146 40.3729 35.6359 40.3729 35.0454V32.6973C40.3729 32.1068 40.8406 31.6281 41.4174 31.6281C41.9942 31.6281 42.4619 32.1068 42.4619 32.6973V35.0454C42.4619 35.6359 41.9942 36.1146 41.4174 36.1146Z" fill="#5E2A41"/>
<path d="M60.5827 36.1146C60.0059 36.1146 59.5381 35.6359 59.5381 35.0454V32.6973C59.5381 32.1068 60.0059 31.6281 60.5827 31.6281C61.1596 31.6281 61.6272 32.1068 61.6272 32.6973V35.0454C61.6272 35.6359 61.1596 36.1146 60.5827 36.1146Z" fill="#5E2A41"/>
<path d="M51 36.1146C50.4233 36.1146 49.9555 35.6359 49.9555 35.0454V32.6973C49.9555 32.1068 50.4233 31.6281 51 31.6281C51.5769 31.6281 52.0446 32.1068 52.0446 32.6973V35.0454C52.0446 35.6359 51.5768 36.1146 51 36.1146Z" fill="#5E2A41"/>
<path d="M74.955 30.8086C74.6793 30.8086 74.4044 30.6975 74.1992 30.4771C74.1713 30.4471 74.1442 30.4144 74.1198 30.3814L69.0268 23.4515H65.374C64.7972 23.4515 64.3295 22.9728 64.3295 22.3822C64.3295 21.7917 64.7972 21.313 65.374 21.313H69.548C69.8763 21.313 70.1854 21.4709 70.3827 21.7394L75.7813 29.0849C76.1053 29.5131 76.0668 30.1318 75.6754 30.5134C75.4732 30.7107 75.2137 30.8086 74.955 30.8086Z" fill="#5E2A41"/>
<path d="M27.0446 30.8082C26.7858 30.8082 26.5267 30.7105 26.3247 30.5135C25.931 30.1298 25.8937 29.5071 26.2235 29.0788L31.6174 21.7395C31.8148 21.471 32.1239 21.3131 32.4521 21.3131H36.6261C37.2029 21.3131 37.6706 21.7918 37.6706 22.3824C37.6706 22.9729 37.2029 23.4516 36.6261 23.4516H32.9733L27.8803 30.3815C27.856 30.4145 27.8298 30.4461 27.8019 30.4761C27.5965 30.6968 27.3207 30.8082 27.0446 30.8082Z" fill="#5E2A41"/>
<path d="M51.0001 52.893C50.4808 52.893 50.06 52.4622 50.06 51.9307V41.1955C50.06 40.664 50.4808 40.2332 51.0001 40.2332C51.5193 40.2332 51.9402 40.664 51.9402 41.1955V51.9307C51.9402 52.4622 51.5193 52.893 51.0001 52.893Z" fill="#5E2A41"/>
<path d="M65.374 53C64.7972 53 64.3294 52.5213 64.3294 51.9308V23.043L51 16.2212L37.6706 23.043V51.9308C37.6706 52.5213 37.2029 53 36.6261 53C36.0493 53 35.5815 52.5213 35.5815 51.9308V22.3822C35.5815 21.9772 35.8052 21.6069 36.159 21.4259L50.5329 14.0695C50.8268 13.9191 51.1731 13.9191 51.467 14.0695L65.841 21.4259C66.1949 21.607 66.4184 21.9773 66.4184 22.3822V51.9308C66.4185 52.5213 65.9509 53 65.374 53Z" fill="#5E2A41"/>
<path d="M51 16.0951C50.4233 16.0951 49.9555 15.6164 49.9555 15.0258V9.69778C49.9555 9.10724 50.4233 8.62854 51 8.62854C51.5769 8.62854 52.0446 9.10724 52.0446 9.69778V15.0258C52.0446 15.6164 51.5768 16.0951 51 16.0951Z" fill="#5E2A41"/>
<path d="M60.0583 10.767H51C50.4233 10.767 49.9555 10.2883 49.9555 9.69775V4.06924C49.9555 3.4787 50.4233 3 51 3H60.0583C60.4965 3 60.8881 3.28004 61.039 3.70121C61.1899 4.12239 61.0679 4.59521 60.7335 4.88518L58.4289 6.8836L60.7335 8.88202C61.0679 9.172 61.1899 9.64482 61.039 10.066C60.8881 10.487 60.4965 10.767 60.0583 10.767ZM52.0446 8.6285H57.2092L56.1377 7.69933C55.9034 7.49617 55.7684 7.19785 55.7684 6.8835C55.7684 6.56914 55.9034 6.27082 56.1377 6.06766L57.2092 5.13849H52.0446V8.6285Z" fill="#5E2A41"/>
<path d="M51.0001 27.7487C49.1812 27.7487 47.7014 26.2339 47.7014 24.372C47.7014 22.5102 49.1812 20.9954 51.0001 20.9954C52.8189 20.9954 54.2987 22.5102 54.2987 24.372C54.2987 26.2339 52.8189 27.7487 51.0001 27.7487ZM51.0001 22.92C50.2179 22.92 49.5816 23.5714 49.5816 24.372C49.5816 25.1727 50.2179 25.8241 51.0001 25.8241C51.7822 25.8241 52.4186 25.1727 52.4186 24.372C52.4186 23.5714 51.7822 22.92 51.0001 22.92Z" fill="#5E2A41"/>
</svg>
