<svg width="104" height="72" viewBox="0 0 104 72" fill="none" xmlns="http://www.w3.org/2000/svg">
<path d="M33.8207 68.14C32.7941 68.14 31.9121 67.9347 31.1747 67.524C30.4467 67.104 29.8867 66.516 29.4947 65.76C29.1027 64.9947 28.9067 64.094 28.9067 63.058C28.9067 62.022 29.1027 61.126 29.4947 60.37C29.8867 59.614 30.4467 59.0307 31.1747 58.62C31.9121 58.2 32.7941 57.99 33.8207 57.99C34.5114 57.99 35.1321 58.088 35.6827 58.284C36.2427 58.48 36.7234 58.7693 37.1247 59.152L36.5367 60.58C36.0981 60.2253 35.6734 59.9733 35.2627 59.824C34.8614 59.6653 34.3994 59.586 33.8767 59.586C32.8781 59.586 32.1127 59.8893 31.5807 60.496C31.0581 61.0933 30.7967 61.9473 30.7967 63.058C30.7967 64.1687 31.0581 65.0273 31.5807 65.634C32.1127 66.2407 32.8781 66.544 33.8767 66.544C34.3994 66.544 34.8614 66.4693 35.2627 66.32C35.6734 66.1613 36.0981 65.9 36.5367 65.536L37.1247 66.964C36.7234 67.3373 36.2427 67.6267 35.6827 67.832C35.1321 68.0373 34.5114 68.14 33.8207 68.14ZM41.3725 68.14C40.6445 68.14 40.0145 67.9907 39.4825 67.692C38.9505 67.3933 38.5352 66.9687 38.2365 66.418C37.9472 65.8673 37.8025 65.214 37.8025 64.458C37.8025 63.702 37.9472 63.0533 38.2365 62.512C38.5352 61.9613 38.9505 61.5367 39.4825 61.238C40.0145 60.9393 40.6445 60.79 41.3725 60.79C42.1005 60.79 42.7305 60.9393 43.2625 61.238C43.8038 61.5367 44.2192 61.9613 44.5085 62.512C44.8072 63.0533 44.9565 63.702 44.9565 64.458C44.9565 65.214 44.8072 65.8673 44.5085 66.418C44.2192 66.9687 43.8038 67.3933 43.2625 67.692C42.7305 67.9907 42.1005 68.14 41.3725 68.14ZM41.3725 66.796C41.9232 66.796 42.3618 66.6047 42.6885 66.222C43.0152 65.83 43.1785 65.242 43.1785 64.458C43.1785 63.674 43.0152 63.0907 42.6885 62.708C42.3618 62.3253 41.9232 62.134 41.3725 62.134C40.8218 62.134 40.3832 62.3253 40.0565 62.708C39.7298 63.0907 39.5665 63.674 39.5665 64.458C39.5665 65.242 39.7298 65.83 40.0565 66.222C40.3832 66.6047 40.8218 66.796 41.3725 66.796ZM46.4657 68V57.696H48.2157V68H46.4657ZM50.1161 68V57.696H51.8661V68H50.1161ZM57.1825 68.14C55.9971 68.14 55.0685 67.8133 54.3965 67.16C53.7245 66.5067 53.3885 65.6107 53.3885 64.472C53.3885 63.7347 53.5331 63.0907 53.8225 62.54C54.1118 61.9893 54.5131 61.56 55.0265 61.252C55.5491 60.944 56.1558 60.79 56.8465 60.79C57.5278 60.79 58.0971 60.9347 58.5545 61.224C59.0118 61.5133 59.3571 61.9193 59.5905 62.442C59.8331 62.9647 59.9545 63.576 59.9545 64.276V64.738H54.8025V63.814H58.7085L58.4705 64.01C58.4705 63.3567 58.3305 62.8573 58.0505 62.512C57.7798 62.1667 57.3831 61.994 56.8605 61.994C56.2818 61.994 55.8338 62.1993 55.5165 62.61C55.2085 63.0207 55.0545 63.5947 55.0545 64.332V64.514C55.0545 65.2793 55.2411 65.8533 55.6145 66.236C55.9971 66.6093 56.5338 66.796 57.2245 66.796C57.6258 66.796 57.9991 66.7447 58.3445 66.642C58.6991 66.53 59.0351 66.3527 59.3525 66.11L59.8705 67.286C59.5345 67.5567 59.1331 67.7667 58.6665 67.916C58.1998 68.0653 57.7051 68.14 57.1825 68.14ZM64.7124 71.136C64.059 71.136 63.4664 71.066 62.9344 70.926C62.4117 70.786 61.945 70.5713 61.5344 70.282L61.9124 69.022C62.183 69.1993 62.463 69.344 62.7524 69.456C63.0417 69.568 63.3404 69.652 63.6484 69.708C63.9564 69.764 64.269 69.792 64.5864 69.792C65.2397 69.792 65.725 69.6287 66.0424 69.302C66.369 68.9847 66.5324 68.5273 66.5324 67.93V66.236H66.6724C66.523 66.7213 66.2197 67.1087 65.7624 67.398C65.3144 67.6873 64.7964 67.832 64.2084 67.832C63.5737 67.832 63.0184 67.692 62.5424 67.412C62.0757 67.1227 61.7117 66.712 61.4504 66.18C61.189 65.648 61.0584 65.0227 61.0584 64.304C61.0584 63.5853 61.189 62.9647 61.4504 62.442C61.7117 61.91 62.0757 61.504 62.5424 61.224C63.0184 60.9347 63.5737 60.79 64.2084 60.79C64.8057 60.79 65.3237 60.9347 65.7624 61.224C66.2104 61.504 66.509 61.8867 66.6584 62.372L66.5324 62.288L66.6724 60.93H68.3664C68.329 61.2193 68.301 61.5133 68.2824 61.812C68.2637 62.1107 68.2544 62.4047 68.2544 62.694V67.72C68.2544 68.8307 67.951 69.6753 67.3444 70.254C66.747 70.842 65.8697 71.136 64.7124 71.136ZM64.6844 66.488C65.2444 66.488 65.6877 66.3013 66.0144 65.928C66.3504 65.5453 66.5184 65.004 66.5184 64.304C66.5184 63.604 66.3504 63.0673 66.0144 62.694C65.6877 62.3207 65.2444 62.134 64.6844 62.134C64.115 62.134 63.6624 62.3207 63.3264 62.694C62.9904 63.0673 62.8224 63.604 62.8224 64.304C62.8224 65.004 62.9904 65.5453 63.3264 65.928C63.6624 66.3013 64.115 66.488 64.6844 66.488ZM73.5614 68.14C72.376 68.14 71.4474 67.8133 70.7754 67.16C70.1034 66.5067 69.7674 65.6107 69.7674 64.472C69.7674 63.7347 69.912 63.0907 70.2014 62.54C70.4907 61.9893 70.892 61.56 71.4054 61.252C71.928 60.944 72.5347 60.79 73.2254 60.79C73.9067 60.79 74.476 60.9347 74.9334 61.224C75.3907 61.5133 75.736 61.9193 75.9694 62.442C76.212 62.9647 76.3334 63.576 76.3334 64.276V64.738H71.1814V63.814H75.0874L74.8494 64.01C74.8494 63.3567 74.7094 62.8573 74.4294 62.512C74.1587 62.1667 73.762 61.994 73.2394 61.994C72.6607 61.994 72.2127 62.1993 71.8954 62.61C71.5874 63.0207 71.4334 63.5947 71.4334 64.332V64.514C71.4334 65.2793 71.62 65.8533 71.9934 66.236C72.376 66.6093 72.9127 66.796 73.6034 66.796C74.0047 66.796 74.378 66.7447 74.7234 66.642C75.078 66.53 75.414 66.3527 75.7314 66.11L76.2494 67.286C75.9134 67.5567 75.512 67.7667 75.0454 67.916C74.5787 68.0653 74.084 68.14 73.5614 68.14Z" fill="#202244" fill-opacity="0.8"/>
<g clip-path="url(#clip0_2_855)">
<path d="M58.3751 3.78735H49.0001V7.69311H58.3751V3.78735Z" fill="#A5C6E3"/>
<path d="M62.2808 6.1311H52.9057V10.0369H62.2808V6.1311Z" fill="#A5C6E3"/>
<path d="M35.7192 34.1902H24V36.5997H35.7192V34.1902Z" fill="#A5C6E3"/>
<path d="M74.0001 34.1902H62.2809V36.5997H74.0001V34.1902Z" fill="#A5C6E3"/>
<path d="M35.7192 36.4656H24V52.2248H35.7192V36.4656Z" fill="#36A9E1"/>
<path d="M74.0001 36.4656H62.2809V52.2248H74.0001V36.4656Z" fill="#36A9E1"/>
<path d="M63.0633 25.6621H34.9379V28.0059H63.0633V25.6621Z" fill="#36A9E1"/>
<path d="M64.6249 23.3191H33.3752V25.6628H64.6249V23.3191Z" fill="#A5C6E3"/>
<path d="M66.1874 23.3186H31.8126V20.1936L49 14.7247L66.1874 20.1936V23.3186Z" fill="#36A9E1"/>
<path d="M62.282 28.0062H35.7192V52.2249H62.282V28.0062Z" fill="#1D71B8"/>
<path d="M41.1753 31.1316H39.6372V49.1005H41.1753V31.1316Z" fill="#A5C6E3"/>
<path d="M45.8624 31.1316H44.3243V49.1005H45.8624V31.1316Z" fill="#A5C6E3"/>
<path d="M50.5504 31.1316H49.0123V49.1005H50.5504V31.1316Z" fill="#A5C6E3"/>
<path d="M55.2375 31.1316H53.6994V49.1005H55.2375V31.1316Z" fill="#A5C6E3"/>
<path d="M59.9255 31.1316H58.3875V49.1005H59.9255V31.1316Z" fill="#A5C6E3"/>
<path d="M74 51.4557H24V52.9938H74V51.4557Z" fill="#1D1D1B"/>
<path d="M63.0502 50.6622H61.5122V28.775H36.4878V50.6622H34.9497V27.2369H63.0502V50.6622Z" fill="#1D1D1B"/>
<path d="M38.0625 31.1188H38.856V49.112H38.0625V50.6501H41.1875V49.112H40.394V31.1188H41.1875V29.5807H38.0625V31.1188Z" fill="#1D1D1B"/>
<path d="M42.7499 31.1188H43.5434V49.112H42.7499V50.6501H45.8749V49.112H45.0815V31.1188H45.8749V29.5807H42.7499V31.1188Z" fill="#1D1D1B"/>
<path d="M47.4374 31.1188H48.231V49.112H47.4374V50.6501H50.5624V49.112H49.7691V31.1188H50.5624V29.5807H47.4374V31.1188Z" fill="#1D1D1B"/>
<path d="M52.1249 31.1188H52.9183V49.112H52.1249V50.6501H55.2499V49.112H54.4565V31.1188H55.2499V29.5807H52.1249V31.1188Z" fill="#1D1D1B"/>
<path d="M59.9375 31.1188V29.5807H59.144V29.5686H57.6059V29.5807H56.8124V31.1188H57.6059V49.112H56.8124V50.6501H59.9375V49.112H59.144V31.1188H59.9375Z" fill="#1D1D1B"/>
<path d="M64.6249 24.8931H33.3752V26.4311H64.6249V24.8931Z" fill="#1D1D1B"/>
<path d="M34.1565 33.4868H24V35.0249H34.1565V33.4868Z" fill="#1D1D1B"/>
<path d="M49.7691 14.1623V3.00598H48.231V14.1624L31.0435 19.6311V24.0875H66.9565V19.6311L49.7691 14.1623ZM65.4184 22.5494H32.5815V20.7558L49 15.5317L65.4184 20.7558V22.5494Z" fill="#1D1D1B"/>
<path d="M59.144 8.46264H50.5624V6.92455H57.6059V4.55639H50.5624V3.01831H59.144V8.46264Z" fill="#1D1D1B"/>
<path d="M63.0502 10.8064H54.4687V9.2683H61.5121V6.90014H59.9375V5.36206H63.0502V10.8064Z" fill="#1D1D1B"/>
<path d="M49.7691 18.631H48.231V20.1935H49.7691V18.631Z" fill="white"/>
<path d="M24.7803 37.3407L33.3741 37.3682L33.379 35.8301L24.7852 35.8026L24.7803 37.3407Z" fill="#1D1D1B"/>
<path d="M24.7806 45.1808L33.3744 45.2083L33.3793 43.6702L24.7855 43.6427L24.7806 45.1808Z" fill="#1D1D1B"/>
<path d="M27.894 38.944H26.356V42.069H27.894V38.944Z" fill="white"/>
<path d="M31.8002 38.944H30.2621V42.069H31.8002V38.944Z" fill="white"/>
<path d="M27.894 46.7565H26.356V49.8816H27.894V46.7565Z" fill="white"/>
<path d="M31.8002 46.7565H30.2621V49.8816H31.8002V46.7565Z" fill="white"/>
<path d="M74 33.4868H63.8436V35.0249H74V33.4868Z" fill="#1D1D1B"/>
<path d="M64.6239 37.3388L73.2177 37.3663L73.2226 35.8282L64.6288 35.8007L64.6239 37.3388Z" fill="#1D1D1B"/>
<path d="M64.6242 45.179L73.218 45.2065L73.2229 43.6685L64.6291 43.641L64.6242 45.179Z" fill="#1D1D1B"/>
<path d="M67.738 38.944H66.2V42.069H67.738V38.944Z" fill="white"/>
<path d="M71.6437 38.944H70.1056V42.069H71.6437V38.944Z" fill="white"/>
<path d="M67.738 46.7565H66.2V49.8816H67.738V46.7565Z" fill="white"/>
<path d="M71.6437 46.7565H70.1056V49.8816H71.6437V46.7565Z" fill="white"/>
</g>
<defs>
<clipPath id="clip0_2_855">
<rect width="50" height="50" fill="white" transform="translate(24 3)"/>
</clipPath>
</defs>
</svg>
