<svg width="114" height="81" viewBox="0 0 114 81" fill="none" xmlns="http://www.w3.org/2000/svg">
<path d="M33.5256 76V66.13H40.1756V67.544H35.2616V70.274H39.8536V71.702H35.2616V74.572H40.1756V76H33.5256ZM41.7118 76V70.694C41.7118 70.4047 41.7025 70.1107 41.6838 69.812C41.6652 69.5133 41.6372 69.2193 41.5998 68.93H43.2938L43.4338 70.33H43.2658C43.4898 69.8353 43.8212 69.4573 44.2598 69.196C44.6985 68.9253 45.2072 68.79 45.7858 68.79C46.6165 68.79 47.2418 69.0233 47.6618 69.49C48.0818 69.9567 48.2918 70.6847 48.2918 71.674V76H46.5418V71.758C46.5418 71.1887 46.4298 70.7827 46.2058 70.54C45.9912 70.288 45.6645 70.162 45.2258 70.162C44.6845 70.162 44.2552 70.33 43.9378 70.666C43.6205 71.002 43.4618 71.45 43.4618 72.01V76H41.7118ZM53.4234 79.136C52.77 79.136 52.1774 79.066 51.6454 78.926C51.1227 78.786 50.656 78.5713 50.2454 78.282L50.6234 77.022C50.894 77.1993 51.174 77.344 51.4634 77.456C51.7527 77.568 52.0514 77.652 52.3594 77.708C52.6674 77.764 52.98 77.792 53.2974 77.792C53.9507 77.792 54.436 77.6287 54.7534 77.302C55.08 76.9847 55.2434 76.5273 55.2434 75.93V74.236H55.3834C55.234 74.7213 54.9307 75.1087 54.4734 75.398C54.0254 75.6873 53.5074 75.832 52.9194 75.832C52.2847 75.832 51.7294 75.692 51.2534 75.412C50.7867 75.1227 50.4227 74.712 50.1614 74.18C49.9 73.648 49.7694 73.0227 49.7694 72.304C49.7694 71.5853 49.9 70.9647 50.1614 70.442C50.4227 69.91 50.7867 69.504 51.2534 69.224C51.7294 68.9347 52.2847 68.79 52.9194 68.79C53.5167 68.79 54.0347 68.9347 54.4734 69.224C54.9214 69.504 55.22 69.8867 55.3694 70.372L55.2434 70.288L55.3834 68.93H57.0774C57.04 69.2193 57.012 69.5133 56.9934 69.812C56.9747 70.1107 56.9654 70.4047 56.9654 70.694V75.72C56.9654 76.8307 56.662 77.6753 56.0554 78.254C55.458 78.842 54.5807 79.136 53.4234 79.136ZM53.3954 74.488C53.9554 74.488 54.3987 74.3013 54.7254 73.928C55.0614 73.5453 55.2294 73.004 55.2294 72.304C55.2294 71.604 55.0614 71.0673 54.7254 70.694C54.3987 70.3207 53.9554 70.134 53.3954 70.134C52.826 70.134 52.3734 70.3207 52.0374 70.694C51.7014 71.0673 51.5334 71.604 51.5334 72.304C51.5334 73.004 51.7014 73.5453 52.0374 73.928C52.3734 74.3013 52.826 74.488 53.3954 74.488ZM58.8564 76V65.696H60.6064V76H58.8564ZM62.5067 76V68.93H64.2567V76H62.5067ZM62.4087 67.6V65.892H64.3547V67.6H62.4087ZM68.6771 76.14C68.0705 76.14 67.5105 76.07 66.9971 75.93C66.4931 75.7807 66.0685 75.5753 65.7231 75.314L66.2131 74.138C66.5678 74.3807 66.9598 74.5673 67.3891 74.698C67.8185 74.8287 68.2525 74.894 68.6911 74.894C69.1578 74.894 69.5031 74.8147 69.7271 74.656C69.9605 74.4973 70.0771 74.2827 70.0771 74.012C70.0771 73.7973 70.0025 73.6293 69.8531 73.508C69.7131 73.3773 69.4845 73.2793 69.1671 73.214L67.7671 72.948C67.1698 72.8173 66.7125 72.5933 66.3951 72.276C66.0871 71.9587 65.9331 71.5433 65.9331 71.03C65.9331 70.5913 66.0498 70.204 66.2831 69.868C66.5258 69.532 66.8665 69.2707 67.3051 69.084C67.7531 68.888 68.2758 68.79 68.8731 68.79C69.3958 68.79 69.8858 68.86 70.3431 69C70.8098 69.14 71.2018 69.35 71.5191 69.63L71.0151 70.764C70.7258 70.5307 70.3945 70.3487 70.0211 70.218C69.6478 70.0873 69.2838 70.022 68.9291 70.022C68.4438 70.022 68.0891 70.1107 67.8651 70.288C67.6411 70.456 67.5291 70.6753 67.5291 70.946C67.5291 71.1513 67.5945 71.324 67.7251 71.464C67.8651 71.5947 68.0798 71.6927 68.3691 71.758L69.7691 72.024C70.3945 72.1453 70.8658 72.36 71.1831 72.668C71.5098 72.9667 71.6731 73.3773 71.6731 73.9C71.6731 74.3667 71.5471 74.768 71.2951 75.104C71.0431 75.44 70.6931 75.6967 70.2451 75.874C69.7971 76.0513 69.2745 76.14 68.6771 76.14ZM73.1708 76V65.696H74.9208V70.344H74.7248C74.9395 69.84 75.2708 69.4573 75.7188 69.196C76.1668 68.9253 76.6801 68.79 77.2588 68.79C78.0988 68.79 78.7241 69.028 79.1348 69.504C79.5455 69.9707 79.7508 70.6847 79.7508 71.646V76H78.0008V71.73C78.0008 71.1793 77.8935 70.7827 77.6788 70.54C77.4735 70.288 77.1421 70.162 76.6848 70.162C76.1528 70.162 75.7235 70.33 75.3968 70.666C75.0795 70.9927 74.9208 71.4313 74.9208 71.982V76H73.1708Z" fill="#202244" fill-opacity="0.8"/>
<g clip-path="url(#clip0_36_229)">
<path d="M57 56C70.8071 56 82 44.8071 82 31C82 17.1929 70.8071 6 57 6C43.1929 6 32 17.1929 32 31C32 44.8071 43.1929 56 57 56Z" fill="#386895"/>
<path d="M80.7369 38.8629L55.8967 14.0227L47.7229 18.7843L47.3723 18.4336L42.8137 21.6444L42.6927 21.7149L42.7013 21.7235L40.9429 22.9621L57.9707 39.99L59.4692 38.4916L67.0519 46.0742L43.1111 48.0454L50.1009 55.0351C52.2923 55.663 54.6067 56 57 56C68.06 56 77.4411 48.8174 80.7369 38.8629Z" fill="#273B7A"/>
<path d="M47.0674 47.6456H66.9326V39.6261C66.9326 37.7559 65.4166 36.2399 63.5464 36.2399H50.4535C48.5833 36.2399 47.0673 37.7559 47.0673 39.6261L47.0674 47.6456Z" fill="#FFC61B"/>
<path d="M66.9326 39.6261C66.9326 37.7561 65.4166 36.2399 63.5464 36.2399H56.9438V47.6456H66.9326V39.6261Z" fill="#EAA22F"/>
<path d="M57 37.9024C60.3472 37.9024 63.0606 35.189 63.0606 31.8418C63.0606 28.4946 60.3472 25.7811 57 25.7811C53.6528 25.7811 50.9393 28.4946 50.9393 31.8418C50.9393 35.189 53.6528 37.9024 57 37.9024Z" fill="#FFEDB5"/>
<path d="M57 25.7811C56.9812 25.7811 56.9626 25.7823 56.944 25.7825V37.9009C56.9626 37.901 56.9812 37.9022 57 37.9022C60.3472 37.9022 63.0607 35.1887 63.0607 31.8416C63.0607 28.4944 60.3472 25.7811 57 25.7811Z" fill="#FEE187"/>
<path d="M40.1649 15.1177V21.5823C40.1649 22.4749 40.8885 23.1984 41.781 23.1984H49.8618L51.7648 25.1014C52.2553 25.592 53.0941 25.2445 53.0941 24.5508V23.1982H54.7102C55.6028 23.1982 56.3264 22.4747 56.3264 21.5821V15.1175C56.3264 14.2249 55.6029 13.5013 54.7102 13.5013H41.7811C40.8885 13.5015 40.1649 14.2251 40.1649 15.1177Z" fill="#E09112"/>
<path d="M70.8889 45.2677H43.1111V48.0454H70.8889V45.2677Z" fill="#FF5419"/>
<path d="M70.8889 45.2677H56.9445V48.0454H70.8889V45.2677Z" fill="#C92F00"/>
</g>
<defs>
<clipPath id="clip0_36_229">
<rect width="50" height="50" fill="white" transform="translate(32 6)"/>
</clipPath>
</defs>
</svg>
