<svg width="114" height="81" viewBox="0 0 114 81" fill="none" xmlns="http://www.w3.org/2000/svg">
<path d="M29.9487 76.14C28.922 76.14 28.04 75.9347 27.3027 75.524C26.5747 75.104 26.0147 74.516 25.6227 73.76C25.2307 72.9947 25.0347 72.094 25.0347 71.058C25.0347 70.022 25.2307 69.126 25.6227 68.37C26.0147 67.614 26.5747 67.0307 27.3027 66.62C28.04 66.2 28.922 65.99 29.9487 65.99C30.6394 65.99 31.26 66.088 31.8107 66.284C32.3707 66.48 32.8514 66.7693 33.2527 67.152L32.6647 68.58C32.226 68.2253 31.8014 67.9733 31.3907 67.824C30.9894 67.6653 30.5274 67.586 30.0047 67.586C29.006 67.586 28.2407 67.8893 27.7087 68.496C27.186 69.0933 26.9247 69.9473 26.9247 71.058C26.9247 72.1687 27.186 73.0273 27.7087 73.634C28.2407 74.2407 29.006 74.544 30.0047 74.544C30.5274 74.544 30.9894 74.4693 31.3907 74.32C31.8014 74.1613 32.226 73.9 32.6647 73.536L33.2527 74.964C32.8514 75.3373 32.3707 75.6267 31.8107 75.832C31.26 76.0373 30.6394 76.14 29.9487 76.14ZM34.7867 76V70.736C34.7867 70.4373 34.7774 70.134 34.7587 69.826C34.7494 69.518 34.726 69.2193 34.6887 68.93H36.3827L36.5787 70.862H36.2987C36.392 70.3953 36.546 70.008 36.7607 69.7C36.9847 69.392 37.2554 69.1633 37.5727 69.014C37.89 68.8647 38.2354 68.79 38.6087 68.79C38.7767 68.79 38.912 68.7993 39.0147 68.818C39.1174 68.8273 39.22 68.8507 39.3227 68.888L39.3087 70.428C39.1314 70.3533 38.9774 70.3067 38.8467 70.288C38.7254 70.2693 38.5714 70.26 38.3847 70.26C37.9834 70.26 37.6427 70.344 37.3627 70.512C37.092 70.68 36.8867 70.9133 36.7467 71.212C36.616 71.5107 36.5507 71.8513 36.5507 72.234V76H34.7867ZM43.6034 76.14C42.4181 76.14 41.4894 75.8133 40.8174 75.16C40.1454 74.5067 39.8094 73.6107 39.8094 72.472C39.8094 71.7347 39.9541 71.0907 40.2434 70.54C40.5327 69.9893 40.9341 69.56 41.4474 69.252C41.9701 68.944 42.5767 68.79 43.2674 68.79C43.9487 68.79 44.5181 68.9347 44.9754 69.224C45.4327 69.5133 45.7781 69.9193 46.0114 70.442C46.2541 70.9647 46.3754 71.576 46.3754 72.276V72.738H41.2234V71.814H45.1294L44.8914 72.01C44.8914 71.3567 44.7514 70.8573 44.4714 70.512C44.2007 70.1667 43.8041 69.994 43.2814 69.994C42.7027 69.994 42.2547 70.1993 41.9374 70.61C41.6294 71.0207 41.4754 71.5947 41.4754 72.332V72.514C41.4754 73.2793 41.6621 73.8533 42.0354 74.236C42.4181 74.6093 42.9547 74.796 43.6454 74.796C44.0467 74.796 44.4201 74.7447 44.7654 74.642C45.1201 74.53 45.4561 74.3527 45.7734 74.11L46.2914 75.286C45.9554 75.5567 45.5541 75.7667 45.0874 75.916C44.6207 76.0653 44.1261 76.14 43.6034 76.14ZM50.5873 76.14C49.9713 76.14 49.43 75.9953 48.9633 75.706C48.4967 75.4073 48.1327 74.9827 47.8713 74.432C47.61 73.8813 47.4793 73.2233 47.4793 72.458C47.4793 71.6927 47.61 71.0393 47.8713 70.498C48.1327 69.9473 48.4967 69.5273 48.9633 69.238C49.43 68.9393 49.9713 68.79 50.5873 68.79C51.1847 68.79 51.7073 68.9393 52.1553 69.238C52.6127 69.5273 52.916 69.9193 53.0653 70.414H52.9113L53.0653 68.93H54.7453C54.7173 69.2193 54.6893 69.5133 54.6613 69.812C54.6427 70.1107 54.6333 70.4047 54.6333 70.694V76H52.8973L52.8833 74.544H53.0513C52.902 75.0293 52.5987 75.4167 52.1413 75.706C51.684 75.9953 51.166 76.14 50.5873 76.14ZM51.0773 74.796C51.628 74.796 52.0713 74.6047 52.4073 74.222C52.7433 73.83 52.9113 73.242 52.9113 72.458C52.9113 71.674 52.7433 71.0907 52.4073 70.708C52.0713 70.3253 51.628 70.134 51.0773 70.134C50.5267 70.134 50.0833 70.3253 49.7473 70.708C49.4113 71.0907 49.2433 71.674 49.2433 72.458C49.2433 73.242 49.4067 73.83 49.7333 74.222C50.0693 74.6047 50.5173 74.796 51.0773 74.796ZM59.563 76.14C58.723 76.14 58.0883 75.9207 57.659 75.482C57.2296 75.0433 57.015 74.3853 57.015 73.508V70.246H55.657V68.93H57.015V67.124L58.765 66.676V68.93H60.655V70.246H58.765V73.396C58.765 73.8813 58.8583 74.222 59.045 74.418C59.2316 74.614 59.4883 74.712 59.815 74.712C59.9923 74.712 60.1416 74.698 60.263 74.67C60.3936 74.642 60.5196 74.6047 60.641 74.558V75.944C60.4823 76.0093 60.305 76.056 60.109 76.084C59.9223 76.1213 59.7403 76.14 59.563 76.14ZM61.8437 76V68.93H63.5937V76H61.8437ZM61.7457 67.6V65.892H63.6917V67.6H61.7457ZM67.566 76L64.514 68.93H66.376L68.588 74.46H68.154L70.422 68.93H72.172L69.106 76H67.566ZM73.1093 76V68.93H74.8593V76H73.1093ZM73.0113 67.6V65.892H74.9573V67.6H73.0113ZM79.7837 76.14C78.9437 76.14 78.309 75.9207 77.8797 75.482C77.4503 75.0433 77.2357 74.3853 77.2357 73.508V70.246H75.8777V68.93H77.2357V67.124L78.9857 66.676V68.93H80.8757V70.246H78.9857V73.396C78.9857 73.8813 79.079 74.222 79.2657 74.418C79.4523 74.614 79.709 74.712 80.0357 74.712C80.213 74.712 80.3623 74.698 80.4837 74.67C80.6143 74.642 80.7403 74.6047 80.8617 74.558V75.944C80.703 76.0093 80.5257 76.056 80.3297 76.084C80.143 76.1213 79.961 76.14 79.7837 76.14ZM82.0337 79.178L81.6277 77.792C82.0664 77.6987 82.4351 77.5913 82.7337 77.47C83.0324 77.3487 83.2797 77.19 83.4757 76.994C83.6717 76.798 83.8351 76.546 83.9657 76.238L84.3157 75.412L84.2737 76.098L81.1937 68.93H83.0557L85.2677 74.446H84.8617L87.0877 68.93H88.8517L85.6317 76.392C85.4171 76.896 85.1837 77.3113 84.9317 77.638C84.6797 77.974 84.4091 78.24 84.1197 78.436C83.8304 78.6413 83.5131 78.8 83.1677 78.912C82.8224 79.024 82.4444 79.1127 82.0337 79.178Z" fill="#202244" fill-opacity="0.8"/>
<g clip-path="url(#clip0_2_890)">
<path fill-rule="evenodd" clip-rule="evenodd" d="M37 44.3332H40.3333V10.999H37V44.3332Z" fill="#41EAD4"/>
<path fill-rule="evenodd" clip-rule="evenodd" d="M43.6667 44.3334H47V19.3334H43.6667V44.3334Z" fill="#FF9F1C"/>
<path fill-rule="evenodd" clip-rule="evenodd" d="M50.3333 44.3333H53.6666V16H50.3333V44.3333Z" fill="#1B98E0"/>
<path fill-rule="evenodd" clip-rule="evenodd" d="M57 44.3334H60.3333V29.3334H57V44.3334Z" fill="#F71735"/>
<path fill-rule="evenodd" clip-rule="evenodd" d="M63.6667 46H37V44.3334H62.8333V27.6667C62.8333 27.2075 63.2075 26.8334 63.6667 26.8334C64.1258 26.8334 64.5 27.2075 64.5 27.6667V45.1667C64.5 45.6259 64.1258 46 63.6667 46Z" fill="#4F5D75"/>
<path fill-rule="evenodd" clip-rule="evenodd" d="M49.435 54.2585C45.1475 53.5552 44.445 52.8527 43.7416 48.5652C43.735 48.526 43.7058 48.5002 43.6666 48.5002C43.6275 48.5002 43.5983 48.526 43.5916 48.5652C42.8883 52.8527 42.1858 53.5552 37.8983 54.2585C37.8591 54.2652 37.8333 54.2943 37.8333 54.3335C37.8333 54.3727 37.8591 54.4018 37.8983 54.4085C42.1858 55.111 42.8883 55.8143 43.5916 60.1018C43.5983 60.141 43.6275 60.1668 43.6666 60.1668C43.7058 60.1668 43.735 60.141 43.7416 60.1018C44.445 55.8143 45.1475 55.111 49.435 54.4085C49.4741 54.4018 49.5 54.3727 49.5 54.3335C49.5 54.2943 49.4741 54.2652 49.435 54.2585ZM86.1016 17.5918C81.8141 16.8885 81.1116 16.186 80.4083 11.8985C80.4016 11.8593 80.3725 11.8335 80.3333 11.8335C80.2941 11.8335 80.265 11.8593 80.2583 11.8985C79.5558 16.186 78.8525 16.8885 74.565 17.5918C74.5258 17.5985 74.5 17.6277 74.5 17.6668C74.5 17.706 74.5258 17.7352 74.565 17.7418C78.8525 18.4452 79.5558 19.1477 80.2583 23.4352C80.265 23.4743 80.2941 23.5002 80.3333 23.5002C80.3725 23.5002 80.4016 23.4743 80.4083 23.4352C81.1116 19.1477 81.8141 18.4452 86.1016 17.7418C86.1408 17.7352 86.1666 17.706 86.1666 17.6668C86.1666 17.6277 86.1408 17.5985 86.1016 17.5918Z" fill="#1B98E0"/>
<path fill-rule="evenodd" clip-rule="evenodd" d="M73.4258 46H78.9075C83.3766 46 87 49.6233 87 54.0925V61H65.3333V54.0925C65.3333 49.6233 68.9566 46 73.4258 46Z" fill="#2D3142"/>
<path fill-rule="evenodd" clip-rule="evenodd" d="M78.7579 54.3333L76.1671 50.7625L73.5754 54.3333L72.8337 46H79.5004L78.7579 54.3333Z" fill="#247BA0"/>
<path fill-rule="evenodd" clip-rule="evenodd" d="M76.1667 51L77.8333 46H74.5L76.1667 51Z" fill="#F71735"/>
<path fill-rule="evenodd" clip-rule="evenodd" d="M82.8333 61H81.1667V53.5C81.1667 53.0408 81.5408 52.6666 82 52.6666C82.4592 52.6666 82.8333 53.0408 82.8333 53.5V61ZM71.1667 61H69.5V53.5C69.5 53.0408 69.8742 52.6666 70.3333 52.6666C70.7925 52.6666 71.1667 53.0408 71.1667 53.5V61Z" fill="#4F5D75"/>
<path fill-rule="evenodd" clip-rule="evenodd" d="M81.935 36.7325V37.1916C82.96 37.2666 83.735 38.155 83.6667 39.1833C83.6734 39.7016 83.4909 40.2025 83.1592 40.6C82.8559 40.9641 82.4067 41.1791 81.935 41.1825C81.8767 43.1325 80.7309 44.8833 78.9659 45.7166L77.3842 46.5408C76.6192 46.9308 75.7142 46.9308 74.9492 46.5408L73.3675 45.7166C72.4884 45.2741 71.74 44.61 71.1925 43.7933C70.6784 43.0183 70.405 42.11 70.3984 41.1825C69.4059 41.0425 68.6667 40.1925 68.6667 39.1866C68.6667 38.1841 69.4059 37.3316 70.3984 37.1916V36.8333L77.5017 35.1666H79.51L81.935 36.7325Z" fill="#FFBF69"/>
<path fill-rule="evenodd" clip-rule="evenodd" d="M82.8333 37.6667C81.645 37.6567 80.5158 37.1392 79.7275 36.2508L78.6667 36.8333L78.5917 35.1667C77.0875 36.8008 74.9558 37.7092 72.7392 37.6667H69.5V35.6683C69.5 32.3508 71.9417 31 74.9558 31H77.3775C80.3917 31 82.8333 32.3542 82.8333 35.6683V37.6667Z" fill="#2D3142"/>
</g>
<defs>
<clipPath id="clip0_2_890">
<rect width="50" height="50" fill="white" transform="translate(37 11)"/>
</clipPath>
</defs>
</svg>
