<svg width="114" height="82" viewBox="0 0 114 82" fill="none" xmlns="http://www.w3.org/2000/svg">
<path d="M44.1796 78.14C43.3862 78.14 42.6536 78.042 41.9816 77.846C41.3189 77.6407 40.7496 77.3607 40.2736 77.006L40.8336 75.592C41.1509 75.816 41.4822 76.0073 41.8276 76.166C42.1729 76.3153 42.5416 76.432 42.9336 76.516C43.3256 76.5907 43.7409 76.628 44.1796 76.628C44.9169 76.628 45.4489 76.5067 45.7756 76.264C46.1022 76.0213 46.2656 75.704 46.2656 75.312C46.2656 74.9667 46.1536 74.7053 45.9296 74.528C45.7056 74.3413 45.3042 74.1873 44.7256 74.066L43.1436 73.744C42.2382 73.5573 41.5616 73.2447 41.1136 72.806C40.6656 72.3673 40.4416 71.7793 40.4416 71.042C40.4416 70.426 40.6049 69.8893 40.9316 69.432C41.2582 68.9747 41.7156 68.62 42.3036 68.368C42.8916 68.116 43.5776 67.99 44.3616 67.99C45.0616 67.99 45.7102 68.0927 46.3076 68.298C46.9049 68.494 47.4042 68.7787 47.8056 69.152L47.2456 70.496C46.8442 70.16 46.4056 69.9127 45.9296 69.754C45.4536 69.586 44.9216 69.502 44.3336 69.502C43.6709 69.502 43.1529 69.6327 42.7796 69.894C42.4156 70.146 42.2336 70.496 42.2336 70.944C42.2336 71.2893 42.3456 71.5647 42.5696 71.77C42.8029 71.9753 43.1949 72.134 43.7456 72.246L45.3136 72.554C46.2469 72.7407 46.9376 73.0487 47.3856 73.478C47.8336 73.898 48.0576 74.4673 48.0576 75.186C48.0576 75.774 47.8989 76.292 47.5816 76.74C47.2642 77.1787 46.8162 77.524 46.2376 77.776C45.6589 78.0187 44.9729 78.14 44.1796 78.14ZM49.619 78V67.696H51.369V73.94H51.397L54.267 70.93H56.381L52.811 74.668L52.825 73.968L56.633 78H54.463L51.397 74.836H51.369V78H49.619ZM57.3436 78V70.93H59.0936V78H57.3436ZM57.2456 69.6V67.892H59.1916V69.6H57.2456ZM60.994 78V67.696H62.744V78H60.994ZM64.6444 78V67.696H66.3944V78H64.6444ZM70.8148 78.14C70.2081 78.14 69.6481 78.07 69.1348 77.93C68.6308 77.7807 68.2061 77.5753 67.8608 77.314L68.3508 76.138C68.7054 76.3807 69.0974 76.5673 69.5268 76.698C69.9561 76.8287 70.3901 76.894 70.8288 76.894C71.2954 76.894 71.6408 76.8147 71.8648 76.656C72.0981 76.4973 72.2148 76.2827 72.2148 76.012C72.2148 75.7973 72.1401 75.6293 71.9908 75.508C71.8508 75.3773 71.6221 75.2793 71.3048 75.214L69.9048 74.948C69.3074 74.8173 68.8501 74.5933 68.5328 74.276C68.2248 73.9587 68.0708 73.5433 68.0708 73.03C68.0708 72.5913 68.1874 72.204 68.4208 71.868C68.6634 71.532 69.0041 71.2707 69.4428 71.084C69.8908 70.888 70.4134 70.79 71.0108 70.79C71.5334 70.79 72.0234 70.86 72.4808 71C72.9474 71.14 73.3394 71.35 73.6568 71.63L73.1528 72.764C72.8634 72.5307 72.5321 72.3487 72.1588 72.218C71.7854 72.0873 71.4214 72.022 71.0668 72.022C70.5814 72.022 70.2268 72.1107 70.0028 72.288C69.7788 72.456 69.6668 72.6753 69.6668 72.946C69.6668 73.1513 69.7321 73.324 69.8628 73.464C70.0028 73.5947 70.2174 73.6927 70.5068 73.758L71.9068 74.024C72.5321 74.1453 73.0034 74.36 73.3208 74.668C73.6474 74.9667 73.8108 75.3773 73.8108 75.9C73.8108 76.3667 73.6848 76.768 73.4328 77.104C73.1808 77.44 72.8308 77.6967 72.3828 77.874C71.9348 78.0513 71.4121 78.14 70.8148 78.14Z" fill="#202244" fill-opacity="0.8"/>
<path d="M72.315 29.6173C72.2928 29.6056 72.2701 29.5943 72.2479 29.5826C72.2489 29.5574 72.2504 29.5321 72.2513 29.5071C72.4371 24.2382 70.8034 20.3343 67.6512 18.5144C64.4989 16.6944 60.3012 17.2316 55.8311 20.027C55.8098 20.0403 55.7887 20.0543 55.7674 20.0678C55.7462 20.0544 55.725 20.0404 55.7037 20.027C51.2336 17.2317 47.0359 16.6945 43.8836 18.5144C40.7314 20.3343 39.0977 24.2383 39.2835 29.5071C39.2843 29.5321 39.286 29.5576 39.2868 29.5826C39.2647 29.5943 39.242 29.6056 39.2198 29.6173C34.5641 32.0909 32 35.4577 32 39.0976C32 42.7374 34.5641 46.1042 39.22 48.5778C39.2422 48.5895 39.2649 48.6008 39.2871 48.6126C39.2861 48.6377 39.2846 48.663 39.2837 48.688C39.0979 53.9569 40.7316 57.8609 43.8838 59.6808C45.111 60.3893 46.4959 60.7406 47.9942 60.7405C50.3449 60.7404 52.9739 59.8755 55.7039 58.1682C55.7252 58.155 55.7463 58.1409 55.7676 58.1275C55.7888 58.1408 55.81 58.1548 55.8313 58.1682C58.5615 59.8756 61.19 60.7405 63.5409 60.7405C65.039 60.7405 66.4245 60.3892 67.6513 59.6808C70.8035 57.8609 72.4373 53.9569 72.2514 48.688C72.2505 48.663 72.2489 48.6376 72.248 48.6126C72.2702 48.6008 72.2929 48.5895 72.3151 48.5778C76.971 46.1043 79.5351 42.7374 79.5351 39.0976C79.5351 35.4577 76.9709 32.0909 72.315 29.6173ZM65.2614 44.5789C64.2187 46.3849 63.0673 48.0742 61.8391 49.614C59.8916 49.9077 57.8529 50.0602 55.7675 50.0602C53.6821 50.0602 51.6434 49.9077 49.6959 49.614C48.4677 48.0742 47.3163 46.3849 46.2736 44.5789C45.2309 42.7728 44.3436 40.9309 43.6242 39.0976C44.3437 37.2641 45.2309 35.4223 46.2736 33.6163C47.3163 31.8102 48.4678 30.1209 49.6959 28.5811C51.6434 28.2874 53.682 28.1349 55.7675 28.1349C57.853 28.1349 59.8916 28.2876 61.8391 28.5811C63.0673 30.1209 64.2187 31.8102 65.2614 33.6163C66.3041 35.4223 67.1913 37.2641 67.9108 39.0976C67.1914 40.931 66.3042 42.7728 65.2614 44.5789ZM68.9601 42.1682C69.4701 43.9243 69.8138 45.6489 69.9786 47.3022C68.4643 47.9861 66.7989 48.5509 65.0231 48.9872C65.7684 47.929 66.478 46.8195 67.1441 45.6657C67.8102 44.5119 68.4162 43.3428 68.9601 42.1682ZM55.7675 55.507C54.418 54.5377 53.0963 53.3777 51.8305 52.058C53.1196 52.1743 54.4353 52.2341 55.7675 52.2341C57.0997 52.2341 58.4154 52.1743 59.7045 52.058C58.4387 53.3777 57.117 54.5377 55.7675 55.507ZM46.512 48.9873C44.7362 48.5509 43.0708 47.9864 41.5565 47.3023C41.7213 45.649 42.065 43.9243 42.575 42.1683C43.1188 43.3429 43.7249 44.5122 44.391 45.6659C45.0571 46.8195 45.7667 47.9291 46.512 48.9873ZM44.391 32.5293C43.7249 33.683 43.1188 34.8523 42.575 36.0269C42.065 34.2708 41.7213 32.5461 41.5565 30.8929C43.0708 30.209 44.7362 29.6443 46.512 29.2079C45.7667 30.266 45.0571 31.3756 44.391 32.5293ZM55.7675 22.6881C57.117 23.6574 58.4387 24.8174 59.7045 26.1371C58.4153 26.0208 57.0997 25.961 55.7675 25.961C54.4353 25.961 53.1197 26.0208 51.8305 26.1371C53.0964 24.8174 54.4182 23.6576 55.7675 22.6881ZM67.1441 32.5293C66.478 31.3756 65.7684 30.266 65.0231 29.2078C66.7989 29.6442 68.4643 30.2088 69.9786 30.8928C69.8138 32.5461 69.4701 34.2708 68.9601 36.0268C68.4162 34.8523 67.8102 33.683 67.1441 32.5293ZM63.5297 19.6289C64.6526 19.6289 65.6747 19.8833 66.5642 20.397C68.8274 21.7036 70.0653 24.5899 70.0911 28.5735C67.9433 27.6847 65.5489 27.0098 63.001 26.5688C61.3453 24.5831 59.564 22.8472 57.7208 21.4317C59.8218 20.2369 61.7964 19.6289 63.5297 19.6289ZM44.9708 20.397C45.8605 19.8833 46.8822 19.6289 48.0053 19.6289C49.7386 19.6289 51.7134 20.237 53.8142 21.4317C51.971 22.8472 50.1896 24.5831 48.534 26.5688C45.9862 27.0098 43.5917 27.6847 41.4439 28.5735C41.4698 24.5899 42.7076 21.7036 44.9708 20.397ZM34.1739 39.0976C34.1739 36.4843 36.0547 33.9691 39.4915 31.9551C39.7958 34.2595 40.4085 36.6706 41.3004 39.0976C40.4085 41.5246 39.7958 43.9356 39.4915 46.2401C36.0547 44.226 34.1739 41.7108 34.1739 39.0976ZM44.9708 57.7982C42.7076 56.4916 41.4698 53.6053 41.444 49.6217C43.5918 50.5105 45.9862 51.1854 48.5341 51.6265C50.19 53.6125 51.9716 55.3485 53.8153 56.7643C50.3524 58.7336 47.2337 59.1048 44.9708 57.7982ZM66.5643 57.7982C64.3012 59.1048 61.1826 58.7338 57.7199 56.7643C59.5635 55.3486 61.3452 53.6125 63.0011 51.6265C65.5489 51.1854 67.9434 50.5105 70.0912 49.6217C70.0653 53.6052 68.8275 56.4916 66.5643 57.7982ZM72.0435 46.2401C71.7392 43.9356 71.1265 41.5246 70.2346 39.0976C71.1265 36.6705 71.7392 34.2595 72.0435 31.9549C75.4803 33.9691 77.3611 36.4842 77.3611 39.0974C77.3611 41.7107 75.4804 44.226 72.0435 46.2401Z" fill="#59595A"/>
<path d="M78.4481 42.6496C80.4098 42.6496 82 41.0593 82 39.0976C82 37.1359 80.4098 35.5457 78.4481 35.5457C76.4864 35.5457 74.8961 37.1359 74.8961 39.0976C74.8961 41.0593 76.4864 42.6496 78.4481 42.6496Z" fill="#ABCB57"/>
<path d="M44.54 62.0963C46.5017 62.0963 48.092 60.5061 48.092 58.5444C48.092 56.5827 46.5017 54.9924 44.54 54.9924C42.5783 54.9924 40.988 56.5827 40.988 58.5444C40.988 60.5061 42.5783 62.0963 44.54 62.0963Z" fill="#E5C400"/>
<path d="M44.4273 23.0076C46.389 23.0076 47.9792 21.4173 47.9792 19.4556C47.9792 17.494 46.389 15.9037 44.4273 15.9037C42.4656 15.9037 40.8753 17.494 40.8753 19.4556C40.8753 21.4173 42.4656 23.0076 44.4273 23.0076Z" fill="#C8523B"/>
<path d="M55.6956 42.6607C57.6573 42.6607 59.2476 41.0704 59.2476 39.1087C59.2476 37.147 57.6573 35.5568 55.6956 35.5568C53.7339 35.5568 52.1437 37.147 52.1437 39.1087C52.1437 41.0704 53.7339 42.6607 55.6956 42.6607Z" fill="#808083"/>
</svg>
