<svg width="160" height="95" viewBox="0 0 160 95" fill="none" xmlns="http://www.w3.org/2000/svg">
<path d="M33.1037 72V62.13H34.9097V66.246H39.9637V62.13H41.7697V72H39.9637V67.744H34.9097V72H33.1037ZM47.3895 72.14C46.5962 72.14 45.8635 72.042 45.1915 71.846C44.5288 71.6407 43.9595 71.3607 43.4835 71.006L44.0435 69.592C44.3608 69.816 44.6922 70.0073 45.0375 70.166C45.3828 70.3153 45.7515 70.432 46.1435 70.516C46.5355 70.5907 46.9508 70.628 47.3895 70.628C48.1268 70.628 48.6588 70.5067 48.9855 70.264C49.3122 70.0213 49.4755 69.704 49.4755 69.312C49.4755 68.9667 49.3635 68.7053 49.1395 68.528C48.9155 68.3413 48.5142 68.1873 47.9355 68.066L46.3535 67.744C45.4482 67.5573 44.7715 67.2447 44.3235 66.806C43.8755 66.3673 43.6515 65.7793 43.6515 65.042C43.6515 64.426 43.8148 63.8893 44.1415 63.432C44.4682 62.9747 44.9255 62.62 45.5135 62.368C46.1015 62.116 46.7875 61.99 47.5715 61.99C48.2715 61.99 48.9202 62.0927 49.5175 62.298C50.1148 62.494 50.6142 62.7787 51.0155 63.152L50.4555 64.496C50.0542 64.16 49.6155 63.9127 49.1395 63.754C48.6635 63.586 48.1315 63.502 47.5435 63.502C46.8808 63.502 46.3628 63.6327 45.9895 63.894C45.6255 64.146 45.4435 64.496 45.4435 64.944C45.4435 65.2893 45.5555 65.5647 45.7795 65.77C46.0128 65.9753 46.4048 66.134 46.9555 66.246L48.5235 66.554C49.4568 66.7407 50.1475 67.0487 50.5955 67.478C51.0435 67.898 51.2675 68.4673 51.2675 69.186C51.2675 69.774 51.1088 70.292 50.7915 70.74C50.4742 71.1787 50.0262 71.524 49.4475 71.776C48.8688 72.0187 48.1828 72.14 47.3895 72.14ZM57.561 72.14C56.5343 72.14 55.6523 71.9347 54.915 71.524C54.187 71.104 53.627 70.516 53.235 69.76C52.843 68.9947 52.647 68.094 52.647 67.058C52.647 66.022 52.843 65.126 53.235 64.37C53.627 63.614 54.187 63.0307 54.915 62.62C55.6523 62.2 56.5343 61.99 57.561 61.99C58.2516 61.99 58.8723 62.088 59.423 62.284C59.983 62.48 60.4636 62.7693 60.865 63.152L60.277 64.58C59.8383 64.2253 59.4136 63.9733 59.003 63.824C58.6016 63.6653 58.1396 63.586 57.617 63.586C56.6183 63.586 55.853 63.8893 55.321 64.496C54.7983 65.0933 54.537 65.9473 54.537 67.058C54.537 68.1687 54.7983 69.0273 55.321 69.634C55.853 70.2407 56.6183 70.544 57.617 70.544C58.1396 70.544 58.6016 70.4693 59.003 70.32C59.4136 70.1613 59.8383 69.9 60.277 69.536L60.865 70.964C60.4636 71.3373 59.983 71.6267 59.423 71.832C58.8723 72.0373 58.2516 72.14 57.561 72.14ZM66.3947 72V70.67L69.6707 67.254C70.0814 66.8247 70.3847 66.428 70.5807 66.064C70.7767 65.7 70.8747 65.3267 70.8747 64.944C70.8747 64.468 70.7254 64.1087 70.4267 63.866C70.1281 63.6233 69.6941 63.502 69.1247 63.502C68.6674 63.502 68.2287 63.586 67.8087 63.754C67.3887 63.9127 66.9781 64.1647 66.5767 64.51L65.9887 63.166C66.3901 62.8113 66.8847 62.5267 67.4727 62.312C68.0701 62.0973 68.6954 61.99 69.3487 61.99C70.4127 61.99 71.2294 62.228 71.7987 62.704C72.3681 63.18 72.6527 63.8613 72.6527 64.748C72.6527 65.364 72.5081 65.952 72.2187 66.512C71.9294 67.0627 71.4814 67.6413 70.8747 68.248L68.1447 70.978V70.502H73.0447V72H66.3947ZM74.6493 72V66.694C74.6493 66.4047 74.6399 66.1107 74.6213 65.812C74.6026 65.5133 74.5746 65.2193 74.5373 64.93H76.2313L76.3713 66.33H76.2033C76.4273 65.8353 76.7586 65.4573 77.1973 65.196C77.6359 64.9253 78.1446 64.79 78.7233 64.79C79.5539 64.79 80.1793 65.0233 80.5993 65.49C81.0193 65.9567 81.2293 66.6847 81.2293 67.674V72H79.4793V67.758C79.4793 67.1887 79.3673 66.7827 79.1433 66.54C78.9286 66.288 78.6019 66.162 78.1633 66.162C77.6219 66.162 77.1926 66.33 76.8753 66.666C76.5579 67.002 76.3993 67.45 76.3993 68.01V72H74.6493ZM85.8288 72.14C85.2128 72.14 84.6668 71.9953 84.1908 71.706C83.7241 71.4073 83.3601 70.9827 83.0988 70.432C82.8375 69.8813 82.7068 69.2233 82.7068 68.458C82.7068 67.6927 82.8375 67.0393 83.0988 66.498C83.3601 65.9473 83.7241 65.5273 84.1908 65.238C84.6668 64.9393 85.2128 64.79 85.8288 64.79C86.4168 64.79 86.9348 64.9347 87.3828 65.224C87.8401 65.504 88.1435 65.8867 88.2928 66.372H88.1108V61.696H89.8608V72H88.1388V70.502H88.3068C88.1575 71.006 87.8541 71.4073 87.3968 71.706C86.9488 71.9953 86.4261 72.14 85.8288 72.14ZM86.3188 70.796C86.8695 70.796 87.3128 70.6047 87.6488 70.222C87.9848 69.83 88.1528 69.242 88.1528 68.458C88.1528 67.674 87.9848 67.0907 87.6488 66.708C87.3128 66.3253 86.8695 66.134 86.3188 66.134C85.7681 66.134 85.3201 66.3253 84.9748 66.708C84.6388 67.0907 84.4708 67.674 84.4708 68.458C84.4708 69.242 84.6388 69.83 84.9748 70.222C85.3201 70.6047 85.7681 70.796 86.3188 70.796ZM98.1562 72V67.338L98.5343 68.416L94.2922 62.13H96.3783L99.2903 66.61H98.8983L101.81 62.13H103.826L99.5983 68.416L99.9623 67.338V72H98.1562ZM106.667 72.14C105.481 72.14 104.553 71.8133 103.881 71.16C103.209 70.5067 102.873 69.6107 102.873 68.472C102.873 67.7347 103.017 67.0907 103.307 66.54C103.596 65.9893 103.997 65.56 104.511 65.252C105.033 64.944 105.64 64.79 106.331 64.79C107.012 64.79 107.581 64.9347 108.039 65.224C108.496 65.5133 108.841 65.9193 109.075 66.442C109.317 66.9647 109.439 67.576 109.439 68.276V68.738H104.287V67.814H108.193L107.955 68.01C107.955 67.3567 107.815 66.8573 107.535 66.512C107.264 66.1667 106.867 65.994 106.345 65.994C105.766 65.994 105.318 66.1993 105.001 66.61C104.693 67.0207 104.539 67.5947 104.539 68.332V68.514C104.539 69.2793 104.725 69.8533 105.099 70.236C105.481 70.6093 106.018 70.796 106.709 70.796C107.11 70.796 107.483 70.7447 107.829 70.642C108.183 70.53 108.519 70.3527 108.837 70.11L109.355 71.286C109.019 71.5567 108.617 71.7667 108.151 71.916C107.684 72.0653 107.189 72.14 106.667 72.14ZM113.651 72.14C113.035 72.14 112.493 71.9953 112.027 71.706C111.56 71.4073 111.196 70.9827 110.935 70.432C110.673 69.8813 110.543 69.2233 110.543 68.458C110.543 67.6927 110.673 67.0393 110.935 66.498C111.196 65.9473 111.56 65.5273 112.027 65.238C112.493 64.9393 113.035 64.79 113.651 64.79C114.248 64.79 114.771 64.9393 115.219 65.238C115.676 65.5273 115.979 65.9193 116.129 66.414H115.975L116.129 64.93H117.809C117.781 65.2193 117.753 65.5133 117.725 65.812C117.706 66.1107 117.697 66.4047 117.697 66.694V72H115.961L115.947 70.544H116.115C115.965 71.0293 115.662 71.4167 115.205 71.706C114.747 71.9953 114.229 72.14 113.651 72.14ZM114.141 70.796C114.691 70.796 115.135 70.6047 115.471 70.222C115.807 69.83 115.975 69.242 115.975 68.458C115.975 67.674 115.807 67.0907 115.471 66.708C115.135 66.3253 114.691 66.134 114.141 66.134C113.59 66.134 113.147 66.3253 112.811 66.708C112.475 67.0907 112.307 67.674 112.307 68.458C112.307 69.242 112.47 69.83 112.797 70.222C113.133 70.6047 113.581 70.796 114.141 70.796ZM119.588 72V66.736C119.588 66.4373 119.579 66.134 119.56 65.826C119.551 65.518 119.528 65.2193 119.49 64.93H121.184L121.38 66.862H121.1C121.194 66.3953 121.348 66.008 121.562 65.7C121.786 65.392 122.057 65.1633 122.374 65.014C122.692 64.8647 123.037 64.79 123.41 64.79C123.578 64.79 123.714 64.7993 123.816 64.818C123.919 64.8273 124.022 64.8507 124.124 64.888L124.11 66.428C123.933 66.3533 123.779 66.3067 123.648 66.288C123.527 66.2693 123.373 66.26 123.186 66.26C122.785 66.26 122.444 66.344 122.164 66.512C121.894 66.68 121.688 66.9133 121.548 67.212C121.418 67.5107 121.352 67.8513 121.352 68.234V72H119.588ZM53.1292 93.52C52.6905 92.8293 52.3312 92.1527 52.0512 91.49C51.7805 90.8273 51.5845 90.1553 51.4632 89.474C51.3419 88.7833 51.2812 88.0647 51.2812 87.318C51.2812 86.562 51.3419 85.8433 51.4632 85.162C51.5845 84.4807 51.7805 83.8087 52.0512 83.146C52.3312 82.4833 52.6905 81.8113 53.1292 81.13H54.5292C54.0439 82.2033 53.6799 83.2487 53.4372 84.266C53.2039 85.274 53.0872 86.2913 53.0872 87.318C53.0872 88.3353 53.2039 89.3527 53.4372 90.37C53.6799 91.3873 54.0439 92.4373 54.5292 93.52H53.1292ZM59.3934 91.14C58.6001 91.14 57.8674 91.042 57.1954 90.846C56.5328 90.6407 55.9634 90.3607 55.4874 90.006L56.0474 88.592C56.3648 88.816 56.6961 89.0073 57.0414 89.166C57.3868 89.3153 57.7554 89.432 58.1474 89.516C58.5394 89.5907 58.9548 89.628 59.3934 89.628C60.1308 89.628 60.6628 89.5067 60.9894 89.264C61.3161 89.0213 61.4794 88.704 61.4794 88.312C61.4794 87.9667 61.3674 87.7053 61.1434 87.528C60.9194 87.3413 60.5181 87.1873 59.9394 87.066L58.3574 86.744C57.4521 86.5573 56.7754 86.2447 56.3274 85.806C55.8794 85.3673 55.6554 84.7793 55.6554 84.042C55.6554 83.426 55.8188 82.8893 56.1454 82.432C56.4721 81.9747 56.9294 81.62 57.5174 81.368C58.1054 81.116 58.7914 80.99 59.5754 80.99C60.2754 80.99 60.9241 81.0927 61.5214 81.298C62.1188 81.494 62.6181 81.7787 63.0194 82.152L62.4594 83.496C62.0581 83.16 61.6194 82.9127 61.1434 82.754C60.6674 82.586 60.1354 82.502 59.5474 82.502C58.8848 82.502 58.3668 82.6327 57.9934 82.894C57.6294 83.146 57.4474 83.496 57.4474 83.944C57.4474 84.2893 57.5594 84.5647 57.7834 84.77C58.0168 84.9753 58.4088 85.134 58.9594 85.246L60.5274 85.554C61.4608 85.7407 62.1514 86.0487 62.5994 86.478C63.0474 86.898 63.2714 87.4673 63.2714 88.186C63.2714 88.774 63.1128 89.292 62.7954 89.74C62.4781 90.1787 62.0301 90.524 61.4514 90.776C60.8728 91.0187 60.1868 91.14 59.3934 91.14ZM68.0809 91.14C67.3529 91.14 66.7135 90.9907 66.1629 90.692C65.6215 90.3933 65.2015 89.9687 64.9029 89.418C64.6042 88.858 64.4549 88.1953 64.4549 87.43C64.4549 86.6647 64.6042 86.0113 64.9029 85.47C65.2109 84.9287 65.6355 84.5133 66.1769 84.224C66.7182 83.9347 67.3529 83.79 68.0809 83.79C68.5475 83.79 69.0002 83.8647 69.4389 84.014C69.8869 84.154 70.2509 84.3593 70.5309 84.63L69.9989 85.848C69.7469 85.6147 69.4622 85.442 69.1449 85.33C68.8369 85.2087 68.5335 85.148 68.2349 85.148C67.6095 85.148 67.1195 85.344 66.7649 85.736C66.4195 86.128 66.2469 86.6973 66.2469 87.444C66.2469 88.1907 66.4195 88.7647 66.7649 89.166C67.1195 89.5673 67.6095 89.768 68.2349 89.768C68.5242 89.768 68.8229 89.712 69.1309 89.6C69.4482 89.488 69.7375 89.3153 69.9989 89.082L70.5309 90.286C70.2415 90.5567 69.8729 90.7667 69.4249 90.916C68.9862 91.0653 68.5382 91.14 68.0809 91.14ZM71.8875 91V83.93H73.6375V91H71.8875ZM71.7895 82.6V80.892H73.7355V82.6H71.7895ZM78.9539 91.14C77.7686 91.14 76.8399 90.8133 76.1679 90.16C75.4959 89.5067 75.1599 88.6107 75.1599 87.472C75.1599 86.7347 75.3046 86.0907 75.5939 85.54C75.8833 84.9893 76.2846 84.56 76.7979 84.252C77.3206 83.944 77.9273 83.79 78.6179 83.79C79.2993 83.79 79.8686 83.9347 80.3259 84.224C80.7833 84.5133 81.1286 84.9193 81.3619 85.442C81.6046 85.9647 81.7259 86.576 81.7259 87.276V87.738H76.5739V86.814H80.4799L80.2419 87.01C80.2419 86.3567 80.1019 85.8573 79.8219 85.512C79.5513 85.1667 79.1546 84.994 78.6319 84.994C78.0533 84.994 77.6053 85.1993 77.2879 85.61C76.9799 86.0207 76.8259 86.5947 76.8259 87.332V87.514C76.8259 88.2793 77.0126 88.8533 77.3859 89.236C77.7686 89.6093 78.3053 89.796 78.9959 89.796C79.3973 89.796 79.7706 89.7447 80.1159 89.642C80.4706 89.53 80.8066 89.3527 81.1239 89.11L81.6419 90.286C81.3059 90.5567 80.9046 90.7667 80.4379 90.916C79.9713 91.0653 79.4766 91.14 78.9539 91.14ZM83.2079 91V85.694C83.2079 85.4047 83.1985 85.1107 83.1799 84.812C83.1612 84.5133 83.1332 84.2193 83.0959 83.93H84.7899L84.9299 85.33H84.7619C84.9859 84.8353 85.3172 84.4573 85.7559 84.196C86.1945 83.9253 86.7032 83.79 87.2819 83.79C88.1125 83.79 88.7379 84.0233 89.1579 84.49C89.5779 84.9567 89.7879 85.6847 89.7879 86.674V91H88.0379V86.758C88.0379 86.1887 87.9259 85.7827 87.7019 85.54C87.4872 85.288 87.1605 85.162 86.7219 85.162C86.1805 85.162 85.7512 85.33 85.4339 85.666C85.1165 86.002 84.9579 86.45 84.9579 87.01V91H83.2079ZM94.8914 91.14C94.1634 91.14 93.5241 90.9907 92.9734 90.692C92.4321 90.3933 92.0121 89.9687 91.7134 89.418C91.4147 88.858 91.2654 88.1953 91.2654 87.43C91.2654 86.6647 91.4147 86.0113 91.7134 85.47C92.0214 84.9287 92.4461 84.5133 92.9874 84.224C93.5287 83.9347 94.1634 83.79 94.8914 83.79C95.3581 83.79 95.8107 83.8647 96.2494 84.014C96.6974 84.154 97.0614 84.3593 97.3414 84.63L96.8094 85.848C96.5574 85.6147 96.2727 85.442 95.9554 85.33C95.6474 85.2087 95.3441 85.148 95.0454 85.148C94.4201 85.148 93.9301 85.344 93.5754 85.736C93.2301 86.128 93.0574 86.6973 93.0574 87.444C93.0574 88.1907 93.2301 88.7647 93.5754 89.166C93.9301 89.5673 94.4201 89.768 95.0454 89.768C95.3347 89.768 95.6334 89.712 95.9414 89.6C96.2587 89.488 96.5481 89.3153 96.8094 89.082L97.3414 90.286C97.0521 90.5567 96.6834 90.7667 96.2354 90.916C95.7967 91.0653 95.3487 91.14 94.8914 91.14ZM101.977 91.14C100.792 91.14 99.8634 90.8133 99.1914 90.16C98.5194 89.5067 98.1834 88.6107 98.1834 87.472C98.1834 86.7347 98.328 86.0907 98.6174 85.54C98.9067 84.9893 99.308 84.56 99.8214 84.252C100.344 83.944 100.951 83.79 101.641 83.79C102.323 83.79 102.892 83.9347 103.349 84.224C103.807 84.5133 104.152 84.9193 104.385 85.442C104.628 85.9647 104.749 86.576 104.749 87.276V87.738H99.5974V86.814H103.503L103.265 87.01C103.265 86.3567 103.125 85.8573 102.845 85.512C102.575 85.1667 102.178 84.994 101.655 84.994C101.077 84.994 100.629 85.1993 100.311 85.61C100.003 86.0207 99.8494 86.5947 99.8494 87.332V87.514C99.8494 88.2793 100.036 88.8533 100.409 89.236C100.792 89.6093 101.329 89.796 102.019 89.796C102.421 89.796 102.794 89.7447 103.139 89.642C103.494 89.53 103.83 89.3527 104.147 89.11L104.665 90.286C104.329 90.5567 103.928 90.7667 103.461 90.916C102.995 91.0653 102.5 91.14 101.977 91.14ZM106.865 93.52H105.465C105.95 92.4467 106.309 91.4013 106.543 90.384C106.785 89.3573 106.907 88.3353 106.907 87.318C106.907 86.3007 106.785 85.2833 106.543 84.266C106.309 83.2487 105.95 82.2033 105.465 81.13H106.865C107.313 81.8113 107.672 82.4833 107.943 83.146C108.213 83.8087 108.409 84.4853 108.531 85.176C108.652 85.8573 108.713 86.5713 108.713 87.318C108.713 88.0647 108.652 88.7833 108.531 89.474C108.409 90.1647 108.213 90.8413 107.943 91.504C107.672 92.1667 107.313 92.8387 106.865 93.52Z" fill="#202244" fill-opacity="0.8"/>
<g clip-path="url(#clip0_3_395)">
<path d="M86.2258 27.4238C88.0048 27.4238 89.4516 25.977 89.4516 24.198C89.4516 22.4189 88.0048 20.9722 86.2258 20.9722C84.4468 20.9722 83 22.4189 83 24.198C83 25.977 84.4468 27.4238 86.2258 27.4238ZM86.2258 22.5851C87.1153 22.5851 87.8387 23.3085 87.8387 24.198C87.8387 25.0875 87.1153 25.8109 86.2258 25.8109C85.3363 25.8109 84.6129 25.0875 84.6129 24.198C84.6129 23.3085 85.3363 22.5851 86.2258 22.5851Z" fill="#1B6930"/>
<path d="M95.7315 20.4367C95.6282 20.2479 95.5274 20.0576 95.4161 19.8737C97.871 12.9729 98.5056 7.00439 95.5694 5.27698C93.7435 4.20439 91.0895 5.11165 87.8387 7.89633V1.6173H89.4516V0.00439453H76.5484V1.6173H78.1613V7.89875C74.9089 5.11085 72.2532 4.20278 70.4282 5.27698C68.5565 6.37698 68.0258 9.34714 68.8935 13.8657L70.4782 13.5617C69.7823 9.93665 70.0685 7.35923 71.246 6.6673C72.5347 5.90843 75.1097 7.18262 78.1613 10.0729V13.7342C75.575 14.6447 73.3782 16.227 71.7323 18.2479C71.3798 17.1746 71.0685 16.1286 70.8234 15.1334L69.2581 15.5197C69.5968 16.8971 70.05 18.3608 70.5847 19.8729C70.4734 20.0568 70.3726 20.2471 70.2694 20.4358C62.4694 21.8641 58 24.4004 58 27.4237C58 30.781 63.2935 33.1455 70.2839 34.4125C70.3806 34.5875 70.4911 34.752 70.5944 34.9221C67.8435 42.6721 67.775 48.0012 70.4282 49.5608C70.921 49.8504 71.4798 49.9955 72.0984 49.9955C72.4919 49.9955 72.9113 49.9367 73.3524 49.8181C75.9944 49.11 79.4355 46.2117 82.9524 41.9367C82.9685 41.9375 82.9839 41.9399 83 41.9399C83.0153 41.9399 83.0298 41.9375 83.0452 41.9375C86.5629 46.2125 90.0032 49.1108 92.6452 49.8181C93.0863 49.9358 93.5048 49.9955 93.8992 49.9955C94.5185 49.9955 95.0766 49.8504 95.5694 49.5608C98.221 48.0004 98.154 42.6721 95.404 34.9254C95.5089 34.7536 95.6202 34.5867 95.7177 34.41C97.304 34.1189 98.8032 33.7786 100.164 33.3786L99.7089 31.8318C98.7234 32.1213 97.6573 32.3778 96.5435 32.6084C97.1621 30.9955 97.5161 29.252 97.5161 27.4237C97.5161 25.6052 97.1766 23.8576 96.5629 22.2391C103.332 23.6375 106.387 25.8052 106.387 27.4237C106.387 28.7391 104.524 30.1608 101.277 31.3229L101.82 32.8415C105.864 31.3939 108 29.5213 108 27.4237C108 24.4004 103.531 21.8641 95.7315 20.4367ZM87.8387 10.0713C90.8879 7.18423 93.4629 5.90681 94.7516 6.6681C96.4258 7.65198 96.3113 12.0737 94.275 18.2576C92.6282 16.2334 90.429 14.6471 87.8387 13.735V10.0713ZM79.2048 15.0899L79.7742 14.9149V1.6173H86.2258V14.9149L86.7952 15.0899C88.1669 15.5117 89.425 16.1423 90.5403 16.9399H75.4597C76.575 16.1423 77.8331 15.5117 79.2048 15.0899ZM81.2387 18.5528C80.9048 19.4891 80.0177 20.1657 78.9677 20.1657C77.9177 20.1657 77.0306 19.4891 76.6968 18.5528H81.2387ZM73.621 18.5528H75.0177C75.3927 20.3907 77.021 21.7786 78.9685 21.7786C80.9161 21.7786 82.5444 20.3907 82.9194 18.5528H92.379C92.8363 19.035 93.254 19.5512 93.6306 20.0979C92.4379 23.3189 90.7726 26.9318 88.6153 30.735C88.0234 31.7786 87.4145 32.7915 86.7976 33.7778C85.5516 33.8375 84.2863 33.8754 83 33.8754C81.696 33.8754 80.429 33.8447 79.204 33.7867C78.7629 33.0818 78.3282 32.3592 77.8992 31.6246C79.0226 30.9084 79.7742 29.6584 79.7742 28.2302C79.7742 26.0068 77.9653 24.1979 75.7419 24.1979C75.1952 24.1979 74.6742 24.3092 74.1976 24.5076C73.5113 23.0012 72.9056 21.5237 72.375 20.0883C72.75 19.5455 73.1661 19.0326 73.621 18.5528ZM74.8911 25.9729C75.1573 25.8729 75.4419 25.8108 75.7419 25.8108C77.0758 25.8108 78.1613 26.8963 78.1613 28.2302C78.1613 29.06 77.7411 29.7923 77.1024 30.2286C76.3097 28.806 75.571 27.3834 74.8911 25.9729ZM75.4798 30.6229C74.2702 30.4899 73.3226 29.4746 73.3226 28.2302C73.3226 27.81 73.4403 27.4197 73.6298 27.0746C74.2065 28.2528 74.8274 29.4383 75.4798 30.6229ZM59.6129 27.4237C59.6129 25.8052 62.6677 23.6375 69.4371 22.2391C68.8234 23.8576 68.4839 25.6052 68.4839 27.4237C68.4839 29.2568 68.8395 31.0052 69.4621 32.6213C63.3331 31.356 59.6129 29.3229 59.6129 27.4237ZM70.0968 27.4237C70.0968 25.4536 70.5427 23.5778 71.3387 21.8899C71.7976 23.052 72.2968 24.2334 72.8492 25.4326C72.1468 26.1584 71.7097 27.1431 71.7097 28.2302C71.7097 30.4536 73.5185 32.2625 75.7419 32.2625C75.9565 32.2625 76.1621 32.2318 76.3677 32.1996C76.6548 32.6947 76.9427 33.185 77.2355 33.6673C75.1298 33.5125 73.1653 33.277 71.371 32.977C70.5629 31.2923 70.0968 29.4133 70.0968 27.4237ZM72.9355 48.2608C72.2355 48.4471 71.6669 48.4173 71.246 48.1705C69.8089 47.3262 69.4637 43.4262 71.7347 36.5608C73.996 39.3439 77.2669 41.2633 80.9823 41.7834C77.9669 45.3012 75.0911 47.6834 72.9355 48.2608ZM72.3935 34.7536C74.2871 35.027 76.2694 35.2254 78.2806 35.3455C79.4073 37.1052 80.5605 38.7504 81.7153 40.2617C77.8556 39.8786 74.4952 37.785 72.3935 34.7536ZM82.9984 39.2842C82.0831 38.085 81.1685 36.802 80.2669 35.4391C81.1782 35.4705 82.0911 35.4883 83 35.4883C83.9194 35.4883 84.8282 35.4689 85.7298 35.4391C84.8282 36.8012 83.9137 38.085 82.9984 39.2842ZM87.7121 35.3512C89.7613 35.231 91.7323 35.0262 93.6048 34.7552C91.5032 37.7858 88.1419 39.8794 84.2815 40.2617C85.4355 38.752 86.5863 37.1084 87.7121 35.3512ZM94.7516 48.1705C94.3315 48.4181 93.7621 48.4471 93.0621 48.2608C90.9065 47.6834 88.0306 45.3012 85.0153 41.7834C88.7306 41.2633 92.0016 39.3455 94.2629 36.5633C96.5323 43.427 96.1879 47.3254 94.7516 48.1705ZM94.6355 32.9649C92.7919 33.2737 90.8226 33.5052 88.7677 33.6576C89.1903 32.9617 89.6089 32.2552 90.0194 31.531C91.7984 28.3947 93.3968 25.0786 94.6597 21.8867C95.4573 23.5754 95.9032 25.4528 95.9032 27.4237C95.9032 29.4084 95.4395 31.2834 94.6355 32.9649Z" fill="#1B6930"/>
</g>
<defs>
<clipPath id="clip0_3_395">
<rect width="50" height="50" fill="white" transform="translate(58)"/>
</clipPath>
</defs>
</svg>
