<svg width="179" height="101" viewBox="0 0 179 101" fill="none" xmlns="http://www.w3.org/2000/svg">
<path d="M46.1773 77V67.13H47.9833V71.246H53.0373V67.13H54.8433V77H53.0373V72.744H47.9833V77H46.1773ZM60.4631 77.14C59.6698 77.14 58.9371 77.042 58.2651 76.846C57.6024 76.6407 57.0331 76.3607 56.5571 76.006L57.1171 74.592C57.4344 74.816 57.7658 75.0073 58.1111 75.166C58.4564 75.3153 58.8251 75.432 59.2171 75.516C59.6091 75.5907 60.0244 75.628 60.4631 75.628C61.2004 75.628 61.7324 75.5067 62.0591 75.264C62.3858 75.0213 62.5491 74.704 62.5491 74.312C62.5491 73.9667 62.4371 73.7053 62.2131 73.528C61.9891 73.3413 61.5878 73.1873 61.0091 73.066L59.4271 72.744C58.5218 72.5573 57.8451 72.2447 57.3971 71.806C56.9491 71.3673 56.7251 70.7793 56.7251 70.042C56.7251 69.426 56.8884 68.8893 57.2151 68.432C57.5418 67.9747 57.9991 67.62 58.5871 67.368C59.1751 67.116 59.8611 66.99 60.6451 66.99C61.3451 66.99 61.9938 67.0927 62.5911 67.298C63.1884 67.494 63.6878 67.7787 64.0891 68.152L63.5291 69.496C63.1278 69.16 62.6891 68.9127 62.2131 68.754C61.7371 68.586 61.2051 68.502 60.6171 68.502C59.9544 68.502 59.4364 68.6327 59.0631 68.894C58.6991 69.146 58.5171 69.496 58.5171 69.944C58.5171 70.2893 58.6291 70.5647 58.8531 70.77C59.0864 70.9753 59.4784 71.134 60.0291 71.246L61.5971 71.554C62.5304 71.7407 63.2211 72.0487 63.6691 72.478C64.1171 72.898 64.3411 73.4673 64.3411 74.186C64.3411 74.774 64.1824 75.292 63.8651 75.74C63.5478 76.1787 63.0998 76.524 62.5211 76.776C61.9424 77.0187 61.2564 77.14 60.4631 77.14ZM70.6345 77.14C69.6079 77.14 68.7259 76.9347 67.9885 76.524C67.2605 76.104 66.7005 75.516 66.3085 74.76C65.9165 73.9947 65.7205 73.094 65.7205 72.058C65.7205 71.022 65.9165 70.126 66.3085 69.37C66.7005 68.614 67.2605 68.0307 67.9885 67.62C68.7259 67.2 69.6079 66.99 70.6345 66.99C71.3252 66.99 71.9459 67.088 72.4965 67.284C73.0565 67.48 73.5372 67.7693 73.9385 68.152L73.3505 69.58C72.9119 69.2253 72.4872 68.9733 72.0765 68.824C71.6752 68.6653 71.2132 68.586 70.6905 68.586C69.6919 68.586 68.9265 68.8893 68.3945 69.496C67.8719 70.0933 67.6105 70.9473 67.6105 72.058C67.6105 73.1687 67.8719 74.0273 68.3945 74.634C68.9265 75.2407 69.6919 75.544 70.6905 75.544C71.2132 75.544 71.6752 75.4693 72.0765 75.32C72.4872 75.1613 72.9119 74.9 73.3505 74.536L73.9385 75.964C73.5372 76.3373 73.0565 76.6267 72.4965 76.832C71.9459 77.0373 71.3252 77.14 70.6345 77.14ZM79.9303 77V75.502H82.1983V68.642H83.0663L80.1543 70.378V68.67L82.7163 67.13H84.0043V75.502H86.1323V77H79.9303ZM90.2429 77.14C89.6362 77.14 89.0762 77.07 88.5629 76.93C88.0589 76.7807 87.6342 76.5753 87.2889 76.314L87.7789 75.138C88.1335 75.3807 88.5255 75.5673 88.9549 75.698C89.3842 75.8287 89.8182 75.894 90.2569 75.894C90.7235 75.894 91.0689 75.8147 91.2929 75.656C91.5262 75.4973 91.6429 75.2827 91.6429 75.012C91.6429 74.7973 91.5682 74.6293 91.4189 74.508C91.2789 74.3773 91.0502 74.2793 90.7329 74.214L89.3329 73.948C88.7355 73.8173 88.2782 73.5933 87.9609 73.276C87.6529 72.9587 87.4989 72.5433 87.4989 72.03C87.4989 71.5913 87.6155 71.204 87.8489 70.868C88.0915 70.532 88.4322 70.2707 88.8709 70.084C89.3189 69.888 89.8415 69.79 90.4389 69.79C90.9615 69.79 91.4515 69.86 91.9089 70C92.3755 70.14 92.7675 70.35 93.0849 70.63L92.5809 71.764C92.2915 71.5307 91.9602 71.3487 91.5869 71.218C91.2135 71.0873 90.8495 71.022 90.4949 71.022C90.0095 71.022 89.6549 71.1107 89.4309 71.288C89.2069 71.456 89.0949 71.6753 89.0949 71.946C89.0949 72.1513 89.1602 72.324 89.2909 72.464C89.4309 72.5947 89.6455 72.6927 89.9349 72.758L91.3349 73.024C91.9602 73.1453 92.4315 73.36 92.7489 73.668C93.0755 73.9667 93.2389 74.3773 93.2389 74.9C93.2389 75.3667 93.1129 75.768 92.8609 76.104C92.6089 76.44 92.2589 76.6967 91.8109 76.874C91.3629 77.0513 90.8402 77.14 90.2429 77.14ZM97.6922 77.14C96.8522 77.14 96.2175 76.9207 95.7882 76.482C95.3588 76.0433 95.1442 75.3853 95.1442 74.508V71.246H93.7862V69.93H95.1442V68.124L96.8942 67.676V69.93H98.7842V71.246H96.8942V74.396C96.8942 74.8813 96.9875 75.222 97.1742 75.418C97.3608 75.614 97.6175 75.712 97.9442 75.712C98.1215 75.712 98.2708 75.698 98.3922 75.67C98.5228 75.642 98.6488 75.6047 98.7702 75.558V76.944C98.6115 77.0093 98.4342 77.056 98.2382 77.084C98.0515 77.1213 97.8695 77.14 97.6922 77.14ZM106.363 77V72.338L106.741 73.416L102.499 67.13H104.585L107.497 71.61H107.105L110.017 67.13H112.033L107.805 73.416L108.169 72.338V77H106.363ZM114.873 77.14C113.688 77.14 112.759 76.8133 112.087 76.16C111.415 75.5067 111.079 74.6107 111.079 73.472C111.079 72.7347 111.224 72.0907 111.513 71.54C111.803 70.9893 112.204 70.56 112.717 70.252C113.24 69.944 113.847 69.79 114.537 69.79C115.219 69.79 115.788 69.9347 116.245 70.224C116.703 70.5133 117.048 70.9193 117.281 71.442C117.524 71.9647 117.645 72.576 117.645 73.276V73.738H112.493V72.814H116.399L116.161 73.01C116.161 72.3567 116.021 71.8573 115.741 71.512C115.471 71.1667 115.074 70.994 114.551 70.994C113.973 70.994 113.525 71.1993 113.207 71.61C112.899 72.0207 112.745 72.5947 112.745 73.332V73.514C112.745 74.2793 112.932 74.8533 113.305 75.236C113.688 75.6093 114.225 75.796 114.915 75.796C115.317 75.796 115.69 75.7447 116.035 75.642C116.39 75.53 116.726 75.3527 117.043 75.11L117.561 76.286C117.225 76.5567 116.824 76.7667 116.357 76.916C115.891 77.0653 115.396 77.14 114.873 77.14ZM121.857 77.14C121.241 77.14 120.7 76.9953 120.233 76.706C119.766 76.4073 119.402 75.9827 119.141 75.432C118.88 74.8813 118.749 74.2233 118.749 73.458C118.749 72.6927 118.88 72.0393 119.141 71.498C119.402 70.9473 119.766 70.5273 120.233 70.238C120.7 69.9393 121.241 69.79 121.857 69.79C122.454 69.79 122.977 69.9393 123.425 70.238C123.882 70.5273 124.186 70.9193 124.335 71.414H124.181L124.335 69.93H126.015C125.987 70.2193 125.959 70.5133 125.931 70.812C125.912 71.1107 125.903 71.4047 125.903 71.694V77H124.167L124.153 75.544H124.321C124.172 76.0293 123.868 76.4167 123.411 76.706C122.954 76.9953 122.436 77.14 121.857 77.14ZM122.347 75.796C122.898 75.796 123.341 75.6047 123.677 75.222C124.013 74.83 124.181 74.242 124.181 73.458C124.181 72.674 124.013 72.0907 123.677 71.708C123.341 71.3253 122.898 71.134 122.347 71.134C121.796 71.134 121.353 71.3253 121.017 71.708C120.681 72.0907 120.513 72.674 120.513 73.458C120.513 74.242 120.676 74.83 121.003 75.222C121.339 75.6047 121.787 75.796 122.347 75.796ZM127.795 77V71.736C127.795 71.4373 127.785 71.134 127.767 70.826C127.757 70.518 127.734 70.2193 127.697 69.93H129.391L129.587 71.862H129.307C129.4 71.3953 129.554 71.008 129.769 70.7C129.993 70.392 130.263 70.1633 130.581 70.014C130.898 69.8647 131.243 69.79 131.617 69.79C131.785 69.79 131.92 69.7993 132.023 69.818C132.125 69.8273 132.228 69.8507 132.331 69.888L132.317 71.428C132.139 71.3533 131.985 71.3067 131.855 71.288C131.733 71.2693 131.579 71.26 131.393 71.26C130.991 71.26 130.651 71.344 130.371 71.512C130.1 71.68 129.895 71.9133 129.755 72.212C129.624 72.5107 129.559 72.8513 129.559 73.234V77H127.795ZM53.9323 98.52C53.4936 97.8293 53.1343 97.1527 52.8543 96.49C52.5836 95.8273 52.3876 95.1553 52.2663 94.474C52.1449 93.7833 52.0843 93.0647 52.0843 92.318C52.0843 91.562 52.1449 90.8433 52.2663 90.162C52.3876 89.4807 52.5836 88.8087 52.8543 88.146C53.1343 87.4833 53.4936 86.8113 53.9323 86.13H55.3323C54.8469 87.2033 54.4829 88.2487 54.2403 89.266C54.0069 90.274 53.8903 91.2913 53.8903 92.318C53.8903 93.3353 54.0069 94.3527 54.2403 95.37C54.4829 96.3873 54.8469 97.4373 55.3323 98.52H53.9323ZM61.2351 96.14C60.2085 96.14 59.3265 95.9347 58.5891 95.524C57.8611 95.104 57.3011 94.516 56.9091 93.76C56.5171 92.9947 56.3211 92.094 56.3211 91.058C56.3211 90.022 56.5171 89.126 56.9091 88.37C57.3011 87.614 57.8611 87.0307 58.5891 86.62C59.3265 86.2 60.2085 85.99 61.2351 85.99C61.9258 85.99 62.5465 86.088 63.0971 86.284C63.6571 86.48 64.1378 86.7693 64.5391 87.152L63.9511 88.58C63.5125 88.2253 63.0878 87.9733 62.6771 87.824C62.2758 87.6653 61.8138 87.586 61.2911 87.586C60.2925 87.586 59.5271 87.8893 58.9951 88.496C58.4725 89.0933 58.2111 89.9473 58.2111 91.058C58.2111 92.1687 58.4725 93.0273 58.9951 93.634C59.5271 94.2407 60.2925 94.544 61.2911 94.544C61.8138 94.544 62.2758 94.4693 62.6771 94.32C63.0878 94.1613 63.5125 93.9 63.9511 93.536L64.5391 94.964C64.1378 95.3373 63.6571 95.6267 63.0971 95.832C62.5465 96.0373 61.9258 96.14 61.2351 96.14ZM68.7869 96.14C68.0589 96.14 67.4289 95.9907 66.8969 95.692C66.3649 95.3933 65.9496 94.9687 65.6509 94.418C65.3616 93.8673 65.2169 93.214 65.2169 92.458C65.2169 91.702 65.3616 91.0533 65.6509 90.512C65.9496 89.9613 66.3649 89.5367 66.8969 89.238C67.4289 88.9393 68.0589 88.79 68.7869 88.79C69.5149 88.79 70.1449 88.9393 70.6769 89.238C71.2183 89.5367 71.6336 89.9613 71.9229 90.512C72.2216 91.0533 72.3709 91.702 72.3709 92.458C72.3709 93.214 72.2216 93.8673 71.9229 94.418C71.6336 94.9687 71.2183 95.3933 70.6769 95.692C70.1449 95.9907 69.5149 96.14 68.7869 96.14ZM68.7869 94.796C69.3376 94.796 69.7763 94.6047 70.1029 94.222C70.4296 93.83 70.5929 93.242 70.5929 92.458C70.5929 91.674 70.4296 91.0907 70.1029 90.708C69.7763 90.3253 69.3376 90.134 68.7869 90.134C68.2363 90.134 67.7976 90.3253 67.4709 90.708C67.1443 91.0907 66.9809 91.674 66.9809 92.458C66.9809 93.242 67.1443 93.83 67.4709 94.222C67.7976 94.6047 68.2363 94.796 68.7869 94.796ZM73.8801 96V90.694C73.8801 90.4047 73.8708 90.1107 73.8521 89.812C73.8334 89.5133 73.8054 89.2193 73.7681 88.93H75.4621L75.6021 90.33H75.4341C75.6301 89.8447 75.9288 89.4667 76.3301 89.196C76.7408 88.9253 77.2261 88.79 77.7861 88.79C78.3461 88.79 78.8081 88.9253 79.1721 89.196C79.5454 89.4573 79.8068 89.868 79.9561 90.428H79.7321C79.9281 89.924 80.2501 89.5273 80.6981 89.238C81.1461 88.9393 81.6594 88.79 82.2381 88.79C83.0314 88.79 83.6241 89.0233 84.0161 89.49C84.4081 89.9567 84.6041 90.6847 84.6041 91.674V96H82.8541V91.744C82.8541 91.184 82.7608 90.7827 82.5741 90.54C82.3874 90.288 82.0888 90.162 81.6781 90.162C81.1928 90.162 80.8101 90.3347 80.5301 90.68C80.2501 91.016 80.1101 91.4733 80.1101 92.052V96H78.3601V91.744C78.3601 91.184 78.2668 90.7827 78.0801 90.54C77.8934 90.288 77.5948 90.162 77.1841 90.162C76.6988 90.162 76.3161 90.3347 76.0361 90.68C75.7654 91.016 75.6301 91.4733 75.6301 92.052V96H73.8801ZM86.4719 96V90.694C86.4719 90.4047 86.4625 90.1107 86.4439 89.812C86.4252 89.5133 86.3972 89.2193 86.3599 88.93H88.0539L88.1939 90.33H88.0259C88.2219 89.8447 88.5205 89.4667 88.9219 89.196C89.3325 88.9253 89.8179 88.79 90.3779 88.79C90.9379 88.79 91.3999 88.9253 91.7639 89.196C92.1372 89.4573 92.3985 89.868 92.5479 90.428H92.3239C92.5199 89.924 92.8419 89.5273 93.2899 89.238C93.7379 88.9393 94.2512 88.79 94.8299 88.79C95.6232 88.79 96.2159 89.0233 96.6079 89.49C96.9999 89.9567 97.1959 90.6847 97.1959 91.674V96H95.4459V91.744C95.4459 91.184 95.3525 90.7827 95.1659 90.54C94.9792 90.288 94.6805 90.162 94.2699 90.162C93.7845 90.162 93.4019 90.3347 93.1219 90.68C92.8419 91.016 92.7019 91.4733 92.7019 92.052V96H90.9519V91.744C90.9519 91.184 90.8585 90.7827 90.6719 90.54C90.4852 90.288 90.1865 90.162 89.7759 90.162C89.2905 90.162 88.9079 90.3347 88.6279 90.68C88.3572 91.016 88.2219 91.4733 88.2219 92.052V96H86.4719ZM102.48 96.14C101.294 96.14 100.366 95.8133 99.6937 95.16C99.0217 94.5067 98.6857 93.6107 98.6857 92.472C98.6857 91.7347 98.8303 91.0907 99.1197 90.54C99.409 89.9893 99.8103 89.56 100.324 89.252C100.846 88.944 101.453 88.79 102.144 88.79C102.825 88.79 103.394 88.9347 103.852 89.224C104.309 89.5133 104.654 89.9193 104.888 90.442C105.13 90.9647 105.252 91.576 105.252 92.276V92.738H100.1V91.814H104.006L103.768 92.01C103.768 91.3567 103.628 90.8573 103.348 90.512C103.077 90.1667 102.68 89.994 102.158 89.994C101.579 89.994 101.131 90.1993 100.814 90.61C100.506 91.0207 100.352 91.5947 100.352 92.332V92.514C100.352 93.2793 100.538 93.8533 100.912 94.236C101.294 94.6093 101.831 94.796 102.522 94.796C102.923 94.796 103.296 94.7447 103.642 94.642C103.996 94.53 104.332 94.3527 104.65 94.11L105.168 95.286C104.832 95.5567 104.43 95.7667 103.964 95.916C103.497 96.0653 103.002 96.14 102.48 96.14ZM106.72 96V90.736C106.72 90.4373 106.71 90.134 106.692 89.826C106.682 89.518 106.659 89.2193 106.622 88.93H108.316L108.512 90.862H108.232C108.325 90.3953 108.479 90.008 108.694 89.7C108.918 89.392 109.188 89.1633 109.506 89.014C109.823 88.8647 110.168 88.79 110.542 88.79C110.71 88.79 110.845 88.7993 110.948 88.818C111.05 88.8273 111.153 88.8507 111.256 88.888L111.242 90.428C111.064 90.3533 110.91 90.3067 110.78 90.288C110.658 90.2693 110.504 90.26 110.318 90.26C109.916 90.26 109.576 90.344 109.296 90.512C109.025 90.68 108.82 90.9133 108.68 91.212C108.549 91.5107 108.484 91.8513 108.484 92.234V96H106.72ZM115.368 96.14C114.64 96.14 114.001 95.9907 113.45 95.692C112.909 95.3933 112.489 94.9687 112.19 94.418C111.892 93.858 111.742 93.1953 111.742 92.43C111.742 91.6647 111.892 91.0113 112.19 90.47C112.498 89.9287 112.923 89.5133 113.464 89.224C114.006 88.9347 114.64 88.79 115.368 88.79C115.835 88.79 116.288 88.8647 116.726 89.014C117.174 89.154 117.538 89.3593 117.818 89.63L117.286 90.848C117.034 90.6147 116.75 90.442 116.432 90.33C116.124 90.2087 115.821 90.148 115.522 90.148C114.897 90.148 114.407 90.344 114.052 90.736C113.707 91.128 113.534 91.6973 113.534 92.444C113.534 93.1907 113.707 93.7647 114.052 94.166C114.407 94.5673 114.897 94.768 115.522 94.768C115.812 94.768 116.11 94.712 116.418 94.6C116.736 94.488 117.025 94.3153 117.286 94.082L117.818 95.286C117.529 95.5567 117.16 95.7667 116.712 95.916C116.274 96.0653 115.826 96.14 115.368 96.14ZM122.454 96.14C121.269 96.14 120.34 95.8133 119.668 95.16C118.996 94.5067 118.66 93.6107 118.66 92.472C118.66 91.7347 118.805 91.0907 119.094 90.54C119.384 89.9893 119.785 89.56 120.298 89.252C120.821 88.944 121.428 88.79 122.118 88.79C122.8 88.79 123.369 88.9347 123.826 89.224C124.284 89.5133 124.629 89.9193 124.862 90.442C125.105 90.9647 125.226 91.576 125.226 92.276V92.738H120.074V91.814H123.98L123.742 92.01C123.742 91.3567 123.602 90.8573 123.322 90.512C123.052 90.1667 122.655 89.994 122.132 89.994C121.554 89.994 121.106 90.1993 120.788 90.61C120.48 91.0207 120.326 91.5947 120.326 92.332V92.514C120.326 93.2793 120.513 93.8533 120.886 94.236C121.269 94.6093 121.806 94.796 122.496 94.796C122.898 94.796 123.271 94.7447 123.616 94.642C123.971 94.53 124.307 94.3527 124.624 94.11L125.142 95.286C124.806 95.5567 124.405 95.7667 123.938 95.916C123.472 96.0653 122.977 96.14 122.454 96.14ZM127.341 98.52H125.941C126.427 97.4467 126.786 96.4013 127.019 95.384C127.262 94.3573 127.383 93.3353 127.383 92.318C127.383 91.3007 127.262 90.2833 127.019 89.266C126.786 88.2487 126.427 87.2033 125.941 86.13H127.341C127.789 86.8113 128.149 87.4833 128.419 88.146C128.69 88.8087 128.886 89.4853 129.007 90.176C129.129 90.8573 129.189 91.5713 129.189 92.318C129.189 93.0647 129.129 93.7833 129.007 94.474C128.886 95.1647 128.69 95.8413 128.419 96.504C128.149 97.1667 127.789 97.8387 127.341 98.52Z" fill="#202244" fill-opacity="0.8"/>
<path d="M109.797 4.00013H64.0938C62.4901 3.99014 60.9477 4.56799 59.8052 5.6068C58.6627 6.64561 58.0134 8.06048 58 9.54075V31.6283C58.0134 33.1085 58.6627 34.5234 59.8052 35.5622C60.9477 36.601 62.4901 37.1789 64.0938 37.1689H83.6141C83.5481 37.3077 83.4971 37.4521 83.4617 37.6001C83.3565 38.3765 83.4576 39.1648 83.7563 39.897L83.8477 40.1595C84.4672 42.2595 85.1578 44.3033 85.757 46.0376L85.7977 46.1501C86.1648 47.6268 86.9298 48.9941 88.0219 50.1251C88.5398 50.5845 89.068 51.0533 89.5961 51.5126C89.2177 51.652 88.8929 51.8924 88.6631 52.203C88.4334 52.5135 88.3091 52.8803 88.3063 53.2564V55.5439C88.3079 56.0407 88.5224 56.5168 88.903 56.8681C89.2836 57.2194 89.7993 57.4174 90.3375 57.4189H109.441C109.98 57.4174 110.495 57.2194 110.876 56.8681C111.257 56.5168 111.471 56.0407 111.473 55.5439V53.2564C111.471 52.7596 111.257 52.2835 110.876 51.9322C110.495 51.5809 109.98 51.3829 109.441 51.3814H109.188C109.543 50.322 109.919 49.2345 110.345 48.1845C111.483 45.3533 111.452 42.4283 111.432 39.597C111.422 38.7251 111.422 37.8251 111.452 36.9439C112.72 36.627 113.84 35.9358 114.641 34.9759C115.443 34.016 115.881 32.8402 115.891 31.6283V9.54075C115.877 8.06048 115.228 6.64561 114.085 5.6068C112.943 4.56799 111.401 3.99014 109.797 4.00013ZM109.441 53.2564V55.5439H90.3375V53.2564H109.441ZM109.441 36.1376C109.38 37.3001 109.391 38.4814 109.401 39.6158C109.421 42.4001 109.452 45.0251 108.436 47.5283C107.948 48.7283 107.542 49.9564 107.136 51.1376L107.055 51.3814H92.3789C91.3937 50.5095 90.4086 49.647 89.4234 48.7658C88.5951 47.8443 88.014 46.7554 87.7273 45.5876L87.6867 45.4658C87.0977 43.7595 86.4172 41.7345 85.7977 39.6533L85.7063 39.3626C85.5146 38.9125 85.4281 38.4301 85.4523 37.947C85.5024 37.7463 85.6083 37.5611 85.7598 37.4098C85.9112 37.2585 86.1028 37.1464 86.3156 37.0845H86.3258C86.3855 37.0676 86.4467 37.055 86.5086 37.047C86.742 37.0171 86.9797 37.043 87.1992 37.122C87.4635 37.2031 87.6871 37.3695 87.8289 37.5908C88.0028 37.8771 88.1456 38.1786 88.2555 38.4908C88.3367 38.6783 88.4078 38.8751 88.4891 39.0439C88.5906 39.2783 88.6719 39.5126 88.7531 39.747C88.9358 40.302 89.1773 40.8389 89.4742 41.3501C89.6406 41.6906 89.9305 41.9668 90.2939 42.1311C90.6573 42.2954 91.0714 42.3375 91.4648 42.2501C91.8609 42.1376 92.5211 41.772 92.5617 40.6001C92.5922 39.147 92.6227 37.7033 92.643 36.2501C92.6734 34.4126 92.7141 32.572 92.7648 30.7283C92.8359 28.0751 92.9375 25.8908 93.0797 23.9033L93.1 23.5845C93.1121 23.2782 93.252 22.9881 93.4905 22.7749C93.7291 22.5618 94.0477 22.442 94.3797 22.4408C94.7211 22.4408 95.0504 22.5577 95.3039 22.7689C95.4161 22.8664 95.5054 22.9841 95.5666 23.1147C95.6277 23.2453 95.6593 23.386 95.6594 23.5283V36.1189C95.6594 36.3675 95.7664 36.606 95.9568 36.7818C96.1473 36.9576 96.4056 37.0564 96.675 37.0564C96.9444 37.0564 97.2027 36.9576 97.3932 36.7818C97.5836 36.606 97.6906 36.3675 97.6906 36.1189V30.6626C97.6906 30.1751 98.2695 29.7814 98.9703 29.7814C99.3186 29.7725 99.6596 29.8751 99.9352 30.072C100.034 30.1512 100.113 30.2492 100.168 30.3592C100.222 30.4691 100.25 30.5886 100.25 30.7095V36.1189C100.25 36.3675 100.357 36.606 100.547 36.7818C100.738 36.9576 100.996 37.0564 101.266 37.0564C101.535 37.0564 101.793 36.9576 101.984 36.7818C102.174 36.606 102.281 36.3675 102.281 36.1189V31.6751C102.283 31.4969 102.335 31.3222 102.434 31.1689C102.546 31.0228 102.689 30.8995 102.855 30.8066C103.021 30.7136 103.206 30.653 103.398 30.6284C103.59 30.6038 103.786 30.6158 103.973 30.6636C104.16 30.7114 104.334 30.794 104.485 30.9064C104.569 30.9868 104.644 31.0748 104.709 31.1689C104.801 31.3242 104.849 31.4981 104.851 31.6751V36.1189C104.851 36.3675 104.958 36.606 105.148 36.7818C105.339 36.9576 105.597 37.0564 105.866 37.0564C106.136 37.0564 106.394 36.9576 106.585 36.7818C106.775 36.606 106.882 36.3675 106.882 36.1189V33.2876C106.898 32.9883 107.041 32.7068 107.281 32.5047C107.521 32.3027 107.837 32.1965 108.162 32.2095C108.508 32.2085 108.842 32.3292 109.096 32.547C109.205 32.6427 109.291 32.7576 109.35 32.8849C109.41 33.0121 109.441 33.1491 109.441 33.2876V36.1376ZM91.1703 22.8814H90.5V19.6845L98.625 19.6658V22.872H97.5992C97.464 22.3117 97.149 21.8021 96.6953 21.4095C96.0679 20.8665 95.2398 20.5647 94.3797 20.5658C93.6396 20.5589 92.919 20.7842 92.3359 21.205C91.7527 21.6257 91.3418 22.2168 91.1703 22.8814ZM109.797 28.872C109.791 29.1155 109.681 29.347 109.49 29.5157C109.3 29.6844 109.045 29.7765 108.781 29.772H106.08C106.009 29.7064 105.968 29.622 105.897 29.5658C105.268 29.0114 104.43 28.7053 103.561 28.7126C102.925 28.7155 102.303 28.881 101.763 29.1908C101.622 28.9914 101.451 28.8115 101.255 28.6564C101.126 28.5544 100.986 28.4634 100.839 28.3845C100.749 28.3304 100.654 28.2834 100.555 28.2439C100.504 28.2251 100.463 28.2064 100.412 28.1876C99.9576 28.0039 99.4668 27.9082 98.9703 27.9064C98.882 27.9076 98.7938 27.9139 98.7063 27.9251C98.6352 27.9345 98.5641 27.9345 98.493 27.9439C98.3975 27.9518 98.3026 27.9643 98.2086 27.9814C98.0314 28.0127 97.8579 28.0598 97.6906 28.122V24.747H98.625C99.162 24.747 99.6771 24.5508 100.058 24.2011C100.438 23.8515 100.654 23.377 100.656 22.8814V19.6658C100.651 19.1717 100.435 18.6996 100.054 18.352C99.6738 18.0044 99.1602 17.8095 98.625 17.8095H90.5C89.9648 17.8095 89.4512 18.0044 89.0708 18.352C88.6905 18.6996 88.4741 19.1717 88.4688 19.6658V22.8814C88.4714 23.377 88.6866 23.8515 89.0673 24.2011C89.4479 24.5508 89.963 24.747 90.5 24.747H90.9875C90.9773 24.9064 90.9672 25.0658 90.957 25.2345C90.9469 25.4033 90.9367 25.572 90.9266 25.7314C90.9062 26.0876 90.8859 26.4439 90.8758 26.8001L90.8453 27.4189C90.8352 27.7751 90.8148 28.1314 90.8047 28.497C90.7945 28.722 90.7844 28.947 90.7844 29.1814C90.7742 29.3783 90.7641 29.5658 90.7641 29.772H65.1094C64.8455 29.7765 64.5905 29.6844 64.4002 29.5157C64.2098 29.347 64.0996 29.1155 64.0938 28.872V10.4595C64.0996 10.216 64.2098 9.98453 64.4002 9.81584C64.5905 9.64715 64.8455 9.55498 65.1094 9.5595H108.781C109.045 9.55498 109.3 9.64715 109.49 9.81584C109.681 9.98453 109.791 10.216 109.797 10.4595V28.872ZM113.859 31.6283C113.854 32.3358 113.626 33.0265 113.202 33.616C112.778 34.2055 112.177 34.668 111.473 34.947V33.2876C111.471 32.8929 111.383 32.5026 111.213 32.1401C111.044 31.7776 110.797 31.4505 110.488 31.1783C110.897 30.9229 111.233 30.5796 111.466 30.1778C111.7 29.7761 111.824 29.3279 111.828 28.872V10.4595C111.821 9.71917 111.496 9.01169 110.925 8.4917C110.354 7.97171 109.583 7.6815 108.781 7.6845H65.1094C64.3073 7.6815 63.5366 7.97171 62.9657 8.4917C62.3947 9.01169 62.07 9.71917 62.0625 10.4595V28.872C62.07 29.6123 62.3947 30.3198 62.9657 30.8398C63.5366 31.3598 64.3073 31.65 65.1094 31.647H90.7133C90.6727 33.1751 90.632 34.6939 90.6117 36.222C90.6016 37.0939 90.5812 37.9658 90.5711 38.8283C90.5102 38.6689 90.4391 38.5095 90.368 38.3314C90.2969 38.172 90.2258 38.0033 90.1648 37.8439C90.0113 37.4211 89.8141 37.013 89.5758 36.6251C89.2299 36.1209 88.7361 35.7176 88.1519 35.4621C87.5676 35.2065 86.9168 35.1092 86.275 35.1814C86.0952 35.202 85.9183 35.2397 85.7469 35.2939H64.0938C63.5662 35.2994 63.0427 35.2091 62.5531 35.0278C62.0634 34.8466 61.6172 34.5782 61.24 34.2378C60.8627 33.8974 60.5618 33.4917 60.3544 33.044C60.147 32.5963 60.0372 32.1152 60.0312 31.6283V9.54075C60.0372 9.05383 60.147 8.57275 60.3544 8.12501C60.5618 7.67726 60.8627 7.27161 61.24 6.93122C61.6172 6.59083 62.0634 6.32236 62.5531 6.14116C63.0427 5.95995 63.5662 5.86956 64.0938 5.87513H109.797C110.324 5.86956 110.848 5.95995 111.338 6.14116C111.827 6.32236 112.273 6.59083 112.651 6.93122C113.028 7.27161 113.329 7.67726 113.536 8.12501C113.744 8.57275 113.853 9.05383 113.859 9.54075V31.6283Z" fill="#5E92EB"/>
<path d="M88.4688 33.4751C88.4688 33.7237 88.3617 33.9622 88.1713 34.138C87.9808 34.3138 87.7225 34.4126 87.4531 34.4126H85.4219C85.1525 34.4126 84.8942 34.3138 84.7037 34.138C84.5133 33.9622 84.4062 33.7237 84.4062 33.4751C84.4062 33.2265 84.5133 32.988 84.7037 32.8122C84.8942 32.6364 85.1525 32.5376 85.4219 32.5376H87.4531C87.7225 32.5376 87.9808 32.6364 88.1713 32.8122C88.3617 32.988 88.4688 33.2265 88.4688 33.4751Z" fill="#5E92EB"/>
<path d="M75.2656 14.1439C75.2656 14.3926 75.1586 14.631 74.9682 14.8068C74.7777 14.9826 74.5194 15.0814 74.25 15.0814H69.1719C68.9025 15.0814 68.6442 14.9826 68.4537 14.8068C68.2633 14.631 68.1562 14.3926 68.1562 14.1439C68.1562 13.8953 68.2633 13.6568 68.4537 13.481C68.6442 13.3052 68.9025 13.2064 69.1719 13.2064H74.25C74.5194 13.2064 74.7777 13.3052 74.9682 13.481C75.1586 13.6568 75.2656 13.8953 75.2656 14.1439Z" fill="#5E92EB"/>
<path d="M75.2656 19.6658C75.2656 19.9144 75.1586 20.1529 74.9682 20.3287C74.7777 20.5045 74.5194 20.6033 74.25 20.6033H69.1719C68.9025 20.6033 68.6442 20.5045 68.4537 20.3287C68.2633 20.1529 68.1562 19.9144 68.1562 19.6658C68.1562 19.4171 68.2633 19.1787 68.4537 19.0029C68.6442 18.827 68.9025 18.7283 69.1719 18.7283H74.25C74.5194 18.7283 74.7777 18.827 74.9682 19.0029C75.1586 19.1787 75.2656 19.4171 75.2656 19.6658Z" fill="#5E92EB"/>
<path d="M75.2656 25.1876C75.2656 25.4363 75.1586 25.6747 74.9682 25.8505C74.7777 26.0263 74.5194 26.1251 74.25 26.1251H69.1719C68.9025 26.1251 68.6442 26.0263 68.4537 25.8505C68.2633 25.6747 68.1562 25.4363 68.1562 25.1876C68.1562 24.939 68.2633 24.7005 68.4537 24.5247C68.6442 24.3489 68.9025 24.2501 69.1719 24.2501H74.25C74.5194 24.2501 74.7777 24.3489 74.9682 24.5247C75.1586 24.7005 75.2656 24.939 75.2656 25.1876Z" fill="#5E92EB"/>
<path d="M85.1172 12.972L82.0704 15.7282C81.8818 15.9023 81.6261 16.0001 81.3594 16.0001C81.0928 16.0001 80.837 15.9023 80.6485 15.7282L78.6172 13.8907C78.4256 13.715 78.317 13.4764 78.3151 13.227C78.3132 12.9777 78.4181 12.7377 78.6071 12.5595C78.796 12.3836 79.0527 12.2839 79.321 12.2822C79.5893 12.2804 79.8475 12.3767 80.0391 12.5501L81.3594 13.7501L83.6954 11.6314C83.887 11.458 84.1452 11.3617 84.4135 11.3634C84.6818 11.3652 84.9384 11.4649 85.1274 11.6407C85.3163 11.819 85.4213 12.0589 85.4194 12.3083C85.4175 12.5577 85.3089 12.7962 85.1172 12.972Z" fill="#5E92EB"/>
<path d="M85.1172 18.4938L82.0703 21.2501C81.8818 21.4241 81.626 21.5219 81.3594 21.5219C81.0927 21.5219 80.837 21.4241 80.6484 21.2501L78.6172 19.4126C78.4246 19.2385 78.3148 19.001 78.3119 18.7522C78.3091 18.5034 78.4134 18.2638 78.602 18.086C78.7905 17.9083 79.0479 17.8069 79.3174 17.8043C79.5869 17.8016 79.8465 17.8979 80.0391 18.072L81.3594 19.272L83.6953 17.1532C83.887 16.9798 84.1451 16.8835 84.4134 16.8853C84.6818 16.887 84.9384 16.9867 85.1274 17.1626C85.3163 17.3408 85.4212 17.5808 85.4193 17.8302C85.4174 18.0795 85.3088 18.3181 85.1172 18.4938Z" fill="#5E92EB"/>
<path d="M85.1172 24.0157L82.0703 26.7719C81.8818 26.946 81.626 27.0438 81.3594 27.0438C81.0927 27.0438 80.837 26.946 80.6484 26.7719L78.6172 24.9344C78.4246 24.7604 78.3148 24.5229 78.3119 24.2741C78.3091 24.0253 78.4134 23.7857 78.602 23.6079C78.7905 23.4301 79.0479 23.3287 79.3174 23.3261C79.5869 23.3235 79.8465 23.4198 80.0391 23.5938L81.3594 24.7938L83.6953 22.6751C83.887 22.5017 84.1451 22.4054 84.4134 22.4071C84.6818 22.4089 84.9384 22.5086 85.1274 22.6844C85.3163 22.8627 85.4212 23.1026 85.4193 23.352C85.4174 23.6014 85.3088 23.8399 85.1172 24.0157Z" fill="#5E92EB"/>
</svg>
