<svg width="176" height="101" viewBox="0 0 176 101" fill="none" xmlns="http://www.w3.org/2000/svg">
<path d="M41.8757 78V68.13H43.6817V72.246H48.7357V68.13H50.5417V78H48.7357V73.744H43.6817V78H41.8757ZM56.1615 78.14C55.3681 78.14 54.6355 78.042 53.9635 77.846C53.3008 77.6407 52.7315 77.3607 52.2555 77.006L52.8155 75.592C53.1328 75.816 53.4641 76.0073 53.8095 76.166C54.1548 76.3153 54.5235 76.432 54.9155 76.516C55.3075 76.5907 55.7228 76.628 56.1615 76.628C56.8988 76.628 57.4308 76.5067 57.7575 76.264C58.0841 76.0213 58.2475 75.704 58.2475 75.312C58.2475 74.9667 58.1355 74.7053 57.9115 74.528C57.6875 74.3413 57.2861 74.1873 56.7075 74.066L55.1255 73.744C54.2201 73.5573 53.5435 73.2447 53.0955 72.806C52.6475 72.3673 52.4235 71.7793 52.4235 71.042C52.4235 70.426 52.5868 69.8893 52.9135 69.432C53.2401 68.9747 53.6975 68.62 54.2855 68.368C54.8735 68.116 55.5595 67.99 56.3435 67.99C57.0435 67.99 57.6921 68.0927 58.2895 68.298C58.8868 68.494 59.3861 68.7787 59.7875 69.152L59.2275 70.496C58.8261 70.16 58.3875 69.9127 57.9115 69.754C57.4355 69.586 56.9035 69.502 56.3155 69.502C55.6528 69.502 55.1348 69.6327 54.7615 69.894C54.3975 70.146 54.2155 70.496 54.2155 70.944C54.2155 71.2893 54.3275 71.5647 54.5515 71.77C54.7848 71.9753 55.1768 72.134 55.7275 72.246L57.2955 72.554C58.2288 72.7407 58.9195 73.0487 59.3675 73.478C59.8155 73.898 60.0395 74.4673 60.0395 75.186C60.0395 75.774 59.8808 76.292 59.5635 76.74C59.2461 77.1787 58.7981 77.524 58.2195 77.776C57.6408 78.0187 56.9548 78.14 56.1615 78.14ZM66.3329 78.14C65.3063 78.14 64.4243 77.9347 63.6869 77.524C62.9589 77.104 62.3989 76.516 62.0069 75.76C61.6149 74.9947 61.4189 74.094 61.4189 73.058C61.4189 72.022 61.6149 71.126 62.0069 70.37C62.3989 69.614 62.9589 69.0307 63.6869 68.62C64.4243 68.2 65.3063 67.99 66.3329 67.99C67.0236 67.99 67.6443 68.088 68.1949 68.284C68.7549 68.48 69.2356 68.7693 69.6369 69.152L69.0489 70.58C68.6103 70.2253 68.1856 69.9733 67.7749 69.824C67.3736 69.6653 66.9116 69.586 66.3889 69.586C65.3903 69.586 64.6249 69.8893 64.0929 70.496C63.5703 71.0933 63.3089 71.9473 63.3089 73.058C63.3089 74.1687 63.5703 75.0273 64.0929 75.634C64.6249 76.2407 65.3903 76.544 66.3889 76.544C66.9116 76.544 67.3736 76.4693 67.7749 76.32C68.1856 76.1613 68.6103 75.9 69.0489 75.536L69.6369 76.964C69.2356 77.3373 68.7549 77.6267 68.1949 77.832C67.6443 78.0373 67.0236 78.14 66.3329 78.14ZM75.1667 78V76.67L78.4427 73.254C78.8534 72.8247 79.1567 72.428 79.3527 72.064C79.5487 71.7 79.6467 71.3267 79.6467 70.944C79.6467 70.468 79.4974 70.1087 79.1987 69.866C78.9 69.6233 78.466 69.502 77.8967 69.502C77.4394 69.502 77.0007 69.586 76.5807 69.754C76.1607 69.9127 75.75 70.1647 75.3487 70.51L74.7607 69.166C75.162 68.8113 75.6567 68.5267 76.2447 68.312C76.842 68.0973 77.4674 67.99 78.1207 67.99C79.1847 67.99 80.0014 68.228 80.5707 68.704C81.14 69.18 81.4247 69.8613 81.4247 70.748C81.4247 71.364 81.28 71.952 80.9907 72.512C80.7014 73.0627 80.2534 73.6413 79.6467 74.248L76.9167 76.978V76.502H81.8167V78H75.1667ZM83.4212 78V72.694C83.4212 72.4047 83.4119 72.1107 83.3932 71.812C83.3746 71.5133 83.3466 71.2193 83.3092 70.93H85.0032L85.1432 72.33H84.9752C85.1992 71.8353 85.5306 71.4573 85.9692 71.196C86.4079 70.9253 86.9166 70.79 87.4952 70.79C88.3259 70.79 88.9512 71.0233 89.3712 71.49C89.7912 71.9567 90.0012 72.6847 90.0012 73.674V78H88.2512V73.758C88.2512 73.1887 88.1392 72.7827 87.9152 72.54C87.7006 72.288 87.3739 72.162 86.9352 72.162C86.3939 72.162 85.9646 72.33 85.6472 72.666C85.3299 73.002 85.1712 73.45 85.1712 74.01V78H83.4212ZM94.6008 78.14C93.9848 78.14 93.4388 77.9953 92.9628 77.706C92.4961 77.4073 92.1321 76.9827 91.8708 76.432C91.6094 75.8813 91.4788 75.2233 91.4788 74.458C91.4788 73.6927 91.6094 73.0393 91.8708 72.498C92.1321 71.9473 92.4961 71.5273 92.9628 71.238C93.4388 70.9393 93.9848 70.79 94.6008 70.79C95.1888 70.79 95.7068 70.9347 96.1548 71.224C96.6121 71.504 96.9154 71.8867 97.0648 72.372H96.8828V67.696H98.6328V78H96.9108V76.502H97.0788C96.9294 77.006 96.6261 77.4073 96.1688 77.706C95.7208 77.9953 95.1981 78.14 94.6008 78.14ZM95.0908 76.796C95.6414 76.796 96.0848 76.6047 96.4208 76.222C96.7568 75.83 96.9248 75.242 96.9248 74.458C96.9248 73.674 96.7568 73.0907 96.4208 72.708C96.0848 72.3253 95.6414 72.134 95.0908 72.134C94.5401 72.134 94.0921 72.3253 93.7468 72.708C93.4108 73.0907 93.2428 73.674 93.2428 74.458C93.2428 75.242 93.4108 75.83 93.7468 76.222C94.0921 76.6047 94.5401 76.796 95.0908 76.796ZM106.928 78V73.338L107.306 74.416L103.064 68.13H105.15L108.062 72.61H107.67L110.582 68.13H112.598L108.37 74.416L108.734 73.338V78H106.928ZM115.439 78.14C114.253 78.14 113.325 77.8133 112.653 77.16C111.981 76.5067 111.645 75.6107 111.645 74.472C111.645 73.7347 111.789 73.0907 112.079 72.54C112.368 71.9893 112.769 71.56 113.283 71.252C113.805 70.944 114.412 70.79 115.103 70.79C115.784 70.79 116.353 70.9347 116.811 71.224C117.268 71.5133 117.613 71.9193 117.847 72.442C118.089 72.9647 118.211 73.576 118.211 74.276V74.738H113.059V73.814H116.965L116.727 74.01C116.727 73.3567 116.587 72.8573 116.307 72.512C116.036 72.1667 115.639 71.994 115.117 71.994C114.538 71.994 114.09 72.1993 113.773 72.61C113.465 73.0207 113.311 73.5947 113.311 74.332V74.514C113.311 75.2793 113.497 75.8533 113.871 76.236C114.253 76.6093 114.79 76.796 115.481 76.796C115.882 76.796 116.255 76.7447 116.601 76.642C116.955 76.53 117.291 76.3527 117.609 76.11L118.127 77.286C117.791 77.5567 117.389 77.7667 116.923 77.916C116.456 78.0653 115.961 78.14 115.439 78.14ZM122.423 78.14C121.807 78.14 121.265 77.9953 120.799 77.706C120.332 77.4073 119.968 76.9827 119.707 76.432C119.445 75.8813 119.315 75.2233 119.315 74.458C119.315 73.6927 119.445 73.0393 119.707 72.498C119.968 71.9473 120.332 71.5273 120.799 71.238C121.265 70.9393 121.807 70.79 122.423 70.79C123.02 70.79 123.543 70.9393 123.991 71.238C124.448 71.5273 124.751 71.9193 124.901 72.414H124.747L124.901 70.93H126.581C126.553 71.2193 126.525 71.5133 126.497 71.812C126.478 72.1107 126.469 72.4047 126.469 72.694V78H124.733L124.719 76.544H124.887C124.737 77.0293 124.434 77.4167 123.977 77.706C123.519 77.9953 123.001 78.14 122.423 78.14ZM122.913 76.796C123.463 76.796 123.907 76.6047 124.243 76.222C124.579 75.83 124.747 75.242 124.747 74.458C124.747 73.674 124.579 73.0907 124.243 72.708C123.907 72.3253 123.463 72.134 122.913 72.134C122.362 72.134 121.919 72.3253 121.583 72.708C121.247 73.0907 121.079 73.674 121.079 74.458C121.079 75.242 121.242 75.83 121.569 76.222C121.905 76.6047 122.353 76.796 122.913 76.796ZM128.36 78V72.736C128.36 72.4373 128.351 72.134 128.332 71.826C128.323 71.518 128.3 71.2193 128.262 70.93H129.956L130.152 72.862H129.872C129.966 72.3953 130.12 72.008 130.334 71.7C130.558 71.392 130.829 71.1633 131.146 71.014C131.464 70.8647 131.809 70.79 132.182 70.79C132.35 70.79 132.486 70.7993 132.588 70.818C132.691 70.8273 132.794 70.8507 132.896 70.888L132.882 72.428C132.705 72.3533 132.551 72.3067 132.42 72.288C132.299 72.2693 132.145 72.26 131.958 72.26C131.557 72.26 131.216 72.344 130.936 72.512C130.666 72.68 130.46 72.9133 130.32 73.212C130.19 73.5107 130.124 73.8513 130.124 74.234V78H128.36ZM52.0642 99.52C51.6256 98.8293 51.2662 98.1527 50.9862 97.49C50.7156 96.8273 50.5196 96.1553 50.3982 95.474C50.2769 94.7833 50.2162 94.0647 50.2162 93.318C50.2162 92.562 50.2769 91.8433 50.3982 91.162C50.5196 90.4807 50.7156 89.8087 50.9862 89.146C51.2662 88.4833 51.6256 87.8113 52.0642 87.13H53.4642C52.9789 88.2033 52.6149 89.2487 52.3722 90.266C52.1389 91.274 52.0222 92.2913 52.0222 93.318C52.0222 94.3353 52.1389 95.3527 52.3722 96.37C52.6149 97.3873 52.9789 98.4373 53.4642 99.52H52.0642ZM59.3671 97.14C58.3404 97.14 57.4584 96.9347 56.7211 96.524C55.9931 96.104 55.4331 95.516 55.0411 94.76C54.6491 93.9947 54.4531 93.094 54.4531 92.058C54.4531 91.022 54.6491 90.126 55.0411 89.37C55.4331 88.614 55.9931 88.0307 56.7211 87.62C57.4584 87.2 58.3404 86.99 59.3671 86.99C60.0578 86.99 60.6784 87.088 61.2291 87.284C61.7891 87.48 62.2698 87.7693 62.6711 88.152L62.0831 89.58C61.6444 89.2253 61.2198 88.9733 60.8091 88.824C60.4078 88.6653 59.9458 88.586 59.4231 88.586C58.4244 88.586 57.6591 88.8893 57.1271 89.496C56.6044 90.0933 56.3431 90.9473 56.3431 92.058C56.3431 93.1687 56.6044 94.0273 57.1271 94.634C57.6591 95.2407 58.4244 95.544 59.4231 95.544C59.9458 95.544 60.4078 95.4693 60.8091 95.32C61.2198 95.1613 61.6444 94.9 62.0831 94.536L62.6711 95.964C62.2698 96.3373 61.7891 96.6267 61.2291 96.832C60.6784 97.0373 60.0578 97.14 59.3671 97.14ZM66.9189 97.14C66.1909 97.14 65.5609 96.9907 65.0289 96.692C64.4969 96.3933 64.0816 95.9687 63.7829 95.418C63.4936 94.8673 63.3489 94.214 63.3489 93.458C63.3489 92.702 63.4936 92.0533 63.7829 91.512C64.0816 90.9613 64.4969 90.5367 65.0289 90.238C65.5609 89.9393 66.1909 89.79 66.9189 89.79C67.6469 89.79 68.2769 89.9393 68.8089 90.238C69.3502 90.5367 69.7656 90.9613 70.0549 91.512C70.3536 92.0533 70.5029 92.702 70.5029 93.458C70.5029 94.214 70.3536 94.8673 70.0549 95.418C69.7656 95.9687 69.3502 96.3933 68.8089 96.692C68.2769 96.9907 67.6469 97.14 66.9189 97.14ZM66.9189 95.796C67.4696 95.796 67.9082 95.6047 68.2349 95.222C68.5616 94.83 68.7249 94.242 68.7249 93.458C68.7249 92.674 68.5616 92.0907 68.2349 91.708C67.9082 91.3253 67.4696 91.134 66.9189 91.134C66.3682 91.134 65.9296 91.3253 65.6029 91.708C65.2762 92.0907 65.1129 92.674 65.1129 93.458C65.1129 94.242 65.2762 94.83 65.6029 95.222C65.9296 95.6047 66.3682 95.796 66.9189 95.796ZM72.0121 97V91.694C72.0121 91.4047 72.0027 91.1107 71.9841 90.812C71.9654 90.5133 71.9374 90.2193 71.9001 89.93H73.5941L73.7341 91.33H73.5661C73.7621 90.8447 74.0607 90.4667 74.4621 90.196C74.8727 89.9253 75.3581 89.79 75.9181 89.79C76.4781 89.79 76.9401 89.9253 77.3041 90.196C77.6774 90.4573 77.9387 90.868 78.0881 91.428H77.8641C78.0601 90.924 78.3821 90.5273 78.8301 90.238C79.2781 89.9393 79.7914 89.79 80.3701 89.79C81.1634 89.79 81.7561 90.0233 82.1481 90.49C82.5401 90.9567 82.7361 91.6847 82.7361 92.674V97H80.9861V92.744C80.9861 92.184 80.8927 91.7827 80.7061 91.54C80.5194 91.288 80.2207 91.162 79.8101 91.162C79.3247 91.162 78.9421 91.3347 78.6621 91.68C78.3821 92.016 78.2421 92.4733 78.2421 93.052V97H76.4921V92.744C76.4921 92.184 76.3987 91.7827 76.2121 91.54C76.0254 91.288 75.7267 91.162 75.3161 91.162C74.8307 91.162 74.4481 91.3347 74.1681 91.68C73.8974 92.016 73.7621 92.4733 73.7621 93.052V97H72.0121ZM84.6038 97V91.694C84.6038 91.4047 84.5945 91.1107 84.5758 90.812C84.5572 90.5133 84.5292 90.2193 84.4918 89.93H86.1858L86.3258 91.33H86.1578C86.3538 90.8447 86.6525 90.4667 87.0538 90.196C87.4645 89.9253 87.9498 89.79 88.5098 89.79C89.0698 89.79 89.5318 89.9253 89.8958 90.196C90.2692 90.4573 90.5305 90.868 90.6798 91.428H90.4558C90.6518 90.924 90.9738 90.5273 91.4218 90.238C91.8698 89.9393 92.3832 89.79 92.9618 89.79C93.7552 89.79 94.3478 90.0233 94.7398 90.49C95.1318 90.9567 95.3278 91.6847 95.3278 92.674V97H93.5778V92.744C93.5778 92.184 93.4845 91.7827 93.2978 91.54C93.1112 91.288 92.8125 91.162 92.4018 91.162C91.9165 91.162 91.5338 91.3347 91.2538 91.68C90.9738 92.016 90.8338 92.4733 90.8338 93.052V97H89.0838V92.744C89.0838 92.184 88.9905 91.7827 88.8038 91.54C88.6172 91.288 88.3185 91.162 87.9078 91.162C87.4225 91.162 87.0398 91.3347 86.7598 91.68C86.4892 92.016 86.3538 92.4733 86.3538 93.052V97H84.6038ZM100.612 97.14C99.4263 97.14 98.4977 96.8133 97.8257 96.16C97.1537 95.5067 96.8177 94.6107 96.8177 93.472C96.8177 92.7347 96.9623 92.0907 97.2517 91.54C97.541 90.9893 97.9423 90.56 98.4557 90.252C98.9783 89.944 99.585 89.79 100.276 89.79C100.957 89.79 101.526 89.9347 101.984 90.224C102.441 90.5133 102.786 90.9193 103.02 91.442C103.262 91.9647 103.384 92.576 103.384 93.276V93.738H98.2317V92.814H102.138L101.9 93.01C101.9 92.3567 101.76 91.8573 101.48 91.512C101.209 91.1667 100.812 90.994 100.29 90.994C99.711 90.994 99.263 91.1993 98.9457 91.61C98.6377 92.0207 98.4837 92.5947 98.4837 93.332V93.514C98.4837 94.2793 98.6703 94.8533 99.0437 95.236C99.4263 95.6093 99.963 95.796 100.654 95.796C101.055 95.796 101.428 95.7447 101.774 95.642C102.128 95.53 102.464 95.3527 102.782 95.11L103.3 96.286C102.964 96.5567 102.562 96.7667 102.096 96.916C101.629 97.0653 101.134 97.14 100.612 97.14ZM104.852 97V91.736C104.852 91.4373 104.842 91.134 104.824 90.826C104.814 90.518 104.791 90.2193 104.754 89.93H106.448L106.644 91.862H106.364C106.457 91.3953 106.611 91.008 106.826 90.7C107.05 90.392 107.32 90.1633 107.638 90.014C107.955 89.8647 108.3 89.79 108.674 89.79C108.842 89.79 108.977 89.7993 109.08 89.818C109.182 89.8273 109.285 89.8507 109.388 89.888L109.374 91.428C109.196 91.3533 109.042 91.3067 108.912 91.288C108.79 91.2693 108.636 91.26 108.45 91.26C108.048 91.26 107.708 91.344 107.428 91.512C107.157 91.68 106.952 91.9133 106.812 92.212C106.681 92.5107 106.616 92.8513 106.616 93.234V97H104.852ZM113.5 97.14C112.772 97.14 112.133 96.9907 111.582 96.692C111.041 96.3933 110.621 95.9687 110.322 95.418C110.024 94.858 109.874 94.1953 109.874 93.43C109.874 92.6647 110.024 92.0113 110.322 91.47C110.63 90.9287 111.055 90.5133 111.596 90.224C112.138 89.9347 112.772 89.79 113.5 89.79C113.967 89.79 114.42 89.8647 114.858 90.014C115.306 90.154 115.67 90.3593 115.95 90.63L115.418 91.848C115.166 91.6147 114.882 91.442 114.564 91.33C114.256 91.2087 113.953 91.148 113.654 91.148C113.029 91.148 112.539 91.344 112.184 91.736C111.839 92.128 111.666 92.6973 111.666 93.444C111.666 94.1907 111.839 94.7647 112.184 95.166C112.539 95.5673 113.029 95.768 113.654 95.768C113.944 95.768 114.242 95.712 114.55 95.6C114.868 95.488 115.157 95.3153 115.418 95.082L115.95 96.286C115.661 96.5567 115.292 96.7667 114.844 96.916C114.406 97.0653 113.958 97.14 113.5 97.14ZM120.586 97.14C119.401 97.14 118.472 96.8133 117.8 96.16C117.128 95.5067 116.792 94.6107 116.792 93.472C116.792 92.7347 116.937 92.0907 117.226 91.54C117.516 90.9893 117.917 90.56 118.43 90.252C118.953 89.944 119.56 89.79 120.25 89.79C120.932 89.79 121.501 89.9347 121.958 90.224C122.416 90.5133 122.761 90.9193 122.994 91.442C123.237 91.9647 123.358 92.576 123.358 93.276V93.738H118.206V92.814H122.112L121.874 93.01C121.874 92.3567 121.734 91.8573 121.454 91.512C121.184 91.1667 120.787 90.994 120.264 90.994C119.686 90.994 119.238 91.1993 118.92 91.61C118.612 92.0207 118.458 92.5947 118.458 93.332V93.514C118.458 94.2793 118.645 94.8533 119.018 95.236C119.401 95.6093 119.938 95.796 120.628 95.796C121.03 95.796 121.403 95.7447 121.748 95.642C122.103 95.53 122.439 95.3527 122.756 95.11L123.274 96.286C122.938 96.5567 122.537 96.7667 122.07 96.916C121.604 97.0653 121.109 97.14 120.586 97.14ZM125.473 99.52H124.073C124.559 98.4467 124.918 97.4013 125.151 96.384C125.394 95.3573 125.515 94.3353 125.515 93.318C125.515 92.3007 125.394 91.2833 125.151 90.266C124.918 89.2487 124.559 88.2033 124.073 87.13H125.473C125.921 87.8113 126.281 88.4833 126.551 89.146C126.822 89.8087 127.018 90.4853 127.139 91.176C127.261 91.8573 127.321 92.5713 127.321 93.318C127.321 94.0647 127.261 94.7833 127.139 95.474C127.018 96.1647 126.822 96.8413 126.551 97.504C126.281 98.1667 125.921 98.8387 125.473 99.52Z" fill="#202244" fill-opacity="0.8"/>
<path d="M105.797 7.00013H60.0938C58.4901 6.99014 56.9477 7.56799 55.8052 8.6068C54.6627 9.64561 54.0134 11.0605 54 12.5408V34.6283C54.0134 36.1085 54.6627 37.5234 55.8052 38.5622C56.9477 39.601 58.4901 40.1789 60.0938 40.1689H79.6141C79.5481 40.3077 79.4971 40.4521 79.4617 40.6001C79.3565 41.3765 79.4576 42.1648 79.7563 42.897L79.8477 43.1595C80.4672 45.2595 81.1578 47.3033 81.757 49.0376L81.7977 49.1501C82.1648 50.6268 82.9298 51.9941 84.0219 53.1251C84.5398 53.5845 85.068 54.0533 85.5961 54.5126C85.2177 54.652 84.8929 54.8924 84.6631 55.203C84.4334 55.5135 84.3091 55.8803 84.3063 56.2564V58.5439C84.3079 59.0407 84.5224 59.5168 84.903 59.8681C85.2836 60.2194 85.7993 60.4174 86.3375 60.4189H105.441C105.98 60.4174 106.495 60.2194 106.876 59.8681C107.257 59.5168 107.471 59.0407 107.473 58.5439V56.2564C107.471 55.7596 107.257 55.2835 106.876 54.9322C106.495 54.5809 105.98 54.3829 105.441 54.3814H105.188C105.543 53.322 105.919 52.2345 106.345 51.1845C107.483 48.3533 107.452 45.4283 107.432 42.597C107.422 41.7251 107.422 40.8251 107.452 39.9439C108.72 39.627 109.84 38.9358 110.641 37.9759C111.443 37.016 111.881 35.8402 111.891 34.6283V12.5408C111.877 11.0605 111.228 9.64561 110.085 8.6068C108.943 7.56799 107.401 6.99014 105.797 7.00013ZM105.441 56.2564V58.5439H86.3375V56.2564H105.441ZM105.441 39.1376C105.38 40.3001 105.391 41.4814 105.401 42.6158C105.421 45.4001 105.452 48.0251 104.436 50.5283C103.948 51.7283 103.542 52.9564 103.136 54.1376L103.055 54.3814H88.3789C87.3937 53.5095 86.4086 52.647 85.4234 51.7658C84.5951 50.8443 84.014 49.7554 83.7273 48.5876L83.6867 48.4658C83.0977 46.7595 82.4172 44.7345 81.7977 42.6533L81.7063 42.3626C81.5146 41.9125 81.4281 41.4301 81.4523 40.947C81.5024 40.7463 81.6083 40.5611 81.7598 40.4098C81.9112 40.2585 82.1028 40.1464 82.3156 40.0845H82.3258C82.3855 40.0676 82.4467 40.055 82.5086 40.047C82.742 40.0171 82.9797 40.043 83.1992 40.122C83.4635 40.2031 83.6871 40.3695 83.8289 40.5908C84.0028 40.8771 84.1456 41.1786 84.2555 41.4908C84.3367 41.6783 84.4078 41.8751 84.4891 42.0439C84.5906 42.2783 84.6719 42.5126 84.7531 42.747C84.9358 43.302 85.1773 43.8389 85.4742 44.3501C85.6406 44.6906 85.9305 44.9668 86.2939 45.1311C86.6573 45.2954 87.0714 45.3375 87.4648 45.2501C87.8609 45.1376 88.5211 44.772 88.5617 43.6001C88.5922 42.147 88.6227 40.7033 88.643 39.2501C88.6734 37.4126 88.7141 35.572 88.7648 33.7283C88.8359 31.0751 88.9375 28.8908 89.0797 26.9033L89.1 26.5845C89.1121 26.2782 89.252 25.9881 89.4905 25.7749C89.7291 25.5618 90.0477 25.442 90.3797 25.4408C90.7211 25.4408 91.0504 25.5577 91.3039 25.7689C91.4161 25.8664 91.5054 25.9841 91.5666 26.1147C91.6277 26.2453 91.6593 26.386 91.6594 26.5283V39.1189C91.6594 39.3675 91.7664 39.606 91.9568 39.7818C92.1473 39.9576 92.4056 40.0564 92.675 40.0564C92.9444 40.0564 93.2027 39.9576 93.3932 39.7818C93.5836 39.606 93.6906 39.3675 93.6906 39.1189V33.6626C93.6906 33.1751 94.2695 32.7814 94.9703 32.7814C95.3186 32.7725 95.6596 32.8751 95.9352 33.072C96.034 33.1512 96.1133 33.2492 96.1677 33.3592C96.222 33.4691 96.2501 33.5886 96.25 33.7095V39.1189C96.25 39.3675 96.357 39.606 96.5475 39.7818C96.7379 39.9576 96.9963 40.0564 97.2656 40.0564C97.535 40.0564 97.7933 39.9576 97.9838 39.7818C98.1742 39.606 98.2812 39.3675 98.2812 39.1189V34.6751C98.2826 34.4969 98.3352 34.3222 98.4336 34.1689C98.5459 34.0228 98.6894 33.8995 98.8552 33.8066C99.021 33.7136 99.2057 33.653 99.3979 33.6284C99.5901 33.6038 99.7857 33.6158 99.9727 33.6636C100.16 33.7114 100.334 33.794 100.485 33.9064C100.569 33.9868 100.644 34.0748 100.709 34.1689C100.801 34.3242 100.849 34.4981 100.851 34.6751V39.1189C100.851 39.3675 100.958 39.606 101.148 39.7818C101.339 39.9576 101.597 40.0564 101.866 40.0564C102.136 40.0564 102.394 39.9576 102.585 39.7818C102.775 39.606 102.882 39.3675 102.882 39.1189V36.2876C102.898 35.9883 103.041 35.7068 103.281 35.5047C103.521 35.3027 103.837 35.1965 104.162 35.2095C104.508 35.2085 104.842 35.3292 105.096 35.547C105.205 35.6427 105.291 35.7576 105.35 35.8849C105.41 36.0121 105.441 36.1491 105.441 36.2876V39.1376ZM87.1703 25.8814H86.5V22.6845L94.625 22.6658V25.872H93.5992C93.464 25.3117 93.149 24.8021 92.6953 24.4095C92.0679 23.8665 91.2398 23.5647 90.3797 23.5658C89.6396 23.5589 88.919 23.7842 88.3359 24.205C87.7527 24.6257 87.3418 25.2168 87.1703 25.8814ZM105.797 31.872C105.791 32.1155 105.681 32.347 105.49 32.5157C105.3 32.6844 105.045 32.7765 104.781 32.772H102.08C102.009 32.7064 101.968 32.622 101.897 32.5658C101.268 32.0114 100.43 31.7053 99.5609 31.7126C98.9253 31.7155 98.3031 31.881 97.7633 32.1908C97.6221 31.9914 97.4512 31.8115 97.2555 31.6564C97.1258 31.5544 96.9865 31.4634 96.8391 31.3845C96.7487 31.3304 96.6535 31.2834 96.5547 31.2439C96.5039 31.2251 96.4633 31.2064 96.4125 31.1876C95.9576 31.0039 95.4668 30.9082 94.9703 30.9064C94.882 30.9076 94.7938 30.9139 94.7063 30.9251C94.6352 30.9345 94.5641 30.9345 94.493 30.9439C94.3975 30.9518 94.3026 30.9643 94.2086 30.9814C94.0314 31.0127 93.8579 31.0598 93.6906 31.122V27.747H94.625C95.162 27.747 95.6771 27.5508 96.0577 27.2011C96.4384 26.8515 96.6536 26.377 96.6562 25.8814V22.6658C96.6509 22.1717 96.4345 21.6996 96.0542 21.352C95.6738 21.0044 95.1602 20.8095 94.625 20.8095H86.5C85.9648 20.8095 85.4512 21.0044 85.0708 21.352C84.6905 21.6996 84.4741 22.1717 84.4688 22.6658V25.8814C84.4714 26.377 84.6866 26.8515 85.0673 27.2011C85.4479 27.5508 85.963 27.747 86.5 27.747H86.9875C86.9773 27.9064 86.9672 28.0658 86.957 28.2345C86.9469 28.4033 86.9367 28.572 86.9266 28.7314C86.9062 29.0876 86.8859 29.4439 86.8758 29.8001L86.8453 30.4189C86.8352 30.7751 86.8148 31.1314 86.8047 31.497C86.7945 31.722 86.7844 31.947 86.7844 32.1814C86.7742 32.3783 86.7641 32.5658 86.7641 32.772H61.1094C60.8455 32.7765 60.5905 32.6844 60.4002 32.5157C60.2098 32.347 60.0996 32.1155 60.0938 31.872V13.4595C60.0996 13.216 60.2098 12.9845 60.4002 12.8158C60.5905 12.6472 60.8455 12.555 61.1094 12.5595H104.781C105.045 12.555 105.3 12.6472 105.49 12.8158C105.681 12.9845 105.791 13.216 105.797 13.4595V31.872ZM109.859 34.6283C109.854 35.3358 109.626 36.0265 109.202 36.616C108.778 37.2055 108.177 37.668 107.473 37.947V36.2876C107.471 35.8929 107.383 35.5026 107.213 35.1401C107.044 34.7776 106.797 34.4505 106.488 34.1783C106.897 33.9229 107.233 33.5796 107.466 33.1778C107.7 32.7761 107.824 32.3279 107.828 31.872V13.4595C107.821 12.7192 107.496 12.0117 106.925 11.4917C106.354 10.9717 105.583 10.6815 104.781 10.6845H61.1094C60.3073 10.6815 59.5366 10.9717 58.9657 11.4917C58.3947 12.0117 58.07 12.7192 58.0625 13.4595V31.872C58.07 32.6123 58.3947 33.3198 58.9657 33.8398C59.5366 34.3598 60.3073 34.65 61.1094 34.647H86.7133C86.6727 36.1751 86.632 37.6939 86.6117 39.222C86.6016 40.0939 86.5812 40.9658 86.5711 41.8283C86.5102 41.6689 86.4391 41.5095 86.368 41.3314C86.2969 41.172 86.2258 41.0033 86.1648 40.8439C86.0113 40.4211 85.8141 40.013 85.5758 39.6251C85.2299 39.1209 84.7361 38.7176 84.1519 38.4621C83.5676 38.2065 82.9168 38.1092 82.275 38.1814C82.0952 38.202 81.9183 38.2397 81.7469 38.2939H60.0938C59.5662 38.2994 59.0427 38.2091 58.5531 38.0278C58.0634 37.8466 57.6172 37.5782 57.24 37.2378C56.8627 36.8974 56.5618 36.4917 56.3544 36.044C56.147 35.5963 56.0372 35.1152 56.0312 34.6283V12.5408C56.0372 12.0538 56.147 11.5728 56.3544 11.125C56.5618 10.6773 56.8627 10.2716 57.24 9.93122C57.6172 9.59083 58.0634 9.32236 58.5531 9.14116C59.0427 8.95995 59.5662 8.86956 60.0938 8.87513H105.797C106.324 8.86956 106.848 8.95995 107.338 9.14116C107.827 9.32236 108.273 9.59083 108.651 9.93122C109.028 10.2716 109.329 10.6773 109.536 11.125C109.744 11.5728 109.853 12.0538 109.859 12.5408V34.6283Z" fill="#1B6930"/>
<path d="M84.4688 36.4751C84.4688 36.7237 84.3617 36.9622 84.1713 37.138C83.9808 37.3138 83.7225 37.4126 83.4531 37.4126H81.4219C81.1525 37.4126 80.8942 37.3138 80.7037 37.138C80.5133 36.9622 80.4062 36.7237 80.4062 36.4751C80.4062 36.2265 80.5133 35.988 80.7037 35.8122C80.8942 35.6364 81.1525 35.5376 81.4219 35.5376H83.4531C83.7225 35.5376 83.9808 35.6364 84.1713 35.8122C84.3617 35.988 84.4688 36.2265 84.4688 36.4751Z" fill="#1B6930"/>
<path d="M71.2656 17.1439C71.2656 17.3926 71.1586 17.631 70.9682 17.8068C70.7777 17.9826 70.5194 18.0814 70.25 18.0814H65.1719C64.9025 18.0814 64.6442 17.9826 64.4537 17.8068C64.2633 17.631 64.1562 17.3926 64.1562 17.1439C64.1562 16.8953 64.2633 16.6568 64.4537 16.481C64.6442 16.3052 64.9025 16.2064 65.1719 16.2064H70.25C70.5194 16.2064 70.7777 16.3052 70.9682 16.481C71.1586 16.6568 71.2656 16.8953 71.2656 17.1439Z" fill="#1B6930"/>
<path d="M71.2656 22.6658C71.2656 22.9144 71.1586 23.1529 70.9682 23.3287C70.7777 23.5045 70.5194 23.6033 70.25 23.6033H65.1719C64.9025 23.6033 64.6442 23.5045 64.4537 23.3287C64.2633 23.1529 64.1562 22.9144 64.1562 22.6658C64.1562 22.4171 64.2633 22.1787 64.4537 22.0029C64.6442 21.827 64.9025 21.7283 65.1719 21.7283H70.25C70.5194 21.7283 70.7777 21.827 70.9682 22.0029C71.1586 22.1787 71.2656 22.4171 71.2656 22.6658Z" fill="#1B6930"/>
<path d="M71.2656 28.1876C71.2656 28.4363 71.1586 28.6747 70.9682 28.8505C70.7777 29.0263 70.5194 29.1251 70.25 29.1251H65.1719C64.9025 29.1251 64.6442 29.0263 64.4537 28.8505C64.2633 28.6747 64.1562 28.4363 64.1562 28.1876C64.1562 27.939 64.2633 27.7005 64.4537 27.5247C64.6442 27.3489 64.9025 27.2501 65.1719 27.2501H70.25C70.5194 27.2501 70.7777 27.3489 70.9682 27.5247C71.1586 27.7005 71.2656 27.939 71.2656 28.1876Z" fill="#1B6930"/>
<path d="M81.1172 15.972L78.0704 18.7282C77.8818 18.9023 77.6261 19.0001 77.3594 19.0001C77.0928 19.0001 76.837 18.9023 76.6485 18.7282L74.6172 16.8907C74.4256 16.715 74.317 16.4764 74.3151 16.227C74.3132 15.9777 74.4181 15.7377 74.6071 15.5595C74.796 15.3836 75.0527 15.2839 75.321 15.2822C75.5893 15.2804 75.8475 15.3767 76.0391 15.5501L77.3594 16.7501L79.6954 14.6314C79.887 14.458 80.1452 14.3617 80.4135 14.3634C80.6818 14.3652 80.9384 14.4649 81.1274 14.6407C81.3163 14.819 81.4213 15.0589 81.4194 15.3083C81.4175 15.5577 81.3089 15.7962 81.1172 15.972Z" fill="#1B6930"/>
<path d="M81.1172 21.4938L78.0703 24.2501C77.8818 24.4241 77.626 24.5219 77.3594 24.5219C77.0927 24.5219 76.837 24.4241 76.6484 24.2501L74.6172 22.4126C74.4246 22.2385 74.3148 22.001 74.3119 21.7522C74.3091 21.5034 74.4134 21.2638 74.602 21.086C74.7905 20.9083 75.0479 20.8069 75.3174 20.8043C75.5869 20.8016 75.8465 20.8979 76.0391 21.072L77.3594 22.272L79.6953 20.1532C79.887 19.9798 80.1451 19.8835 80.4134 19.8853C80.6818 19.887 80.9384 19.9867 81.1274 20.1626C81.3163 20.3408 81.4212 20.5808 81.4193 20.8302C81.4174 21.0795 81.3088 21.3181 81.1172 21.4938Z" fill="#1B6930"/>
<path d="M81.1172 27.0157L78.0703 29.7719C77.8818 29.946 77.626 30.0438 77.3594 30.0438C77.0927 30.0438 76.837 29.946 76.6484 29.7719L74.6172 27.9344C74.4246 27.7604 74.3148 27.5229 74.3119 27.2741C74.3091 27.0253 74.4134 26.7857 74.602 26.6079C74.7905 26.4301 75.0479 26.3287 75.3174 26.3261C75.5869 26.3235 75.8465 26.4198 76.0391 26.5938L77.3594 27.7938L79.6953 25.6751C79.887 25.5017 80.1451 25.4054 80.4134 25.4071C80.6818 25.4089 80.9384 25.5086 81.1274 25.6844C81.3163 25.8627 81.4212 26.1026 81.4193 26.352C81.4174 26.6014 81.3088 26.8399 81.1172 27.0157Z" fill="#1B6930"/>
</svg>
