<svg width="178" height="100" viewBox="0 0 178 100" fill="none" xmlns="http://www.w3.org/2000/svg">
<path d="M44.0373 76V66.13H45.8433V70.246H50.8973V66.13H52.7033V76H50.8973V71.744H45.8433V76H44.0373ZM58.3231 76.14C57.5298 76.14 56.7971 76.042 56.1251 75.846C55.4624 75.6407 54.8931 75.3607 54.4171 75.006L54.9771 73.592C55.2944 73.816 55.6258 74.0073 55.9711 74.166C56.3164 74.3153 56.6851 74.432 57.0771 74.516C57.4691 74.5907 57.8844 74.628 58.3231 74.628C59.0604 74.628 59.5924 74.5067 59.9191 74.264C60.2458 74.0213 60.4091 73.704 60.4091 73.312C60.4091 72.9667 60.2971 72.7053 60.0731 72.528C59.8491 72.3413 59.4478 72.1873 58.8691 72.066L57.2871 71.744C56.3818 71.5573 55.7051 71.2447 55.2571 70.806C54.8091 70.3673 54.5851 69.7793 54.5851 69.042C54.5851 68.426 54.7484 67.8893 55.0751 67.432C55.4018 66.9747 55.8591 66.62 56.4471 66.368C57.0351 66.116 57.7211 65.99 58.5051 65.99C59.2051 65.99 59.8538 66.0927 60.4511 66.298C61.0484 66.494 61.5478 66.7787 61.9491 67.152L61.3891 68.496C60.9878 68.16 60.5491 67.9127 60.0731 67.754C59.5971 67.586 59.0651 67.502 58.4771 67.502C57.8144 67.502 57.2964 67.6327 56.9231 67.894C56.5591 68.146 56.3771 68.496 56.3771 68.944C56.3771 69.2893 56.4891 69.5647 56.7131 69.77C56.9464 69.9753 57.3384 70.134 57.8891 70.246L59.4571 70.554C60.3904 70.7407 61.0811 71.0487 61.5291 71.478C61.9771 71.898 62.2011 72.4673 62.2011 73.186C62.2011 73.774 62.0424 74.292 61.7251 74.74C61.4078 75.1787 60.9598 75.524 60.3811 75.776C59.8024 76.0187 59.1164 76.14 58.3231 76.14ZM68.4945 76.14C67.4679 76.14 66.5859 75.9347 65.8485 75.524C65.1205 75.104 64.5605 74.516 64.1685 73.76C63.7765 72.9947 63.5805 72.094 63.5805 71.058C63.5805 70.022 63.7765 69.126 64.1685 68.37C64.5605 67.614 65.1205 67.0307 65.8485 66.62C66.5859 66.2 67.4679 65.99 68.4945 65.99C69.1852 65.99 69.8059 66.088 70.3565 66.284C70.9165 66.48 71.3972 66.7693 71.7985 67.152L71.2105 68.58C70.7719 68.2253 70.3472 67.9733 69.9365 67.824C69.5352 67.6653 69.0732 67.586 68.5505 67.586C67.5519 67.586 66.7865 67.8893 66.2545 68.496C65.7319 69.0933 65.4705 69.9473 65.4705 71.058C65.4705 72.1687 65.7319 73.0273 66.2545 73.634C66.7865 74.2407 67.5519 74.544 68.5505 74.544C69.0732 74.544 69.5352 74.4693 69.9365 74.32C70.3472 74.1613 70.7719 73.9 71.2105 73.536L71.7985 74.964C71.3972 75.3373 70.9165 75.6267 70.3565 75.832C69.8059 76.0373 69.1852 76.14 68.4945 76.14ZM77.7903 76V74.502H80.0583V67.642H80.9263L78.0143 69.378V67.67L80.5763 66.13H81.8643V74.502H83.9923V76H77.7903ZM88.1029 76.14C87.4962 76.14 86.9362 76.07 86.4229 75.93C85.9189 75.7807 85.4942 75.5753 85.1489 75.314L85.6389 74.138C85.9935 74.3807 86.3855 74.5673 86.8149 74.698C87.2442 74.8287 87.6782 74.894 88.1169 74.894C88.5835 74.894 88.9289 74.8147 89.1529 74.656C89.3862 74.4973 89.5029 74.2827 89.5029 74.012C89.5029 73.7973 89.4282 73.6293 89.2789 73.508C89.1389 73.3773 88.9102 73.2793 88.5929 73.214L87.1929 72.948C86.5955 72.8173 86.1382 72.5933 85.8209 72.276C85.5129 71.9587 85.3589 71.5433 85.3589 71.03C85.3589 70.5913 85.4755 70.204 85.7089 69.868C85.9515 69.532 86.2922 69.2707 86.7309 69.084C87.1789 68.888 87.7015 68.79 88.2989 68.79C88.8215 68.79 89.3115 68.86 89.7689 69C90.2355 69.14 90.6275 69.35 90.9449 69.63L90.4409 70.764C90.1515 70.5307 89.8202 70.3487 89.4469 70.218C89.0735 70.0873 88.7095 70.022 88.3549 70.022C87.8695 70.022 87.5149 70.1107 87.2909 70.288C87.0669 70.456 86.9549 70.6753 86.9549 70.946C86.9549 71.1513 87.0202 71.324 87.1509 71.464C87.2909 71.5947 87.5055 71.6927 87.7949 71.758L89.1949 72.024C89.8202 72.1453 90.2915 72.36 90.6089 72.668C90.9355 72.9667 91.0989 73.3773 91.0989 73.9C91.0989 74.3667 90.9729 74.768 90.7209 75.104C90.4689 75.44 90.1189 75.6967 89.6709 75.874C89.2229 76.0513 88.7002 76.14 88.1029 76.14ZM95.5522 76.14C94.7122 76.14 94.0775 75.9207 93.6482 75.482C93.2188 75.0433 93.0042 74.3853 93.0042 73.508V70.246H91.6462V68.93H93.0042V67.124L94.7542 66.676V68.93H96.6442V70.246H94.7542V73.396C94.7542 73.8813 94.8475 74.222 95.0342 74.418C95.2208 74.614 95.4775 74.712 95.8042 74.712C95.9815 74.712 96.1308 74.698 96.2522 74.67C96.3828 74.642 96.5088 74.6047 96.6302 74.558V75.944C96.4715 76.0093 96.2942 76.056 96.0982 76.084C95.9115 76.1213 95.7295 76.14 95.5522 76.14ZM104.223 76V71.338L104.601 72.416L100.359 66.13H102.445L105.357 70.61H104.965L107.877 66.13H109.893L105.665 72.416L106.029 71.338V76H104.223ZM112.733 76.14C111.548 76.14 110.619 75.8133 109.947 75.16C109.275 74.5067 108.939 73.6107 108.939 72.472C108.939 71.7347 109.084 71.0907 109.373 70.54C109.663 69.9893 110.064 69.56 110.577 69.252C111.1 68.944 111.707 68.79 112.397 68.79C113.079 68.79 113.648 68.9347 114.105 69.224C114.563 69.5133 114.908 69.9193 115.141 70.442C115.384 70.9647 115.505 71.576 115.505 72.276V72.738H110.353V71.814H114.259L114.021 72.01C114.021 71.3567 113.881 70.8573 113.601 70.512C113.331 70.1667 112.934 69.994 112.411 69.994C111.833 69.994 111.385 70.1993 111.067 70.61C110.759 71.0207 110.605 71.5947 110.605 72.332V72.514C110.605 73.2793 110.792 73.8533 111.165 74.236C111.548 74.6093 112.085 74.796 112.775 74.796C113.177 74.796 113.55 74.7447 113.895 74.642C114.25 74.53 114.586 74.3527 114.903 74.11L115.421 75.286C115.085 75.5567 114.684 75.7667 114.217 75.916C113.751 76.0653 113.256 76.14 112.733 76.14ZM119.717 76.14C119.101 76.14 118.56 75.9953 118.093 75.706C117.626 75.4073 117.262 74.9827 117.001 74.432C116.74 73.8813 116.609 73.2233 116.609 72.458C116.609 71.6927 116.74 71.0393 117.001 70.498C117.262 69.9473 117.626 69.5273 118.093 69.238C118.56 68.9393 119.101 68.79 119.717 68.79C120.314 68.79 120.837 68.9393 121.285 69.238C121.742 69.5273 122.046 69.9193 122.195 70.414H122.041L122.195 68.93H123.875C123.847 69.2193 123.819 69.5133 123.791 69.812C123.772 70.1107 123.763 70.4047 123.763 70.694V76H122.027L122.013 74.544H122.181C122.032 75.0293 121.728 75.4167 121.271 75.706C120.814 75.9953 120.296 76.14 119.717 76.14ZM120.207 74.796C120.758 74.796 121.201 74.6047 121.537 74.222C121.873 73.83 122.041 73.242 122.041 72.458C122.041 71.674 121.873 71.0907 121.537 70.708C121.201 70.3253 120.758 70.134 120.207 70.134C119.656 70.134 119.213 70.3253 118.877 70.708C118.541 71.0907 118.373 71.674 118.373 72.458C118.373 73.242 118.536 73.83 118.863 74.222C119.199 74.6047 119.647 74.796 120.207 74.796ZM125.655 76V70.736C125.655 70.4373 125.645 70.134 125.627 69.826C125.617 69.518 125.594 69.2193 125.557 68.93H127.251L127.447 70.862H127.167C127.26 70.3953 127.414 70.008 127.629 69.7C127.853 69.392 128.123 69.1633 128.441 69.014C128.758 68.8647 129.103 68.79 129.477 68.79C129.645 68.79 129.78 68.7993 129.883 68.818C129.985 68.8273 130.088 68.8507 130.191 68.888L130.177 70.428C129.999 70.3533 129.845 70.3067 129.715 70.288C129.593 70.2693 129.439 70.26 129.253 70.26C128.851 70.26 128.511 70.344 128.231 70.512C127.96 70.68 127.755 70.9133 127.615 71.212C127.484 71.5107 127.419 71.8513 127.419 72.234V76H125.655ZM48.6819 97.52C48.2433 96.8293 47.8839 96.1527 47.6039 95.49C47.3333 94.8273 47.1373 94.1553 47.0159 93.474C46.8946 92.7833 46.8339 92.0647 46.8339 91.318C46.8339 90.562 46.8946 89.8433 47.0159 89.162C47.1373 88.4807 47.3333 87.8087 47.6039 87.146C47.8839 86.4833 48.2433 85.8113 48.6819 85.13H50.0819C49.5966 86.2033 49.2326 87.2487 48.9899 88.266C48.7566 89.274 48.6399 90.2913 48.6399 91.318C48.6399 92.3353 48.7566 93.3527 48.9899 94.37C49.2326 95.3873 49.5966 96.4373 50.0819 97.52H48.6819ZM51.5022 95V85.13H53.3082V89.246H58.3622V85.13H60.1682V95H58.3622V90.744H53.3082V95H51.5022ZM64.752 95.14C63.884 95.14 63.2353 94.902 62.806 94.426C62.3766 93.95 62.162 93.222 62.162 92.242V87.93H63.912V92.228C63.912 92.7507 64.0193 93.138 64.234 93.39C64.4486 93.6327 64.7753 93.754 65.214 93.754C65.7086 93.754 66.11 93.586 66.418 93.25C66.7353 92.914 66.894 92.4707 66.894 91.92V87.93H68.644V95H66.936V93.558H67.132C66.9266 94.062 66.614 94.454 66.194 94.734C65.7833 95.0047 65.3026 95.14 64.752 95.14ZM70.5438 95V89.694C70.5438 89.4047 70.5345 89.1107 70.5158 88.812C70.4971 88.5133 70.4691 88.2193 70.4318 87.93H72.1258L72.2658 89.33H72.0978C72.2938 88.8447 72.5925 88.4667 72.9938 88.196C73.4045 87.9253 73.8898 87.79 74.4498 87.79C75.0098 87.79 75.4718 87.9253 75.8358 88.196C76.2091 88.4573 76.4705 88.868 76.6198 89.428H76.3958C76.5918 88.924 76.9138 88.5273 77.3618 88.238C77.8098 87.9393 78.3231 87.79 78.9018 87.79C79.6951 87.79 80.2878 88.0233 80.6798 88.49C81.0718 88.9567 81.2678 89.6847 81.2678 90.674V95H79.5178V90.744C79.5178 90.184 79.4245 89.7827 79.2378 89.54C79.0511 89.288 78.7525 89.162 78.3418 89.162C77.8565 89.162 77.4738 89.3347 77.1938 89.68C76.9138 90.016 76.7738 90.4733 76.7738 91.052V95H75.0238V90.744C75.0238 90.184 74.9305 89.7827 74.7438 89.54C74.5571 89.288 74.2585 89.162 73.8478 89.162C73.3625 89.162 72.9798 89.3347 72.6998 89.68C72.4291 90.016 72.2938 90.4733 72.2938 91.052V95H70.5438ZM85.8656 95.14C85.2496 95.14 84.7083 94.9953 84.2416 94.706C83.7749 94.4073 83.4109 93.9827 83.1496 93.432C82.8883 92.8813 82.7576 92.2233 82.7576 91.458C82.7576 90.6927 82.8883 90.0393 83.1496 89.498C83.4109 88.9473 83.7749 88.5273 84.2416 88.238C84.7083 87.9393 85.2496 87.79 85.8656 87.79C86.4629 87.79 86.9856 87.9393 87.4336 88.238C87.8909 88.5273 88.1943 88.9193 88.3436 89.414H88.1896L88.3436 87.93H90.0236C89.9956 88.2193 89.9676 88.5133 89.9396 88.812C89.9209 89.1107 89.9116 89.4047 89.9116 89.694V95H88.1756L88.1616 93.544H88.3296C88.1803 94.0293 87.8769 94.4167 87.4196 94.706C86.9623 94.9953 86.4443 95.14 85.8656 95.14ZM86.3556 93.796C86.9063 93.796 87.3496 93.6047 87.6856 93.222C88.0216 92.83 88.1896 92.242 88.1896 91.458C88.1896 90.674 88.0216 90.0907 87.6856 89.708C87.3496 89.3253 86.9063 89.134 86.3556 89.134C85.8049 89.134 85.3616 89.3253 85.0256 89.708C84.6896 90.0907 84.5216 90.674 84.5216 91.458C84.5216 92.242 84.6849 92.83 85.0116 93.222C85.3476 93.6047 85.7956 93.796 86.3556 93.796ZM91.8172 95V89.694C91.8172 89.4047 91.8079 89.1107 91.7892 88.812C91.7706 88.5133 91.7426 88.2193 91.7052 87.93H93.3992L93.5392 89.33H93.3712C93.5952 88.8353 93.9266 88.4573 94.3652 88.196C94.8039 87.9253 95.3126 87.79 95.8912 87.79C96.7219 87.79 97.3472 88.0233 97.7672 88.49C98.1872 88.9567 98.3972 89.6847 98.3972 90.674V95H96.6472V90.758C96.6472 90.1887 96.5352 89.7827 96.3112 89.54C96.0966 89.288 95.7699 89.162 95.3312 89.162C94.7899 89.162 94.3606 89.33 94.0432 89.666C93.7259 90.002 93.5672 90.45 93.5672 91.01V95H91.8172ZM100.253 95V87.93H102.003V95H100.253ZM100.155 86.6V84.892H102.101V86.6H100.155ZM106.927 95.14C106.087 95.14 105.453 94.9207 105.023 94.482C104.594 94.0433 104.379 93.3853 104.379 92.508V89.246H103.021V87.93H104.379V86.124L106.129 85.676V87.93H108.019V89.246H106.129V92.396C106.129 92.8813 106.223 93.222 106.409 93.418C106.596 93.614 106.853 93.712 107.179 93.712C107.357 93.712 107.506 93.698 107.627 93.67C107.758 93.642 107.884 93.6047 108.005 93.558V94.944C107.847 95.0093 107.669 95.056 107.473 95.084C107.287 95.1213 107.105 95.14 106.927 95.14ZM109.208 95V87.93H110.958V95H109.208ZM109.11 86.6V84.892H111.056V86.6H109.11ZM116.274 95.14C115.089 95.14 114.16 94.8133 113.488 94.16C112.816 93.5067 112.48 92.6107 112.48 91.472C112.48 90.7347 112.625 90.0907 112.914 89.54C113.204 88.9893 113.605 88.56 114.118 88.252C114.641 87.944 115.248 87.79 115.938 87.79C116.62 87.79 117.189 87.9347 117.646 88.224C118.104 88.5133 118.449 88.9193 118.682 89.442C118.925 89.9647 119.046 90.576 119.046 91.276V91.738H113.894V90.814H117.8L117.562 91.01C117.562 90.3567 117.422 89.8573 117.142 89.512C116.872 89.1667 116.475 88.994 115.952 88.994C115.374 88.994 114.926 89.1993 114.608 89.61C114.3 90.0207 114.146 90.5947 114.146 91.332V91.514C114.146 92.2793 114.333 92.8533 114.706 93.236C115.089 93.6093 115.626 93.796 116.316 93.796C116.718 93.796 117.091 93.7447 117.436 93.642C117.791 93.53 118.127 93.3527 118.444 93.11L118.962 94.286C118.626 94.5567 118.225 94.7667 117.758 94.916C117.292 95.0653 116.797 95.14 116.274 95.14ZM123.048 95.14C122.442 95.14 121.882 95.07 121.368 94.93C120.864 94.7807 120.44 94.5753 120.094 94.314L120.584 93.138C120.939 93.3807 121.331 93.5673 121.76 93.698C122.19 93.8287 122.624 93.894 123.062 93.894C123.529 93.894 123.874 93.8147 124.098 93.656C124.332 93.4973 124.448 93.2827 124.448 93.012C124.448 92.7973 124.374 92.6293 124.224 92.508C124.084 92.3773 123.856 92.2793 123.538 92.214L122.138 91.948C121.541 91.8173 121.084 91.5933 120.766 91.276C120.458 90.9587 120.304 90.5433 120.304 90.03C120.304 89.5913 120.421 89.204 120.654 88.868C120.897 88.532 121.238 88.2707 121.676 88.084C122.124 87.888 122.647 87.79 123.244 87.79C123.767 87.79 124.257 87.86 124.714 88C125.181 88.14 125.573 88.35 125.89 88.63L125.386 89.764C125.097 89.5307 124.766 89.3487 124.392 89.218C124.019 89.0873 123.655 89.022 123.3 89.022C122.815 89.022 122.46 89.1107 122.236 89.288C122.012 89.456 121.9 89.6753 121.9 89.946C121.9 90.1513 121.966 90.324 122.096 90.464C122.236 90.5947 122.451 90.6927 122.74 90.758L124.14 91.024C124.766 91.1453 125.237 91.36 125.554 91.668C125.881 91.9667 126.044 92.3773 126.044 92.9C126.044 93.3667 125.918 93.768 125.666 94.104C125.414 94.44 125.064 94.6967 124.616 94.874C124.168 95.0513 123.646 95.14 123.048 95.14ZM128.312 97.52H126.912C127.397 96.4467 127.757 95.4013 127.99 94.384C128.233 93.3573 128.354 92.3353 128.354 91.318C128.354 90.3007 128.233 89.2833 127.99 88.266C127.757 87.2487 127.397 86.2033 126.912 85.13H128.312C128.76 85.8113 129.119 86.4833 129.39 87.146C129.661 87.8087 129.857 88.4853 129.978 89.176C130.099 89.8573 130.16 90.5713 130.16 91.318C130.16 92.0647 130.099 92.7833 129.978 93.474C129.857 94.1647 129.661 94.8413 129.39 95.504C129.119 96.1667 128.76 96.8387 128.312 97.52Z" fill="#202244" fill-opacity="0.8"/>
<g clip-path="url(#clip0_3_484)">
<path d="M88.3581 9.93177C87.3823 9.93746 86.4184 10.0176 85.466 10.167C85.3208 10.1898 85.176 10.214 85.0314 10.24C76.1433 11.512 69.008 17.746 66.9739 25.8157C66.5864 27.1725 66.3767 28.5686 66.3779 29.984C66.3779 29.9845 66.3779 29.9848 66.3779 29.9854C66.3789 30.1496 66.3836 30.3124 66.3899 30.4746C66.3899 30.4946 66.3891 30.5144 66.3891 30.5344C66.393 36.8251 69.4843 42.7297 74.7084 46.6004C78.5365 49.6829 76.86 54.5895 78.3201 58.5841C78.9465 58.7665 79.5809 58.9326 80.2229 59.0813C80.62 59.1733 81.0204 59.2579 81.4231 59.3366C81.4025 56.7565 81.7607 51.701 81.0224 49.1786V49.1785C81.6393 49.3821 82.2657 49.5609 82.8999 49.7144C83.1702 51.0008 83.2793 52.4616 83.3055 53.8949C83.3088 54.0739 83.3108 54.2525 83.3117 54.4302C83.3125 54.6081 83.3124 54.7852 83.3109 54.9611C83.2989 56.7179 83.1899 58.3511 83.1407 59.464C83.1406 59.4644 83.1407 59.4647 83.1407 59.4653C83.1381 59.5224 83.1363 59.574 83.1341 59.6283C83.4933 59.6805 83.8542 59.7278 84.2172 59.7693C84.8966 59.8471 85.5824 59.9061 86.274 59.9456C86.7728 59.974 87.2747 59.992 87.7793 60C87.7681 56.8571 87.7121 53.6429 87.642 50.3743C87.9708 50.3959 88.3002 50.4109 88.6297 50.4193C89.0147 50.4159 89.3995 50.4035 89.7837 50.3821C89.7147 53.6557 89.6583 56.8692 89.6435 59.9911C90.0058 59.9811 90.3666 59.9661 90.7259 59.9456C91.4175 59.9061 92.1033 59.8471 92.7827 59.7693C93.282 59.7122 93.7777 59.6447 94.2698 59.5674C94.2279 58.5604 94.1307 57.101 94.1028 55.4802C94.0999 55.3087 94.0977 55.1356 94.0965 54.9612C94.0965 54.9598 94.0965 54.9583 94.0965 54.9568C94.0947 54.6812 94.0958 54.4021 94.0995 54.122C94.1005 54.0463 94.1008 53.9709 94.1022 53.8951C94.1055 53.716 94.11 53.5365 94.116 53.357C94.1581 52.0933 94.2719 50.8281 94.5107 49.6982C95.1482 49.537 95.7775 49.3501 96.3968 49.138C96.3968 49.1379 96.3969 49.1378 96.3969 49.1376V49.138H96.3968C95.6509 51.6202 95.9979 56.6361 95.9854 59.2543C96.2503 59.1993 96.5144 59.1421 96.7769 59.0813C97.4189 58.9326 98.0534 58.7665 98.6798 58.5841C100.14 54.5895 98.4633 49.6829 102.291 46.6004C107.516 42.7297 110.607 36.8251 110.611 30.5344C110.611 30.5144 110.61 30.4946 110.61 30.4746C110.616 30.3124 110.621 30.1496 110.622 29.9854C110.622 29.9849 110.622 29.9847 110.622 29.984C110.623 28.5686 110.414 27.1725 110.026 25.8157C107.992 17.746 100.857 11.512 91.9685 10.2399C91.8239 10.214 91.679 10.1898 91.5339 10.167C90.5815 10.0176 89.6176 9.93742 88.6418 9.93176C88.5945 9.93176 88.5472 9.93236 88.4999 9.93243C88.4527 9.93243 88.4053 9.93177 88.3581 9.93177ZM96.124 16.4527C96.5715 16.4469 97.0228 16.4921 97.4696 16.5943C100.603 17.1081 102.777 20.1205 102.177 22.9385C102.263 24.3475 100.227 25.688 100.618 26.8112C102.294 26.9377 104.311 26.6082 105.523 27.9441C106.447 28.7983 106.477 29.9441 106.449 31.0825C106.286 33.7184 105.426 36.2796 103.942 38.5484V29.858C103.129 28.6486 101.331 29.3373 100.065 29.1164C98.0445 29.1177 97.427 26.7287 98.2077 25.3516C98.9945 23.9952 100.291 22.5291 99.5424 20.9097C98.7973 18.765 95.4401 18.0228 93.7503 19.6961C92.3645 20.865 92.4889 22.8401 93.4765 24.1903C94.7744 25.9987 94.8966 28.4469 93.6805 30.3131C92.7625 31.4725 91.5239 32.3769 90.4238 33.3873C89.6033 31.8362 90.721 30.269 91.5922 28.978C92.8074 27.0629 91.217 24.3696 88.7934 24.2204C86.2836 23.948 84.2104 26.5632 85.2092 28.657C86.0091 30.0698 87.399 31.6004 86.5947 33.2767C86.0105 34.8779 83.96 34.5717 82.5085 34.6151C79.643 34.6605 81.6346 40.6436 82.4166 42.8104C86.6571 44.3504 90.672 44.2075 94.5187 42.8104L95.6977 35.4351L96.9901 34.2454L98.2698 35.3929L96.8313 44.6847C94.2534 45.9153 91.3863 46.5597 88.4749 46.5627C85.4287 46.5614 82.7062 45.8579 80.0399 44.518C79.2043 40.6601 78.2843 37.9897 78.2925 34.9543C78.6386 33.393 80.2733 32.2191 82.0366 32.3396C83.0496 32.3306 85.1925 32.6018 83.8715 31.1952C82.3704 29.3634 81.9002 26.7611 83.2013 24.7283C83.5359 23.8957 84.3109 23.1705 84.2446 22.2428C84.5838 20.0059 81.7789 18.0702 79.5043 18.9857C77.4168 19.6474 76.5312 22.1789 77.8204 23.8188C78.7179 25.0051 79.5275 26.53 78.8036 27.9568C78.4097 28.7946 77.4301 29.254 76.4629 29.1257C75.4521 29.1934 74.3674 29.0091 73.426 29.3835C72.7388 29.871 73.1316 30.7065 73.0294 31.3773V38.5841C71.6194 36.4468 70.7637 34.0452 70.5274 31.5619C70.5443 30.6906 70.5742 29.9126 70.6251 29.3205C71.0262 27.5982 73.081 26.6859 74.8924 26.8567C75.8295 26.945 77.3408 26.9703 76.1812 25.816C74.8804 24.1954 74.2703 22.046 75.0607 20.1142C76.0913 17.2309 79.9878 15.6745 83.0329 16.8786C85.3173 17.6886 86.8955 19.8812 86.7759 22.1103C87.8602 21.7608 89.3343 22.1128 90.1846 21.9675C90.0498 19.0335 92.9918 16.4938 96.124 16.4527Z" fill="#88B2FB"/>
<path d="M90.4922 0.0629327L89.9959 6.70587C89.4529 6.6743 89.0518 6.65789 88.5001 6.65763C87.9484 6.65763 87.5472 6.6743 87.0041 6.70587L86.5079 0.0629327C87.9325 -0.0221552 89.0758 -0.0197916 90.4922 0.0629327ZM100.488 2.04366C101.671 2.46443 102.822 2.94619 103.934 3.48381L103.928 3.4937C103.957 3.50789 103.987 3.52168 104.016 3.53596L100.484 9.37085C99.6511 8.968 98.7913 8.60534 97.9071 8.2866L97.9102 8.27932C97.8737 8.26618 97.8374 8.25265 97.8007 8.23966L100.488 2.04366ZM76.5124 2.04366L79.1994 8.23966C79.1627 8.25265 79.1264 8.26618 79.0898 8.27932L79.093 8.2866C78.2088 8.60534 77.349 8.968 76.5162 9.37085L72.9837 3.53596C73.013 3.52168 73.0426 3.50789 73.0719 3.4937L73.0659 3.48381C74.1785 2.94619 75.3287 2.46443 76.5124 2.04366ZM112.246 9.19218C113.124 10.0219 113.95 10.8976 114.719 11.8148L114.702 11.8262C114.707 11.8329 114.713 11.8395 114.719 11.8462L108.822 15.7971C108.245 15.1131 107.627 14.4591 106.972 13.8377L106.986 13.8259C106.974 13.815 106.963 13.8038 106.951 13.7929L112.246 9.19218ZM64.7538 9.19218L70.0487 13.7929C70.0371 13.8038 70.0258 13.815 70.0142 13.8259L70.0278 13.8377C69.3729 14.4591 68.7551 15.1131 68.1783 15.7971L62.2815 11.8462C62.2871 11.8395 62.2929 11.8329 62.2985 11.8262L62.2815 11.8148C63.0504 10.8976 63.876 10.0219 64.7538 9.19218Z" fill="#88B2FB"/>
<path d="M56.8043 21.8712C56.471 22.941 56.2019 24.0351 56 25.1498L63.2424 26.1252C63.3974 25.2934 63.6004 24.4763 63.8497 23.6768L56.8043 21.8712ZM120.196 21.8712L113.15 23.6769C113.4 24.4764 113.603 25.2934 113.758 26.1252L121 25.1497C120.798 24.0351 120.529 22.9409 120.196 21.8712ZM63.3936 34.6935L56.2177 36.01C56.4728 37.1558 56.7998 38.2779 57.1943 39.3724L64.1289 37.2355C63.8331 36.4075 63.5869 35.5592 63.3936 34.6935ZM113.606 34.6935C113.413 35.5593 113.167 36.4076 112.871 37.2356L119.806 39.3724C120.2 38.2779 120.527 37.1558 120.782 36.01L113.606 34.6935ZM67.8708 43.8486L61.8997 47.7036C62.6333 48.6157 63.4218 49.489 64.2616 50.3189L69.6447 45.804C69.0157 45.1824 68.4234 44.5297 67.8708 43.8486ZM109.129 43.8486C108.577 44.5297 107.984 45.1823 107.355 45.8039L112.738 50.3189C113.578 49.489 114.367 48.6157 115.1 47.7036L109.129 43.8486Z" fill="#88B2FB"/>
</g>
<defs>
<clipPath id="clip0_3_484">
<rect width="65" height="60" fill="white" transform="translate(56)"/>
</clipPath>
</defs>
</svg>
