<svg width="178" height="99" viewBox="0 0 178 99" fill="none" xmlns="http://www.w3.org/2000/svg">
<path d="M41.6037 76V66.13H43.4097V70.246H48.4637V66.13H50.2697V76H48.4637V71.744H43.4097V76H41.6037ZM55.8895 76.14C55.0962 76.14 54.3635 76.042 53.6915 75.846C53.0288 75.6407 52.4595 75.3607 51.9835 75.006L52.5435 73.592C52.8608 73.816 53.1922 74.0073 53.5375 74.166C53.8828 74.3153 54.2515 74.432 54.6435 74.516C55.0355 74.5907 55.4508 74.628 55.8895 74.628C56.6268 74.628 57.1588 74.5067 57.4855 74.264C57.8122 74.0213 57.9755 73.704 57.9755 73.312C57.9755 72.9667 57.8635 72.7053 57.6395 72.528C57.4155 72.3413 57.0142 72.1873 56.4355 72.066L54.8535 71.744C53.9482 71.5573 53.2715 71.2447 52.8235 70.806C52.3755 70.3673 52.1515 69.7793 52.1515 69.042C52.1515 68.426 52.3148 67.8893 52.6415 67.432C52.9682 66.9747 53.4255 66.62 54.0135 66.368C54.6015 66.116 55.2875 65.99 56.0715 65.99C56.7715 65.99 57.4202 66.0927 58.0175 66.298C58.6148 66.494 59.1142 66.7787 59.5155 67.152L58.9555 68.496C58.5542 68.16 58.1155 67.9127 57.6395 67.754C57.1635 67.586 56.6315 67.502 56.0435 67.502C55.3808 67.502 54.8628 67.6327 54.4895 67.894C54.1255 68.146 53.9435 68.496 53.9435 68.944C53.9435 69.2893 54.0555 69.5647 54.2795 69.77C54.5128 69.9753 54.9048 70.134 55.4555 70.246L57.0235 70.554C57.9568 70.7407 58.6475 71.0487 59.0955 71.478C59.5435 71.898 59.7675 72.4673 59.7675 73.186C59.7675 73.774 59.6088 74.292 59.2915 74.74C58.9742 75.1787 58.5262 75.524 57.9475 75.776C57.3688 76.0187 56.6828 76.14 55.8895 76.14ZM66.061 76.14C65.0343 76.14 64.1523 75.9347 63.415 75.524C62.687 75.104 62.127 74.516 61.735 73.76C61.343 72.9947 61.147 72.094 61.147 71.058C61.147 70.022 61.343 69.126 61.735 68.37C62.127 67.614 62.687 67.0307 63.415 66.62C64.1523 66.2 65.0343 65.99 66.061 65.99C66.7516 65.99 67.3723 66.088 67.923 66.284C68.483 66.48 68.9636 66.7693 69.365 67.152L68.777 68.58C68.3383 68.2253 67.9136 67.9733 67.503 67.824C67.1016 67.6653 66.6396 67.586 66.117 67.586C65.1183 67.586 64.353 67.8893 63.821 68.496C63.2983 69.0933 63.037 69.9473 63.037 71.058C63.037 72.1687 63.2983 73.0273 63.821 73.634C64.353 74.2407 65.1183 74.544 66.117 74.544C66.6396 74.544 67.1016 74.4693 67.503 74.32C67.9136 74.1613 68.3383 73.9 68.777 73.536L69.365 74.964C68.9636 75.3373 68.483 75.6267 67.923 75.832C67.3723 76.0373 66.7516 76.14 66.061 76.14ZM74.8947 76V74.67L78.1707 71.254C78.5814 70.8247 78.8847 70.428 79.0807 70.064C79.2767 69.7 79.3747 69.3267 79.3747 68.944C79.3747 68.468 79.2254 68.1087 78.9267 67.866C78.6281 67.6233 78.1941 67.502 77.6247 67.502C77.1674 67.502 76.7287 67.586 76.3087 67.754C75.8887 67.9127 75.4781 68.1647 75.0767 68.51L74.4887 67.166C74.8901 66.8113 75.3847 66.5267 75.9727 66.312C76.5701 66.0973 77.1954 65.99 77.8487 65.99C78.9127 65.99 79.7294 66.228 80.2987 66.704C80.8681 67.18 81.1527 67.8613 81.1527 68.748C81.1527 69.364 81.0081 69.952 80.7187 70.512C80.4294 71.0627 79.9814 71.6413 79.3747 72.248L76.6447 74.978V74.502H81.5447V76H74.8947ZM83.1493 76V70.694C83.1493 70.4047 83.1399 70.1107 83.1213 69.812C83.1026 69.5133 83.0746 69.2193 83.0373 68.93H84.7313L84.8713 70.33H84.7033C84.9273 69.8353 85.2586 69.4573 85.6973 69.196C86.1359 68.9253 86.6446 68.79 87.2233 68.79C88.0539 68.79 88.6793 69.0233 89.0993 69.49C89.5193 69.9567 89.7293 70.6847 89.7293 71.674V76H87.9793V71.758C87.9793 71.1887 87.8673 70.7827 87.6433 70.54C87.4286 70.288 87.1019 70.162 86.6633 70.162C86.1219 70.162 85.6926 70.33 85.3753 70.666C85.0579 71.002 84.8993 71.45 84.8993 72.01V76H83.1493ZM94.3288 76.14C93.7128 76.14 93.1668 75.9953 92.6908 75.706C92.2241 75.4073 91.8601 74.9827 91.5988 74.432C91.3375 73.8813 91.2068 73.2233 91.2068 72.458C91.2068 71.6927 91.3375 71.0393 91.5988 70.498C91.8601 69.9473 92.2241 69.5273 92.6908 69.238C93.1668 68.9393 93.7128 68.79 94.3288 68.79C94.9168 68.79 95.4348 68.9347 95.8828 69.224C96.3401 69.504 96.6435 69.8867 96.7928 70.372H96.6108V65.696H98.3608V76H96.6388V74.502H96.8068C96.6575 75.006 96.3541 75.4073 95.8968 75.706C95.4488 75.9953 94.9261 76.14 94.3288 76.14ZM94.8188 74.796C95.3695 74.796 95.8128 74.6047 96.1488 74.222C96.4848 73.83 96.6528 73.242 96.6528 72.458C96.6528 71.674 96.4848 71.0907 96.1488 70.708C95.8128 70.3253 95.3695 70.134 94.8188 70.134C94.2681 70.134 93.8201 70.3253 93.4748 70.708C93.1388 71.0907 92.9708 71.674 92.9708 72.458C92.9708 73.242 93.1388 73.83 93.4748 74.222C93.8201 74.6047 94.2681 74.796 94.8188 74.796ZM106.656 76V71.338L107.034 72.416L102.792 66.13H104.878L107.79 70.61H107.398L110.31 66.13H112.326L108.098 72.416L108.462 71.338V76H106.656ZM115.167 76.14C113.981 76.14 113.053 75.8133 112.381 75.16C111.709 74.5067 111.373 73.6107 111.373 72.472C111.373 71.7347 111.517 71.0907 111.807 70.54C112.096 69.9893 112.497 69.56 113.011 69.252C113.533 68.944 114.14 68.79 114.831 68.79C115.512 68.79 116.081 68.9347 116.539 69.224C116.996 69.5133 117.341 69.9193 117.575 70.442C117.817 70.9647 117.939 71.576 117.939 72.276V72.738H112.787V71.814H116.693L116.455 72.01C116.455 71.3567 116.315 70.8573 116.035 70.512C115.764 70.1667 115.367 69.994 114.845 69.994C114.266 69.994 113.818 70.1993 113.501 70.61C113.193 71.0207 113.039 71.5947 113.039 72.332V72.514C113.039 73.2793 113.225 73.8533 113.599 74.236C113.981 74.6093 114.518 74.796 115.209 74.796C115.61 74.796 115.983 74.7447 116.329 74.642C116.683 74.53 117.019 74.3527 117.337 74.11L117.855 75.286C117.519 75.5567 117.117 75.7667 116.651 75.916C116.184 76.0653 115.689 76.14 115.167 76.14ZM122.151 76.14C121.535 76.14 120.993 75.9953 120.527 75.706C120.06 75.4073 119.696 74.9827 119.435 74.432C119.173 73.8813 119.043 73.2233 119.043 72.458C119.043 71.6927 119.173 71.0393 119.435 70.498C119.696 69.9473 120.06 69.5273 120.527 69.238C120.993 68.9393 121.535 68.79 122.151 68.79C122.748 68.79 123.271 68.9393 123.719 69.238C124.176 69.5273 124.479 69.9193 124.629 70.414H124.475L124.629 68.93H126.309C126.281 69.2193 126.253 69.5133 126.225 69.812C126.206 70.1107 126.197 70.4047 126.197 70.694V76H124.461L124.447 74.544H124.615C124.465 75.0293 124.162 75.4167 123.705 75.706C123.247 75.9953 122.729 76.14 122.151 76.14ZM122.641 74.796C123.191 74.796 123.635 74.6047 123.971 74.222C124.307 73.83 124.475 73.242 124.475 72.458C124.475 71.674 124.307 71.0907 123.971 70.708C123.635 70.3253 123.191 70.134 122.641 70.134C122.09 70.134 121.647 70.3253 121.311 70.708C120.975 71.0907 120.807 71.674 120.807 72.458C120.807 73.242 120.97 73.83 121.297 74.222C121.633 74.6047 122.081 74.796 122.641 74.796ZM128.088 76V70.736C128.088 70.4373 128.079 70.134 128.06 69.826C128.051 69.518 128.028 69.2193 127.99 68.93H129.684L129.88 70.862H129.6C129.694 70.3953 129.848 70.008 130.062 69.7C130.286 69.392 130.557 69.1633 130.874 69.014C131.192 68.8647 131.537 68.79 131.91 68.79C132.078 68.79 132.214 68.7993 132.316 68.818C132.419 68.8273 132.522 68.8507 132.624 68.888L132.61 70.428C132.433 70.3533 132.279 70.3067 132.148 70.288C132.027 70.2693 131.873 70.26 131.686 70.26C131.285 70.26 130.944 70.344 130.664 70.512C130.394 70.68 130.188 70.9133 130.048 71.212C129.918 71.5107 129.852 71.8513 129.852 72.234V76H128.088ZM48.6819 97.52C48.2433 96.8293 47.8839 96.1527 47.6039 95.49C47.3333 94.8273 47.1373 94.1553 47.0159 93.474C46.8946 92.7833 46.8339 92.0647 46.8339 91.318C46.8339 90.562 46.8946 89.8433 47.0159 89.162C47.1373 88.4807 47.3333 87.8087 47.6039 87.146C47.8839 86.4833 48.2433 85.8113 48.6819 85.13H50.0819C49.5966 86.2033 49.2326 87.2487 48.9899 88.266C48.7566 89.274 48.6399 90.2913 48.6399 91.318C48.6399 92.3353 48.7566 93.3527 48.9899 94.37C49.2326 95.3873 49.5966 96.4373 50.0819 97.52H48.6819ZM51.5022 95V85.13H53.3082V89.246H58.3622V85.13H60.1682V95H58.3622V90.744H53.3082V95H51.5022ZM64.752 95.14C63.884 95.14 63.2353 94.902 62.806 94.426C62.3766 93.95 62.162 93.222 62.162 92.242V87.93H63.912V92.228C63.912 92.7507 64.0193 93.138 64.234 93.39C64.4486 93.6327 64.7753 93.754 65.214 93.754C65.7086 93.754 66.11 93.586 66.418 93.25C66.7353 92.914 66.894 92.4707 66.894 91.92V87.93H68.644V95H66.936V93.558H67.132C66.9266 94.062 66.614 94.454 66.194 94.734C65.7833 95.0047 65.3026 95.14 64.752 95.14ZM70.5438 95V89.694C70.5438 89.4047 70.5345 89.1107 70.5158 88.812C70.4971 88.5133 70.4691 88.2193 70.4318 87.93H72.1258L72.2658 89.33H72.0978C72.2938 88.8447 72.5925 88.4667 72.9938 88.196C73.4045 87.9253 73.8898 87.79 74.4498 87.79C75.0098 87.79 75.4718 87.9253 75.8358 88.196C76.2091 88.4573 76.4705 88.868 76.6198 89.428H76.3958C76.5918 88.924 76.9138 88.5273 77.3618 88.238C77.8098 87.9393 78.3231 87.79 78.9018 87.79C79.6951 87.79 80.2878 88.0233 80.6798 88.49C81.0718 88.9567 81.2678 89.6847 81.2678 90.674V95H79.5178V90.744C79.5178 90.184 79.4245 89.7827 79.2378 89.54C79.0511 89.288 78.7525 89.162 78.3418 89.162C77.8565 89.162 77.4738 89.3347 77.1938 89.68C76.9138 90.016 76.7738 90.4733 76.7738 91.052V95H75.0238V90.744C75.0238 90.184 74.9305 89.7827 74.7438 89.54C74.5571 89.288 74.2585 89.162 73.8478 89.162C73.3625 89.162 72.9798 89.3347 72.6998 89.68C72.4291 90.016 72.2938 90.4733 72.2938 91.052V95H70.5438ZM85.8656 95.14C85.2496 95.14 84.7083 94.9953 84.2416 94.706C83.7749 94.4073 83.4109 93.9827 83.1496 93.432C82.8883 92.8813 82.7576 92.2233 82.7576 91.458C82.7576 90.6927 82.8883 90.0393 83.1496 89.498C83.4109 88.9473 83.7749 88.5273 84.2416 88.238C84.7083 87.9393 85.2496 87.79 85.8656 87.79C86.4629 87.79 86.9856 87.9393 87.4336 88.238C87.8909 88.5273 88.1943 88.9193 88.3436 89.414H88.1896L88.3436 87.93H90.0236C89.9956 88.2193 89.9676 88.5133 89.9396 88.812C89.9209 89.1107 89.9116 89.4047 89.9116 89.694V95H88.1756L88.1616 93.544H88.3296C88.1803 94.0293 87.8769 94.4167 87.4196 94.706C86.9623 94.9953 86.4443 95.14 85.8656 95.14ZM86.3556 93.796C86.9063 93.796 87.3496 93.6047 87.6856 93.222C88.0216 92.83 88.1896 92.242 88.1896 91.458C88.1896 90.674 88.0216 90.0907 87.6856 89.708C87.3496 89.3253 86.9063 89.134 86.3556 89.134C85.8049 89.134 85.3616 89.3253 85.0256 89.708C84.6896 90.0907 84.5216 90.674 84.5216 91.458C84.5216 92.242 84.6849 92.83 85.0116 93.222C85.3476 93.6047 85.7956 93.796 86.3556 93.796ZM91.8172 95V89.694C91.8172 89.4047 91.8079 89.1107 91.7892 88.812C91.7706 88.5133 91.7426 88.2193 91.7052 87.93H93.3992L93.5392 89.33H93.3712C93.5952 88.8353 93.9266 88.4573 94.3652 88.196C94.8039 87.9253 95.3126 87.79 95.8912 87.79C96.7219 87.79 97.3472 88.0233 97.7672 88.49C98.1872 88.9567 98.3972 89.6847 98.3972 90.674V95H96.6472V90.758C96.6472 90.1887 96.5352 89.7827 96.3112 89.54C96.0966 89.288 95.7699 89.162 95.3312 89.162C94.7899 89.162 94.3606 89.33 94.0432 89.666C93.7259 90.002 93.5672 90.45 93.5672 91.01V95H91.8172ZM100.253 95V87.93H102.003V95H100.253ZM100.155 86.6V84.892H102.101V86.6H100.155ZM106.927 95.14C106.087 95.14 105.453 94.9207 105.023 94.482C104.594 94.0433 104.379 93.3853 104.379 92.508V89.246H103.021V87.93H104.379V86.124L106.129 85.676V87.93H108.019V89.246H106.129V92.396C106.129 92.8813 106.223 93.222 106.409 93.418C106.596 93.614 106.853 93.712 107.179 93.712C107.357 93.712 107.506 93.698 107.627 93.67C107.758 93.642 107.884 93.6047 108.005 93.558V94.944C107.847 95.0093 107.669 95.056 107.473 95.084C107.287 95.1213 107.105 95.14 106.927 95.14ZM109.208 95V87.93H110.958V95H109.208ZM109.11 86.6V84.892H111.056V86.6H109.11ZM116.274 95.14C115.089 95.14 114.16 94.8133 113.488 94.16C112.816 93.5067 112.48 92.6107 112.48 91.472C112.48 90.7347 112.625 90.0907 112.914 89.54C113.204 88.9893 113.605 88.56 114.118 88.252C114.641 87.944 115.248 87.79 115.938 87.79C116.62 87.79 117.189 87.9347 117.646 88.224C118.104 88.5133 118.449 88.9193 118.682 89.442C118.925 89.9647 119.046 90.576 119.046 91.276V91.738H113.894V90.814H117.8L117.562 91.01C117.562 90.3567 117.422 89.8573 117.142 89.512C116.872 89.1667 116.475 88.994 115.952 88.994C115.374 88.994 114.926 89.1993 114.608 89.61C114.3 90.0207 114.146 90.5947 114.146 91.332V91.514C114.146 92.2793 114.333 92.8533 114.706 93.236C115.089 93.6093 115.626 93.796 116.316 93.796C116.718 93.796 117.091 93.7447 117.436 93.642C117.791 93.53 118.127 93.3527 118.444 93.11L118.962 94.286C118.626 94.5567 118.225 94.7667 117.758 94.916C117.292 95.0653 116.797 95.14 116.274 95.14ZM123.048 95.14C122.442 95.14 121.882 95.07 121.368 94.93C120.864 94.7807 120.44 94.5753 120.094 94.314L120.584 93.138C120.939 93.3807 121.331 93.5673 121.76 93.698C122.19 93.8287 122.624 93.894 123.062 93.894C123.529 93.894 123.874 93.8147 124.098 93.656C124.332 93.4973 124.448 93.2827 124.448 93.012C124.448 92.7973 124.374 92.6293 124.224 92.508C124.084 92.3773 123.856 92.2793 123.538 92.214L122.138 91.948C121.541 91.8173 121.084 91.5933 120.766 91.276C120.458 90.9587 120.304 90.5433 120.304 90.03C120.304 89.5913 120.421 89.204 120.654 88.868C120.897 88.532 121.238 88.2707 121.676 88.084C122.124 87.888 122.647 87.79 123.244 87.79C123.767 87.79 124.257 87.86 124.714 88C125.181 88.14 125.573 88.35 125.89 88.63L125.386 89.764C125.097 89.5307 124.766 89.3487 124.392 89.218C124.019 89.0873 123.655 89.022 123.3 89.022C122.815 89.022 122.46 89.1107 122.236 89.288C122.012 89.456 121.9 89.6753 121.9 89.946C121.9 90.1513 121.966 90.324 122.096 90.464C122.236 90.5947 122.451 90.6927 122.74 90.758L124.14 91.024C124.766 91.1453 125.237 91.36 125.554 91.668C125.881 91.9667 126.044 92.3773 126.044 92.9C126.044 93.3667 125.918 93.768 125.666 94.104C125.414 94.44 125.064 94.6967 124.616 94.874C124.168 95.0513 123.646 95.14 123.048 95.14ZM128.312 97.52H126.912C127.397 96.4467 127.757 95.4013 127.99 94.384C128.233 93.3573 128.354 92.3353 128.354 91.318C128.354 90.3007 128.233 89.2833 127.99 88.266C127.757 87.2487 127.397 86.2033 126.912 85.13H128.312C128.76 85.8113 129.119 86.4833 129.39 87.146C129.661 87.8087 129.857 88.4853 129.978 89.176C130.099 89.8573 130.16 90.5713 130.16 91.318C130.16 92.0647 130.099 92.7833 129.978 93.474C129.857 94.1647 129.661 94.8413 129.39 95.504C129.119 96.1667 128.76 96.8387 128.312 97.52Z" fill="#202244" fill-opacity="0.8"/>
<g clip-path="url(#clip0_42_431)">
<path d="M88.3581 9.93177C87.3823 9.93746 86.4184 10.0176 85.466 10.167C85.3208 10.1898 85.176 10.214 85.0314 10.24C76.1433 11.512 69.008 17.746 66.9739 25.8157C66.5864 27.1725 66.3767 28.5686 66.3779 29.984C66.3779 29.9845 66.3779 29.9848 66.3779 29.9854C66.3789 30.1496 66.3836 30.3124 66.3899 30.4746C66.3899 30.4946 66.3891 30.5144 66.3891 30.5344C66.393 36.8251 69.4843 42.7297 74.7084 46.6004C78.5365 49.6829 76.86 54.5895 78.3201 58.5841C78.9465 58.7665 79.5809 58.9326 80.2229 59.0813C80.62 59.1733 81.0204 59.2579 81.4231 59.3366C81.4025 56.7565 81.7607 51.701 81.0224 49.1786V49.1785C81.6393 49.3821 82.2657 49.5609 82.8999 49.7144C83.1702 51.0008 83.2793 52.4616 83.3055 53.8949C83.3088 54.0739 83.3108 54.2525 83.3117 54.4302C83.3125 54.6081 83.3124 54.7852 83.3109 54.9611C83.2989 56.7179 83.1899 58.3511 83.1407 59.464C83.1406 59.4644 83.1407 59.4647 83.1407 59.4653C83.1381 59.5224 83.1363 59.574 83.1341 59.6283C83.4933 59.6805 83.8542 59.7278 84.2172 59.7693C84.8966 59.8471 85.5824 59.9061 86.274 59.9456C86.7728 59.974 87.2747 59.992 87.7793 60C87.7681 56.8571 87.7121 53.6429 87.642 50.3743C87.9708 50.3959 88.3002 50.4109 88.6297 50.4193C89.0147 50.4159 89.3995 50.4035 89.7837 50.3821C89.7147 53.6557 89.6583 56.8692 89.6435 59.9911C90.0058 59.9811 90.3666 59.9661 90.7259 59.9456C91.4175 59.9061 92.1033 59.8471 92.7827 59.7693C93.282 59.7122 93.7777 59.6447 94.2698 59.5674C94.2279 58.5604 94.1307 57.101 94.1028 55.4802C94.0999 55.3087 94.0977 55.1356 94.0965 54.9612C94.0965 54.9598 94.0965 54.9583 94.0965 54.9568C94.0947 54.6812 94.0958 54.4021 94.0995 54.122C94.1005 54.0463 94.1008 53.9709 94.1022 53.8951C94.1055 53.716 94.11 53.5365 94.116 53.357C94.1581 52.0933 94.2719 50.8281 94.5107 49.6982C95.1482 49.537 95.7775 49.3501 96.3968 49.138C96.3968 49.1379 96.3969 49.1378 96.3969 49.1376V49.138H96.3968C95.6509 51.6202 95.9979 56.6361 95.9854 59.2543C96.2503 59.1993 96.5144 59.1421 96.7769 59.0813C97.4189 58.9326 98.0534 58.7665 98.6798 58.5841C100.14 54.5895 98.4633 49.6829 102.291 46.6004C107.516 42.7297 110.607 36.8251 110.611 30.5344C110.611 30.5144 110.61 30.4946 110.61 30.4746C110.616 30.3124 110.621 30.1496 110.622 29.9854C110.622 29.9849 110.622 29.9847 110.622 29.984C110.623 28.5686 110.414 27.1725 110.026 25.8157C107.992 17.746 100.857 11.512 91.9685 10.2399C91.8239 10.214 91.679 10.1898 91.5339 10.167C90.5815 10.0176 89.6176 9.93742 88.6418 9.93176C88.5945 9.93176 88.5472 9.93236 88.4999 9.93243C88.4527 9.93243 88.4053 9.93177 88.3581 9.93177ZM96.124 16.4527C96.5715 16.4469 97.0228 16.4921 97.4696 16.5943C100.603 17.1081 102.777 20.1205 102.177 22.9385C102.263 24.3475 100.227 25.688 100.618 26.8112C102.294 26.9377 104.311 26.6082 105.523 27.9441C106.447 28.7983 106.477 29.9441 106.449 31.0825C106.286 33.7184 105.426 36.2796 103.942 38.5484V29.858C103.129 28.6486 101.331 29.3373 100.065 29.1164C98.0445 29.1177 97.427 26.7287 98.2077 25.3516C98.9945 23.9952 100.291 22.5291 99.5424 20.9097C98.7973 18.765 95.4401 18.0228 93.7503 19.6961C92.3645 20.865 92.4889 22.8401 93.4765 24.1903C94.7744 25.9987 94.8966 28.4469 93.6805 30.3131C92.7625 31.4725 91.5239 32.3769 90.4238 33.3873C89.6033 31.8362 90.721 30.269 91.5922 28.978C92.8074 27.0629 91.217 24.3696 88.7934 24.2204C86.2836 23.948 84.2104 26.5632 85.2092 28.657C86.0091 30.0698 87.399 31.6004 86.5947 33.2767C86.0105 34.8779 83.96 34.5717 82.5085 34.6151C79.643 34.6605 81.6346 40.6436 82.4166 42.8104C86.6571 44.3504 90.672 44.2075 94.5187 42.8104L95.6977 35.4351L96.9901 34.2454L98.2698 35.3929L96.8313 44.6847C94.2534 45.9153 91.3863 46.5597 88.4749 46.5627C85.4287 46.5614 82.7062 45.8579 80.0399 44.518C79.2043 40.6601 78.2843 37.9897 78.2925 34.9543C78.6386 33.393 80.2733 32.2191 82.0366 32.3396C83.0496 32.3306 85.1925 32.6018 83.8715 31.1952C82.3704 29.3634 81.9002 26.7611 83.2013 24.7283C83.5359 23.8957 84.3109 23.1705 84.2446 22.2428C84.5838 20.0059 81.7789 18.0702 79.5043 18.9857C77.4168 19.6474 76.5312 22.1789 77.8204 23.8188C78.7179 25.0051 79.5275 26.53 78.8036 27.9568C78.4097 28.7946 77.4301 29.254 76.4629 29.1257C75.4521 29.1934 74.3674 29.0091 73.426 29.3835C72.7388 29.871 73.1316 30.7065 73.0294 31.3773V38.5841C71.6194 36.4468 70.7637 34.0452 70.5274 31.5619C70.5443 30.6906 70.5742 29.9126 70.6251 29.3205C71.0262 27.5982 73.081 26.6859 74.8924 26.8567C75.8295 26.945 77.3408 26.9703 76.1812 25.816C74.8804 24.1954 74.2703 22.046 75.0607 20.1142C76.0913 17.2309 79.9878 15.6745 83.0329 16.8786C85.3173 17.6886 86.8955 19.8812 86.7759 22.1103C87.8602 21.7608 89.3343 22.1128 90.1846 21.9675C90.0498 19.0335 92.9918 16.4938 96.124 16.4527Z" fill="#74AC83"/>
<path d="M90.4922 0.0629327L89.9959 6.70587C89.4529 6.6743 89.0518 6.65789 88.5001 6.65763C87.9484 6.65763 87.5472 6.6743 87.0041 6.70587L86.5079 0.0629327C87.9325 -0.0221552 89.0758 -0.0197916 90.4922 0.0629327ZM100.488 2.04366C101.671 2.46443 102.822 2.94619 103.934 3.48381L103.928 3.4937C103.957 3.50789 103.987 3.52168 104.016 3.53596L100.484 9.37085C99.6511 8.968 98.7913 8.60534 97.9071 8.2866L97.9102 8.27932C97.8737 8.26618 97.8374 8.25265 97.8007 8.23966L100.488 2.04366ZM76.5124 2.04366L79.1994 8.23966C79.1627 8.25265 79.1264 8.26618 79.0898 8.27932L79.093 8.2866C78.2088 8.60534 77.349 8.968 76.5162 9.37085L72.9837 3.53596C73.013 3.52168 73.0426 3.50789 73.0719 3.4937L73.0659 3.48381C74.1785 2.94619 75.3287 2.46443 76.5124 2.04366ZM112.246 9.19218C113.124 10.0219 113.95 10.8976 114.719 11.8148L114.702 11.8262C114.707 11.8329 114.713 11.8395 114.719 11.8462L108.822 15.7971C108.245 15.1131 107.627 14.4591 106.972 13.8377L106.986 13.8259C106.974 13.815 106.963 13.8038 106.951 13.7929L112.246 9.19218ZM64.7538 9.19218L70.0487 13.7929C70.0371 13.8038 70.0258 13.815 70.0142 13.8259L70.0278 13.8377C69.3729 14.4591 68.7551 15.1131 68.1783 15.7971L62.2815 11.8462C62.2871 11.8395 62.2929 11.8329 62.2985 11.8262L62.2815 11.8148C63.0504 10.8976 63.876 10.0219 64.7538 9.19218Z" fill="#74AC83"/>
<path d="M56.8043 21.8712C56.471 22.941 56.2019 24.0351 56 25.1498L63.2424 26.1252C63.3974 25.2934 63.6004 24.4763 63.8497 23.6768L56.8043 21.8712ZM120.196 21.8712L113.15 23.6769C113.4 24.4764 113.603 25.2934 113.758 26.1252L121 25.1497C120.798 24.0351 120.529 22.9409 120.196 21.8712ZM63.3936 34.6935L56.2177 36.01C56.4728 37.1558 56.7998 38.2779 57.1943 39.3724L64.1289 37.2355C63.8331 36.4075 63.5869 35.5592 63.3936 34.6935ZM113.606 34.6935C113.413 35.5593 113.167 36.4076 112.871 37.2356L119.806 39.3724C120.2 38.2779 120.527 37.1558 120.782 36.01L113.606 34.6935ZM67.8708 43.8486L61.8997 47.7036C62.6333 48.6157 63.4218 49.489 64.2616 50.3189L69.6447 45.804C69.0157 45.1824 68.4234 44.5297 67.8708 43.8486ZM109.129 43.8486C108.577 44.5297 107.984 45.1823 107.355 45.8039L112.738 50.3189C113.578 49.489 114.367 48.6157 115.1 47.7036L109.129 43.8486Z" fill="#74AC83"/>
</g>
<defs>
<clipPath id="clip0_42_431">
<rect width="65" height="60" fill="white" transform="translate(56)"/>
</clipPath>
</defs>
</svg>
