<svg width="75" height="75" viewBox="0 0 75 75" fill="none" xmlns="http://www.w3.org/2000/svg">
<path d="M65.5815 75H15.9983C14.867 75 13.9498 74.0827 13.9498 72.9516V5.87314C13.9498 4.74199 14.867 3.82471 15.9983 3.82471H65.5815C68.5469 3.82471 70.9594 6.23701 70.9594 9.20229V42.8253C70.9594 43.9564 70.0421 44.8737 68.9109 44.8737C67.7798 44.8737 66.8625 43.9564 66.8625 42.8253V9.20229C66.8625 8.49624 66.2878 7.92158 65.5816 7.92158H18.0467V70.903H65.5815C66.2878 70.903 66.8623 70.3283 66.8623 69.6221V54.0089C66.8623 52.8778 67.7796 51.9605 68.9108 51.9605C70.0419 51.9605 70.9592 52.8778 70.9592 54.0089V69.6221C70.9592 72.5875 68.5468 75 65.5815 75Z" fill="#507C5C"/>
<path d="M18.9764 72.9389H11.0264C8.29993 72.9389 6.08948 70.7286 6.08948 68.0019V10.7976C6.08948 8.07104 8.29978 5.8606 11.0264 5.8606H18.9766L18.9764 72.9389Z" fill="#CFF09E"/>
<path d="M18.9765 74.9873H11.0262C7.17439 74.9873 4.04065 71.8536 4.04065 68.0018V10.7976C4.04065 6.94575 7.17424 3.81201 11.0262 3.81201H18.9765C20.1078 3.81201 21.0249 4.7293 21.0249 5.86045V72.9389C21.0251 74.0703 20.1079 74.9873 18.9765 74.9873ZM11.0262 7.90903C9.43347 7.90903 8.13767 9.20469 8.13767 10.7976V68.002C8.13767 69.5948 9.43347 70.8906 11.0262 70.8906H16.928V7.90903H11.0262Z" fill="#507C5C"/>
<path d="M46.4465 2.04846V24.9142C46.4465 25.3575 46.916 25.6434 47.3099 25.4398L53.3607 22.3134C53.5311 22.2254 53.7335 22.2254 53.904 22.3134L59.9549 25.4398C60.3488 25.6433 60.8183 25.3575 60.8183 24.9142V2.04846H46.4465Z" fill="#CFF09E"/>
<path d="M60.2258 27.5553C60.2258 27.5553 60.2257 27.5553 60.2254 27.5553C59.8067 27.5553 59.3875 27.4531 59.0135 27.2597L53.632 24.4791L48.2498 27.2597C47.8761 27.4529 47.4571 27.5552 47.0381 27.5552C45.5822 27.5552 44.3976 26.3706 44.3976 24.9144V2.04844C44.3977 0.917285 45.315 0 46.4462 0H60.8176C61.9488 0 62.866 0.917285 62.866 2.04844V24.9145C62.866 25.6389 62.5795 26.3139 62.0588 26.8151C61.5631 27.2924 60.9121 27.5553 60.2258 27.5553ZM48.4946 4.09688V22.5218L52.4201 20.4939C53.1651 20.1086 54.0979 20.1084 54.8443 20.494L58.7692 22.5218V4.09688H48.4946Z" fill="#507C5C"/>
<path d="M55.4248 36.8016H32.8917C31.7604 36.8016 30.8433 35.8843 30.8433 34.7531C30.8433 33.622 31.7604 32.7047 32.8917 32.7047H55.4248C56.556 32.7047 57.4732 33.622 57.4732 34.7531C57.4734 35.8843 56.5563 36.8016 55.4248 36.8016Z" fill="#507C5C"/>
</svg>
