<svg xmlns="http://www.w3.org/2000/svg" shape-rendering="geometricPrecision" text-rendering="geometricPrecision" image-rendering="optimizeQuality" fill-rule="evenodd" clip-rule="evenodd" viewBox="0 0 512 420.165"><path fill-rule="nonzero" d="M74.316 0h363.368C478.548 0 512 33.458 512 74.316v271.533c0 40.815-33.502 74.316-74.316 74.316H74.316C33.439 420.165 0 386.689 0 345.849V74.316C0 33.408 33.408 0 74.316 0zm55.578 278.351V141.814h70.779c13.11 0 22.467 2.551 28.071 7.647 5.61 5.097 8.409 12.528 8.409 22.281 0 9.759-1.783 17.295-5.35 22.615-3.567 5.313-8.335 8.774-14.311 10.372v1.313c17.624 3.059 26.436 15.072 26.436 36.046 0 10.924-2.911 19.698-8.738 26.324-5.827 6.626-14.781 9.939-26.869 9.939h-78.427zm60.729-54.394h-17.036v22.28h16.819c6.118 0 9.177-3.715 9.177-11.14 0-7.425-2.991-11.14-8.96-11.14zm-3.276-52.215h-13.76v20.317h13.543c5.53 0 8.298-3.387 8.298-10.155 0-6.775-2.693-10.162-8.081-10.162zm153.691 106.609c-3.994-5.79-36.189-58.983-36.48-58.983v58.983h-43.694V141.814h41.069c3.994 5.802 36.195 58.983 36.486 58.983v-58.983h43.687v136.537h-41.068zm96.646-242.422H74.316c-21.079 0-38.387 17.307-38.387 38.387v271.533c0 21.154 17.27 38.387 38.387 38.387h363.368c21.153 0 38.387-17.233 38.387-38.387V74.316c0-21.092-17.289-38.387-38.387-38.387z"/></svg>